<svg width="42" height="54" viewBox="0 0 42 54" fill="none" xmlns="http://www.w3.org/2000/svg">
<path d="M23.7043 42.0381L21.3361 42.3709C19.6684 42.6053 18.5035 44.1512 18.7379 45.8189L19.1974 49.089C19.4318 50.7567 20.9777 51.9216 22.6455 51.6872L25.0136 51.3544C26.6814 51.12 27.8462 49.5742 27.6118 47.9064L27.1523 44.6364C26.9172 42.9636 25.3721 41.8037 23.7043 42.0381Z" fill="#44C9AD"/>
<path d="M3.44874 19.0711L7.89366 19.0013C9.30334 18.9779 10.5065 17.997 10.8219 16.6219C11.2202 14.8857 11.9142 13.4626 12.9047 12.3574C14.3086 10.7934 16.1938 9.83991 18.5619 9.50709C21.0157 9.16224 23.0613 9.53242 24.693 10.6133C26.3254 11.6993 27.2626 13.1398 27.5168 14.9486C27.6995 16.2486 27.4585 17.495 26.7938 18.688C26.361 19.4476 24.9361 21.1174 22.5298 23.7009C20.1184 26.2852 18.5886 28.5245 17.9295 30.4155C17.2559 32.3496 17.2145 34.3952 17.4158 36.4119C17.5868 38.14 19.1583 39.3783 20.8815 39.1362L23.3504 38.7892C24.9224 38.5683 26.0531 37.1813 25.9747 35.5996C25.9176 34.4618 25.9843 33.5841 26.1851 32.965C26.5192 31.9058 27.5594 30.4237 29.295 28.5151C32.6565 24.8313 34.7857 21.9939 35.6919 19.9962C36.5937 18.0044 36.9056 15.9824 36.6173 13.9317C36.0969 10.2283 34.0631 7.2001 30.5116 4.85272C26.9651 2.50464 22.5164 1.70662 17.1755 2.45723C12.0967 3.17102 8.19362 5.12225 5.45706 8.31739C3.12668 11.0393 1.90018 14.0479 1.7819 17.3374C1.73721 18.2994 2.50032 19.0862 3.44874 19.0711Z" fill="#44C9AD"/>
</svg>
