<svg width="14" height="11" viewBox="0 0 14 11" fill="none" xmlns="http://www.w3.org/2000/svg">
<path d="M7.2334 5.4425L13.1084 0.1315C12.9219 0.048 12.7169 0 12.4999 0H1.4999C1.2694 0 1.0539 0.0564999 0.858398 0.1495L6.7659 5.442C6.9114 5.519 7.0879 5.519 7.2334 5.442V5.4425Z" fill="#44C9AD"/>
<path d="M13.9218 9.95322C13.9678 9.80922 13.9998 9.65822 13.9998 9.49922V1.49922C13.9998 1.25522 13.9358 1.02822 13.8318 0.824219L10.1743 4.12422L13.9218 9.95322Z" fill="#44C9AD"/>
<path d="M9.42189 4.80469L7.79439 6.27269C7.55289 6.42369 7.27639 6.49919 6.99939 6.49919C6.72239 6.49919 6.44589 6.42369 6.20439 6.27269L6.13539 6.22119L4.56839 4.81769L0.733887 10.7837C0.958887 10.9187 1.21889 11.0007 1.49989 11.0007H12.4999C12.7809 11.0007 13.0409 10.9182 13.2659 10.7837L9.42189 4.80469Z" fill="#44C9AD"/>
<path d="M3.815 4.14102L0.1665 0.872516C0.1605 0.867016 0.158 0.859516 0.1525 0.853516C0.058 1.05002 0 1.26752 0 1.49952V9.50002C0 9.65952 0.0314999 9.81002 0.0779999 9.95402L3.815 4.14102Z" fill="#44C9AD"/>
</svg>
