<svg width="182" height="182" viewBox="0 0 182 182" fill="none" xmlns="http://www.w3.org/2000/svg">
<mask id="path-1-inside-1_2022_43" fill="white">
<path d="M60.0375 34.6875V49.5H20.6625L17.0375 75.25C23.4958 70.2917 30.5583 67.8125 38.225 67.8125C46.0583 67.8125 52.6833 70.375 58.1 75.5C63.5583 80.5833 66.2667 87.0208 66.225 94.8125C66.1417 99.4792 65.0375 103.854 62.9125 107.938C60.8292 111.979 57.8708 115.25 54.0375 117.75C46.5375 122.583 38.975 124.979 31.35 124.938C29.225 124.938 27.1417 124.812 25.1 124.562C23.0583 124.312 20.9333 123.833 18.725 123.125C16.5167 122.458 14.6 121.583 12.975 120.5C11.35 119.417 9.99583 117.958 8.9125 116.125C7.87083 114.292 7.35 112.188 7.35 109.812C7.35 106.854 8.39167 104.396 10.475 102.438C12.5583 100.438 15.0792 99.4375 18.0375 99.4375C20.9542 99.4375 23.3708 100.396 25.2875 102.312C27.2042 104.188 28.1625 106.604 28.1625 109.562C28.1625 114.104 25.9542 117.688 21.5375 120.312C23.7458 121.062 25.9542 121.438 28.1625 121.438C33.7042 121.438 38.35 119.208 42.1 114.75C45.8083 110.208 47.6625 104.5 47.6625 97.625C47.6625 91.2917 46.0375 86.1458 42.7875 82.1875C39.5792 78.1875 34.8917 76.1667 28.725 76.125C23.1417 76.125 17.8917 78.1042 12.975 82.0625L11.4125 81.375L17.5375 34.6875H60.0375ZM109.4 106.562C111.442 108.562 112.463 111.062 112.463 114.062C112.463 117.062 111.442 119.562 109.4 121.562C107.358 123.521 104.838 124.5 101.838 124.5C98.8375 124.5 96.3167 123.5 94.275 121.5C92.2333 119.5 91.2125 117 91.2125 114C91.2125 111.042 92.2333 108.562 94.275 106.562C96.3583 104.562 98.8792 103.562 101.838 103.562C104.838 103.562 107.358 104.562 109.4 106.562Z"/>
</mask>
<g filter="url(#filter0_i_2022_43)">
<path d="M60.0375 34.6875V49.5H20.6625L17.0375 75.25C23.4958 70.2917 30.5583 67.8125 38.225 67.8125C46.0583 67.8125 52.6833 70.375 58.1 75.5C63.5583 80.5833 66.2667 87.0208 66.225 94.8125C66.1417 99.4792 65.0375 103.854 62.9125 107.938C60.8292 111.979 57.8708 115.25 54.0375 117.75C46.5375 122.583 38.975 124.979 31.35 124.938C29.225 124.938 27.1417 124.812 25.1 124.562C23.0583 124.312 20.9333 123.833 18.725 123.125C16.5167 122.458 14.6 121.583 12.975 120.5C11.35 119.417 9.99583 117.958 8.9125 116.125C7.87083 114.292 7.35 112.188 7.35 109.812C7.35 106.854 8.39167 104.396 10.475 102.438C12.5583 100.438 15.0792 99.4375 18.0375 99.4375C20.9542 99.4375 23.3708 100.396 25.2875 102.312C27.2042 104.188 28.1625 106.604 28.1625 109.562C28.1625 114.104 25.9542 117.688 21.5375 120.312C23.7458 121.062 25.9542 121.438 28.1625 121.438C33.7042 121.438 38.35 119.208 42.1 114.75C45.8083 110.208 47.6625 104.5 47.6625 97.625C47.6625 91.2917 46.0375 86.1458 42.7875 82.1875C39.5792 78.1875 34.8917 76.1667 28.725 76.125C23.1417 76.125 17.8917 78.1042 12.975 82.0625L11.4125 81.375L17.5375 34.6875H60.0375ZM109.4 106.562C111.442 108.562 112.463 111.062 112.463 114.062C112.463 117.062 111.442 119.562 109.4 121.562C107.358 123.521 104.838 124.5 101.838 124.5C98.8375 124.5 96.3167 123.5 94.275 121.5C92.2333 119.5 91.2125 117 91.2125 114C91.2125 111.042 92.2333 108.562 94.275 106.562C96.3583 104.562 98.8792 103.562 101.838 103.562C104.838 103.562 107.358 104.562 109.4 106.562Z" fill="#44C9AD"/>
</g>
<path d="M60.0375 34.6875H61.0375V33.6875H60.0375V34.6875ZM60.0375 49.5V50.5H61.0375V49.5H60.0375ZM20.6625 49.5V48.5H19.7934L19.6723 49.3606L20.6625 49.5ZM17.0375 75.25L16.0473 75.1106L15.7063 77.5328L17.6465 76.0432L17.0375 75.25ZM58.1 75.5L57.4127 76.2264L57.4185 76.2318L58.1 75.5ZM66.225 94.8125L67.2249 94.8304L67.225 94.8178L66.225 94.8125ZM62.9125 107.938L62.0254 107.476L62.0236 107.479L62.9125 107.938ZM54.0375 117.75L54.5792 118.591L54.5838 118.588L54.0375 117.75ZM31.35 124.938L31.3555 123.938H31.35V124.938ZM18.725 123.125L19.0304 122.173L19.0222 122.17L19.014 122.168L18.725 123.125ZM8.9125 116.125L8.04304 116.619L8.04724 116.626L8.05157 116.634L8.9125 116.125ZM10.475 102.438L11.1599 103.166L11.1675 103.159L10.475 102.438ZM25.2875 102.312L24.5803 103.02L24.5882 103.027L25.2875 102.312ZM21.5375 120.312L21.0266 119.453L19.1612 120.562L21.2159 121.259L21.5375 120.312ZM42.1 114.75L42.8653 115.394L42.87 115.388L42.8746 115.382L42.1 114.75ZM42.7875 82.1875L42.0074 82.8132L42.0146 82.8221L42.7875 82.1875ZM28.725 76.125L28.7318 75.125H28.725V76.125ZM12.975 82.0625L12.5723 82.9778L13.1286 83.2226L13.6021 82.8414L12.975 82.0625ZM11.4125 81.375L10.421 81.2449L10.3235 81.9883L11.0098 82.2903L11.4125 81.375ZM17.5375 34.6875V33.6875H16.6601L16.546 34.5574L17.5375 34.6875ZM60.0375 34.6875H59.0375V49.5H60.0375H61.0375V34.6875H60.0375ZM60.0375 49.5V48.5H20.6625V49.5V50.5H60.0375V49.5ZM20.6625 49.5L19.6723 49.3606L16.0473 75.1106L17.0375 75.25L18.0277 75.3894L21.6527 49.6394L20.6625 49.5ZM17.0375 75.25L17.6465 76.0432C23.9417 71.2101 30.7927 68.8125 38.225 68.8125V67.8125V66.8125C30.3239 66.8125 23.05 69.3733 16.4285 74.4568L17.0375 75.25ZM38.225 67.8125V68.8125C45.8169 68.8125 52.1918 71.2866 57.4127 76.2264L58.1 75.5L58.7873 74.7736C53.1748 69.4634 46.2997 66.8125 38.225 66.8125V67.8125ZM58.1 75.5L57.4185 76.2318C62.6622 81.1153 65.2653 87.2808 65.225 94.8072L66.225 94.8125L67.225 94.8178C67.2681 86.7608 64.4544 80.0514 58.7815 74.7682L58.1 75.5ZM66.225 94.8125L65.2252 94.7946C65.1445 99.3089 64.078 103.532 62.0254 107.476L62.9125 107.938L63.7996 108.399C65.997 104.177 67.1388 99.6494 67.2248 94.8304L66.225 94.8125ZM62.9125 107.938L62.0236 107.479C60.0202 111.366 57.1804 114.506 53.4912 116.912L54.0375 117.75L54.5838 118.588C58.5613 115.994 61.6381 112.592 63.8014 108.396L62.9125 107.938ZM54.0375 117.75L53.4958 116.909C46.1306 121.656 38.7553 123.978 31.3555 123.938L31.35 124.938L31.3445 125.937C39.1947 125.98 46.9444 123.511 54.5792 118.591L54.0375 117.75ZM31.35 124.938V123.938C29.2643 123.938 27.2216 123.815 25.2215 123.57L25.1 124.562L24.9785 125.555C27.0618 125.81 29.1857 125.938 31.35 125.938V124.938ZM25.1 124.562L25.2215 123.57C23.2496 123.328 21.1863 122.864 19.0304 122.173L18.725 123.125L18.4196 124.077C20.6804 124.802 22.8671 125.297 24.9785 125.555L25.1 124.562ZM18.725 123.125L19.014 122.168C16.8833 121.524 15.0595 120.688 13.5297 119.668L12.975 120.5L12.4203 121.332C14.1405 122.479 16.15 123.392 18.436 124.082L18.725 123.125ZM12.975 120.5L13.5297 119.668C12.0408 118.675 10.7873 117.332 9.77343 115.616L8.9125 116.125L8.05157 116.634C9.20436 118.585 10.6592 120.158 12.4203 121.332L12.975 120.5ZM8.9125 116.125L9.78195 115.631C8.83623 113.967 8.35 112.037 8.35 109.812H7.35H6.35C6.35 112.338 6.90544 114.617 8.04304 116.619L8.9125 116.125ZM7.35 109.812H8.35C8.35 107.119 9.28537 104.928 11.1599 103.166L10.475 102.438L9.79009 101.709C7.49796 103.863 6.35 106.589 6.35 109.812H7.35ZM10.475 102.438L11.1675 103.159C13.0596 101.342 15.3303 100.438 18.0375 100.438V99.4375V98.4375C14.828 98.4375 12.057 99.5325 9.78247 101.716L10.475 102.438ZM18.0375 99.4375V100.438C20.7112 100.438 22.8665 101.306 24.5804 103.02L25.2875 102.312L25.9946 101.605C23.8752 99.486 21.1971 98.4375 18.0375 98.4375V99.4375ZM25.2875 102.312L24.5882 103.027C26.2917 104.694 27.1625 106.843 27.1625 109.562H28.1625H29.1625C29.1625 106.366 28.1166 103.681 25.9868 101.598L25.2875 102.312ZM28.1625 109.562H27.1625C27.1625 113.699 25.1876 116.98 21.0266 119.453L21.5375 120.312L22.0484 121.172C26.7207 118.395 29.1625 114.509 29.1625 109.562H28.1625ZM21.5375 120.312L21.2159 121.259C23.522 122.043 25.8388 122.438 28.1625 122.438V121.438V120.438C26.0695 120.438 23.9697 120.082 21.8591 119.366L21.5375 120.312ZM28.1625 121.438V122.438C34.0162 122.438 38.9364 120.065 42.8653 115.394L42.1 114.75L41.3347 114.106C37.7636 118.352 33.3921 120.438 28.1625 120.438V121.438ZM42.1 114.75L42.8746 115.382C46.753 110.632 48.6625 104.689 48.6625 97.625H47.6625H46.6625C46.6625 104.311 44.8636 109.784 41.3254 114.118L42.1 114.75ZM47.6625 97.625H48.6625C48.6625 91.1166 46.9894 85.7294 43.5604 81.5529L42.7875 82.1875L42.0146 82.8221C45.0856 86.5623 46.6625 91.4667 46.6625 97.625H47.6625ZM42.7875 82.1875L43.5676 81.5618C40.1324 77.279 35.1319 75.1683 28.7318 75.125L28.725 76.125L28.7182 77.125C34.6515 77.1651 39.0259 79.096 42.0074 82.8132L42.7875 82.1875ZM28.725 76.125V75.125C22.8839 75.125 17.4178 77.2019 12.3479 81.2836L12.975 82.0625L13.6021 82.8414C18.3656 79.0064 23.3994 77.125 28.725 77.125V76.125ZM12.975 82.0625L13.3777 81.1472L11.8152 80.4597L11.4125 81.375L11.0098 82.2903L12.5723 82.9778L12.975 82.0625ZM11.4125 81.375L12.404 81.5051L18.529 34.8176L17.5375 34.6875L16.546 34.5574L10.421 81.2449L11.4125 81.375ZM17.5375 34.6875V35.6875H60.0375V34.6875V33.6875H17.5375V34.6875ZM109.4 121.562L110.092 122.284L110.1 122.277L109.4 121.562ZM94.275 106.562L93.5824 105.841L93.5752 105.848L94.275 106.562ZM109.4 106.562L108.7 107.277C110.539 109.079 111.463 111.316 111.463 114.062H112.463H113.463C113.463 110.809 112.344 108.046 110.1 105.848L109.4 106.562ZM112.463 114.062H111.463C111.463 116.809 110.539 119.046 108.7 120.848L109.4 121.562L110.1 122.277C112.344 120.079 113.463 117.316 113.463 114.062H112.463ZM109.4 121.562L108.708 120.841C106.864 122.609 104.597 123.5 101.838 123.5V124.5V125.5C105.078 125.5 107.852 124.433 110.092 122.284L109.4 121.562ZM101.838 124.5V123.5C99.0847 123.5 96.8195 122.593 94.9748 120.786L94.275 121.5L93.5752 122.214C95.8139 124.407 98.5903 125.5 101.838 125.5V124.5ZM94.275 121.5L94.9748 120.786C93.1355 118.984 92.2125 116.746 92.2125 114H91.2125H90.2125C90.2125 117.254 91.3311 120.016 93.5752 122.214L94.275 121.5ZM91.2125 114H92.2125C92.2125 111.3 93.1326 109.081 94.9748 107.277L94.275 106.562L93.5752 105.848C91.3341 108.044 90.2125 110.783 90.2125 114H91.2125ZM94.275 106.562L94.9675 107.284C96.8596 105.467 99.1303 104.562 101.838 104.562V103.562V102.562C98.628 102.562 95.857 103.658 93.5825 105.841L94.275 106.562ZM101.838 103.562V104.562C104.59 104.562 106.856 105.47 108.7 107.277L109.4 106.562L110.1 105.848C107.861 103.655 105.085 102.562 101.838 102.562V103.562Z" fill="#E3E3E3" mask="url(#path-1-inside-1_2022_43)"/>
<path d="M27.0938 170.906V171H1.03125V170.906C1.85156 170.695 2.39453 170.367 2.66016 169.922C2.93359 169.469 3.07031 168.738 3.07031 167.73V157.699C3.07031 156.699 2.93359 155.973 2.66016 155.52C2.39453 155.074 1.85156 154.746 1.03125 154.535V154.441H7.60547V154.535C6.78516 154.746 6.24219 155.074 5.97656 155.52C5.70312 155.973 5.56641 156.699 5.56641 157.699V167.73C5.56641 168.652 5.66797 169.281 5.87109 169.617C6.06641 169.945 6.4375 170.109 6.98438 170.109H11.4023C11.9414 170.109 12.3125 169.945 12.5156 169.617C12.7188 169.281 12.8203 168.652 12.8203 167.73V157.699C12.8203 156.699 12.6836 155.973 12.4102 155.52C12.1445 155.074 11.6016 154.746 10.7812 154.535V154.441H17.3555V154.535C16.5508 154.746 16.0078 155.074 15.7266 155.52C15.4453 155.973 15.3086 156.699 15.3164 157.699V167.73C15.3086 168.645 15.4062 169.273 15.6094 169.617C15.8125 169.945 16.1836 170.109 16.7227 170.109H21.1406C21.6875 170.109 22.0625 169.945 22.2656 169.617C22.4688 169.273 22.5664 168.645 22.5586 167.73V157.699C22.5586 156.699 22.4219 155.973 22.1484 155.52C21.8828 155.074 21.3398 154.746 20.5195 154.535V154.441H27.0938V154.535C26.2734 154.746 25.7305 155.074 25.4648 155.52C25.1914 155.973 25.0547 156.699 25.0547 157.699V167.73C25.0547 168.73 25.1914 169.461 25.4648 169.922C25.7305 170.375 26.2734 170.703 27.0938 170.906ZM35.5641 164.355H41.3766L38.4 156.023L35.5641 164.355ZM47.3766 170.906V171H41.3531V170.906C41.8766 170.773 42.2516 170.594 42.4781 170.367C42.7125 170.133 42.8258 169.75 42.818 169.219C42.818 168.68 42.4312 167.328 41.6578 165.164H35.2828C34.5641 167.336 34.2047 168.672 34.2047 169.172C34.2047 169.688 34.318 170.07 34.5445 170.32C34.7789 170.562 35.1578 170.758 35.6812 170.906V171H30.6187V170.906C31.0953 170.664 31.4898 170.363 31.8023 170.004C32.3961 169.316 33.2281 167.496 34.2984 164.543L37.9898 154.441H40.3219L43.8961 164.52C44.7008 166.816 45.3141 168.363 45.7359 169.16C46.1734 169.988 46.7203 170.57 47.3766 170.906ZM57.675 170.906V171H50.7609V170.906C51.5812 170.695 52.1242 170.367 52.3898 169.922C52.6633 169.469 52.8 168.738 52.8 167.73V157.699C52.8 156.699 52.6633 155.973 52.3898 155.52C52.1242 155.074 51.5812 154.746 50.7609 154.535V154.441H62.0344V157.828H61.9406C61.2922 156.656 60.7922 155.93 60.4406 155.648C60.0734 155.352 59.4875 155.203 58.6828 155.203H55.2961V167.73C55.2961 168.723 55.4602 169.453 55.7883 169.922C56.1164 170.383 56.7453 170.711 57.675 170.906ZM83.6859 154.441V156.621H76.8187L76.0336 162.164C76.5648 161.672 77.1742 161.289 77.8617 161.016C78.5492 160.742 79.2484 160.605 79.9594 160.605C81.3969 160.605 82.5648 161.062 83.4633 161.977C84.3617 162.891 84.8109 164.066 84.8109 165.504C84.8109 166.363 84.6273 167.164 84.2602 167.906C83.893 168.641 83.4047 169.254 82.7953 169.746C82.1859 170.238 81.4906 170.629 80.7094 170.918C79.9359 171.199 79.1352 171.344 78.307 171.352C77.1352 171.359 76.143 171.105 75.3305 170.59C74.5336 170.074 74.1352 169.441 74.1352 168.691C74.1352 168.207 74.2914 167.805 74.6039 167.484C74.9242 167.156 75.3266 166.992 75.8109 166.992C76.2641 166.992 76.643 167.137 76.9477 167.426C77.2602 167.707 77.4164 168.07 77.4164 168.516C77.4242 168.953 77.2953 169.328 77.0297 169.641C76.7719 169.945 76.4555 170.176 76.0805 170.332C76.7914 170.605 77.4711 170.738 78.1195 170.73C79.4242 170.738 80.4359 170.289 81.1547 169.383C81.8812 168.469 82.2445 167.344 82.2445 166.008C82.2445 164.602 81.893 163.578 81.1898 162.938C80.5023 162.297 79.5922 161.977 78.4594 161.977C77.3344 161.977 76.2992 162.375 75.3539 163.172L75.2836 163.148L76.4086 154.441H83.6859Z" fill="#44C9AD"/>
<path d="M150 57.875C145.858 57.875 142.5 61.2329 142.5 65.375C142.5 69.5171 145.858 72.875 150 72.875C154.142 72.875 157.5 69.5171 157.5 65.375C157.5 61.2324 154.142 57.875 150 57.875ZM151.875 67.25H148.125V63.5H151.875V67.25Z" fill="#44C9AD"/>
<path d="M121.75 63.5H138.939C139.507 60.1509 141.55 57.3032 144.375 55.6519V48.5H121.75C119.679 48.5 118 51.8579 118 56C118 60.1421 119.679 63.5 121.75 63.5Z" fill="#44C9AD"/>
<path d="M178.25 48.5H155.625V55.6519C158.45 57.3032 160.493 60.1509 161.061 63.5H178.25C180.321 63.5 182 60.1421 182 56C182 51.8574 180.321 48.5 178.25 48.5Z" fill="#44C9AD"/>
<path d="M151.875 54.2954V48.5H148.125V54.2954C148.736 54.1919 149.36 54.125 150 54.125C150.64 54.125 151.264 54.1919 151.875 54.2954Z" fill="#44C9AD"/>
<path d="M161.061 67.25C160.881 68.3081 160.551 69.3047 160.098 70.2412L162.701 74.75H182L178.25 67.25H161.061Z" fill="#44C9AD"/>
<path d="M157.062 87.4863L159.375 83.9888L163.562 83.7402L157.679 73.5508C155.838 75.2798 153.422 76.3691 150.748 76.5488L157.062 87.4863Z" fill="#44C9AD"/>
<path d="M136.438 83.7402L140.625 83.9888L142.938 87.4863L149.252 76.5488C146.578 76.3696 144.161 75.2798 142.321 73.5508L136.438 83.7402Z" fill="#44C9AD"/>
<path d="M139.902 70.2402C139.449 69.3042 139.119 68.3076 138.939 67.25H121.75L118 74.75H137.298L139.902 70.2402Z" fill="#44C9AD"/>
<defs>
<filter id="filter0_i_2022_43" x="7.34998" y="34.6875" width="105.113" height="90.3125" filterUnits="userSpaceOnUse" color-interpolation-filters="sRGB">
<feFlood flood-opacity="0" result="BackgroundImageFix"/>
<feBlend mode="normal" in="SourceGraphic" in2="BackgroundImageFix" result="shape"/>
<feColorMatrix in="SourceAlpha" type="matrix" values="0 0 0 0 0 0 0 0 0 0 0 0 0 0 0 0 0 0 127 0" result="hardAlpha"/>
<feOffset/>
<feGaussianBlur stdDeviation="23.5"/>
<feComposite in2="hardAlpha" operator="arithmetic" k2="-1" k3="1"/>
<feColorMatrix type="matrix" values="0 0 0 0 1 0 0 0 0 1 0 0 0 0 1 0 0 0 0.35 0"/>
<feBlend mode="normal" in2="shape" result="effect1_innerShadow_2022_43"/>
</filter>
</defs>
</svg>
