<svg width="360" height="124" viewBox="0 0 360 124" fill="none" xmlns="http://www.w3.org/2000/svg">
<g filter="url(#filter0_i_2_16)">
<rect width="360" height="100" rx="50" fill="#E3C068"/>
</g>
<path d="M39.7358 56V44.8H49.9438V56H47.3678V46.32L47.9598 46.912H41.7198L42.3118 46.32V56H39.7358ZM59.6801 56.192C58.7948 56.192 57.9735 56.048 57.2161 55.76C56.4695 55.472 55.8188 55.0667 55.2641 54.544C54.7201 54.0213 54.2935 53.408 53.9841 52.704C53.6855 52 53.5361 51.232 53.5361 50.4C53.5361 49.568 53.6855 48.8 53.9841 48.096C54.2935 47.392 54.7255 46.7787 55.2801 46.256C55.8348 45.7333 56.4855 45.328 57.2321 45.04C57.9788 44.752 58.7895 44.608 59.6641 44.608C60.5495 44.608 61.3601 44.752 62.0961 45.04C62.8428 45.328 63.4881 45.7333 64.0321 46.256C64.5868 46.7787 65.0188 47.392 65.3281 48.096C65.6375 48.7893 65.7921 49.5573 65.7921 50.4C65.7921 51.232 65.6375 52.0053 65.3281 52.72C65.0188 53.424 64.5868 54.0373 64.0321 54.56C63.4881 55.072 62.8428 55.472 62.0961 55.76C61.3601 56.048 60.5548 56.192 59.6801 56.192ZM59.6641 53.984C60.1655 53.984 60.6241 53.8987 61.0401 53.728C61.4668 53.5573 61.8401 53.312 62.1601 52.992C62.4801 52.672 62.7255 52.2933 62.8961 51.856C63.0775 51.4187 63.1681 50.9333 63.1681 50.4C63.1681 49.8667 63.0775 49.3813 62.8961 48.944C62.7255 48.5067 62.4801 48.128 62.1601 47.808C61.8508 47.488 61.4828 47.2427 61.0561 47.072C60.6295 46.9013 60.1655 46.816 59.6641 46.816C59.1628 46.816 58.6988 46.9013 58.2721 47.072C57.8561 47.2427 57.4881 47.488 57.1681 47.808C56.8481 48.128 56.5975 48.5067 56.4161 48.944C56.2455 49.3813 56.1601 49.8667 56.1601 50.4C56.1601 50.9227 56.2455 51.408 56.4161 51.856C56.5975 52.2933 56.8428 52.672 57.1521 52.992C57.4721 53.312 57.8455 53.5573 58.2721 53.728C58.6988 53.8987 59.1628 53.984 59.6641 53.984ZM69.1884 56.176C68.9964 56.176 68.7937 56.16 68.5804 56.128C68.3777 56.096 68.1537 56.0533 67.9084 56L68.0684 53.808C68.2177 53.8507 68.3724 53.872 68.5324 53.872C68.9697 53.872 69.311 53.696 69.5564 53.344C69.8017 52.9813 69.9777 52.464 70.0844 51.792C70.191 51.12 70.2604 50.304 70.2924 49.344L70.4524 44.8H79.0604V56H76.5004V46.32L77.0924 46.912H72.1484L72.6764 46.288L72.5804 49.248C72.5484 50.3467 72.4737 51.3227 72.3564 52.176C72.239 53.0293 72.0577 53.7547 71.8124 54.352C71.567 54.9493 71.231 55.4027 70.8044 55.712C70.3777 56.0213 69.839 56.176 69.1884 56.176ZM83.8416 53.888C84.4603 54.0693 84.9776 54.1227 85.3936 54.048C85.8203 53.9627 86.199 53.664 86.5296 53.152L87.0736 52.336L87.3136 52.064L91.0256 44.8H93.5696L88.8016 53.664C88.375 54.464 87.8683 55.0773 87.2816 55.504C86.7056 55.9307 86.071 56.1707 85.3776 56.224C84.6843 56.288 83.9643 56.1653 83.2176 55.856L83.8416 53.888ZM87.2656 54.224L82.2096 44.8H84.9776L88.6896 52.32L87.2656 54.224ZM103.644 51.824C103.089 52.048 102.556 52.2187 102.044 52.336C101.532 52.4427 101.041 52.496 100.572 52.496C99.0678 52.496 97.9158 52.1387 97.1158 51.424C96.3158 50.6987 95.9158 49.6587 95.9158 48.304V44.8H98.4758V48.016C98.4758 48.784 98.6838 49.3653 99.0998 49.76C99.5158 50.144 100.108 50.336 100.876 50.336C101.366 50.336 101.841 50.2827 102.3 50.176C102.758 50.0587 103.185 49.8933 103.58 49.68L103.644 51.824ZM103.276 56V44.8H105.836V56H103.276ZM110.22 56V44.8H112.796V52.096L118.14 44.8H120.572V56H118.012V48.72L112.668 56H110.22ZM127.377 56V46.32L127.969 46.912H123.809V44.8H133.521V46.912H129.361L129.937 46.32V56H127.377ZM142.172 48.48C143.527 48.48 144.572 48.784 145.308 49.392C146.044 49.9893 146.412 50.8907 146.412 52.096C146.412 53.376 146.002 54.3467 145.18 55.008C144.37 55.6693 143.244 56 141.804 56H136.748V44.8H139.324V48.48H142.172ZM141.66 54.08C142.322 54.08 142.844 53.9147 143.228 53.584C143.612 53.2533 143.804 52.7733 143.804 52.144C143.804 51.5253 143.612 51.0827 143.228 50.816C142.855 50.5387 142.332 50.4 141.66 50.4H139.324V54.08H141.66ZM163.259 56L159.771 50.608L161.867 49.344L166.203 56H163.259ZM155.979 56V44.8H158.555V56H155.979ZM157.803 51.488V49.328H161.707V51.488H157.803ZM162.107 50.688L159.723 50.4L163.355 44.8H166.091L162.107 50.688ZM174.33 56.192C173.445 56.192 172.623 56.048 171.866 55.76C171.119 55.472 170.469 55.0667 169.914 54.544C169.37 54.0213 168.943 53.408 168.634 52.704C168.335 52 168.186 51.232 168.186 50.4C168.186 49.568 168.335 48.8 168.634 48.096C168.943 47.392 169.375 46.7787 169.93 46.256C170.485 45.7333 171.135 45.328 171.882 45.04C172.629 44.752 173.439 44.608 174.314 44.608C175.199 44.608 176.01 44.752 176.746 45.04C177.493 45.328 178.138 45.7333 178.682 46.256C179.237 46.7787 179.669 47.392 179.978 48.096C180.287 48.7893 180.442 49.5573 180.442 50.4C180.442 51.232 180.287 52.0053 179.978 52.72C179.669 53.424 179.237 54.0373 178.682 54.56C178.138 55.072 177.493 55.472 176.746 55.76C176.01 56.048 175.205 56.192 174.33 56.192ZM174.314 53.984C174.815 53.984 175.274 53.8987 175.69 53.728C176.117 53.5573 176.49 53.312 176.81 52.992C177.13 52.672 177.375 52.2933 177.546 51.856C177.727 51.4187 177.818 50.9333 177.818 50.4C177.818 49.8667 177.727 49.3813 177.546 48.944C177.375 48.5067 177.13 48.128 176.81 47.808C176.501 47.488 176.133 47.2427 175.706 47.072C175.279 46.9013 174.815 46.816 174.314 46.816C173.813 46.816 173.349 46.9013 172.922 47.072C172.506 47.2427 172.138 47.488 171.818 47.808C171.498 48.128 171.247 48.5067 171.066 48.944C170.895 49.3813 170.81 49.8667 170.81 50.4C170.81 50.9227 170.895 51.408 171.066 51.856C171.247 52.2933 171.493 52.672 171.802 52.992C172.122 53.312 172.495 53.5573 172.922 53.728C173.349 53.8987 173.813 53.984 174.314 53.984ZM191.719 44.8H194.311V56H191.719V44.8ZM186.631 56H184.039V44.8H186.631V56ZM191.911 51.408H186.439V49.216H191.911V51.408ZM204.013 56.192C203.149 56.192 202.344 56.0533 201.597 55.776C200.861 55.488 200.221 55.0827 199.677 54.56C199.133 54.0373 198.706 53.424 198.397 52.72C198.098 52.016 197.949 51.2427 197.949 50.4C197.949 49.5573 198.098 48.784 198.397 48.08C198.706 47.376 199.133 46.7627 199.677 46.24C200.232 45.7173 200.877 45.3173 201.613 45.04C202.349 44.752 203.154 44.608 204.029 44.608C205 44.608 205.874 44.7787 206.653 45.12C207.442 45.4507 208.104 45.9413 208.637 46.592L206.973 48.128C206.589 47.6907 206.162 47.3653 205.693 47.152C205.224 46.928 204.712 46.816 204.157 46.816C203.634 46.816 203.154 46.9013 202.717 47.072C202.28 47.2427 201.901 47.488 201.581 47.808C201.261 48.128 201.01 48.5067 200.829 48.944C200.658 49.3813 200.573 49.8667 200.573 50.4C200.573 50.9333 200.658 51.4187 200.829 51.856C201.01 52.2933 201.261 52.672 201.581 52.992C201.901 53.312 202.28 53.5573 202.717 53.728C203.154 53.8987 203.634 53.984 204.157 53.984C204.712 53.984 205.224 53.8773 205.693 53.664C206.162 53.44 206.589 53.104 206.973 52.656L208.637 54.192C208.104 54.8427 207.442 55.3387 206.653 55.68C205.874 56.0213 204.994 56.192 204.013 56.192ZM212.107 53.888C212.726 54.0693 213.243 54.1227 213.659 54.048C214.086 53.9627 214.465 53.664 214.795 53.152L215.339 52.336L215.579 52.064L219.291 44.8H221.835L217.067 53.664C216.641 54.464 216.134 55.0773 215.547 55.504C214.971 55.9307 214.337 56.1707 213.643 56.224C212.95 56.288 212.23 56.1653 211.483 55.856L212.107 53.888ZM215.531 54.224L210.475 44.8H213.243L216.955 52.32L215.531 54.224ZM224.591 56.176C224.399 56.176 224.197 56.16 223.983 56.128C223.781 56.096 223.557 56.0533 223.311 56L223.471 53.808C223.621 53.8507 223.775 53.872 223.935 53.872C224.373 53.872 224.714 53.696 224.959 53.344C225.205 52.9813 225.381 52.464 225.487 51.792C225.594 51.12 225.663 50.304 225.695 49.344L225.855 44.8H234.463V56H231.903V46.32L232.495 46.912H227.551L228.079 46.288L227.983 49.248C227.951 50.3467 227.877 51.3227 227.759 52.176C227.642 53.0293 227.461 53.7547 227.215 54.352C226.97 54.9493 226.634 55.4027 226.207 55.712C225.781 56.0213 225.242 56.176 224.591 56.176ZM244.285 48.48C245.639 48.48 246.685 48.784 247.421 49.392C248.157 49.9893 248.525 50.8907 248.525 52.096C248.525 53.376 248.114 54.3467 247.293 55.008C246.482 55.6693 245.357 56 243.917 56H238.861V44.8H241.437V48.48H244.285ZM243.773 54.08C244.434 54.08 244.957 53.9147 245.341 53.584C245.725 53.2533 245.917 52.7733 245.917 52.144C245.917 51.5253 245.725 51.0827 245.341 50.816C244.967 50.5387 244.445 50.4 243.773 50.4H241.437V54.08H243.773ZM253.236 56V46.32L253.828 46.912H249.668V44.8H259.38V46.912H255.22L255.796 46.32V56H253.236ZM260.781 56L265.773 44.8H268.333L273.341 56H270.621L266.525 46.112H267.549L263.437 56H260.781ZM263.277 53.6L263.965 51.632H269.725L270.429 53.6H263.277ZM276.426 56V44.8H279.002V53.888H283.994V44.8H286.57V56H276.426ZM285.786 58.368V55.392L286.346 56H283.994V53.888H288.17V58.368H285.786ZM291.479 56V44.8H294.055V52.096L299.399 44.8H301.831V56H299.271V48.72L293.927 56H291.479ZM306.22 56V44.8H308.796V49.2H311.692V51.44H308.796V56H306.22ZM316.108 56.192C315.255 56.192 314.465 56.048 313.74 55.76C313.025 55.472 312.401 55.072 311.868 54.56C311.335 54.0373 310.919 53.424 310.62 52.72C310.332 52.0053 310.188 51.232 310.188 50.4C310.188 49.5573 310.332 48.784 310.62 48.08C310.919 47.376 311.335 46.768 311.868 46.256C312.401 45.7333 313.025 45.328 313.74 45.04C314.465 44.752 315.255 44.608 316.108 44.608C316.951 44.608 317.735 44.752 318.46 45.04C319.185 45.328 319.809 45.7333 320.332 46.256C320.865 46.768 321.281 47.3813 321.58 48.096C321.879 48.8 322.028 49.568 322.028 50.4C322.028 51.232 321.879 52.0053 321.58 52.72C321.281 53.424 320.865 54.0373 320.332 54.56C319.809 55.072 319.185 55.472 318.46 55.76C317.735 56.048 316.951 56.192 316.108 56.192ZM316.108 53.984C316.577 53.984 317.009 53.8987 317.404 53.728C317.799 53.5573 318.145 53.3173 318.444 53.008C318.743 52.688 318.977 52.3093 319.148 51.872C319.319 51.4347 319.404 50.944 319.404 50.4C319.404 49.856 319.319 49.3653 319.148 48.928C318.977 48.4907 318.743 48.1173 318.444 47.808C318.145 47.488 317.799 47.2427 317.404 47.072C317.009 46.9013 316.577 46.816 316.108 46.816C315.649 46.816 315.217 46.9013 314.812 47.072C314.417 47.2427 314.071 47.488 313.772 47.808C313.473 48.1173 313.239 48.4907 313.068 48.928C312.897 49.3653 312.812 49.856 312.812 50.4C312.812 50.944 312.897 51.4347 313.068 51.872C313.239 52.3093 313.473 52.688 313.772 53.008C314.071 53.3173 314.417 53.5573 314.812 53.728C315.217 53.8987 315.649 53.984 316.108 53.984Z" fill="#5A5A5A"/>
<rect x="26" y="80" width="308" height="44" rx="10" transform="rotate(-0.750222 26 80)" fill="white"/>
<path d="M132.402 108.025C131.549 108.036 130.787 107.906 130.117 107.635C129.46 107.363 128.894 106.944 128.42 106.377C127.946 105.81 127.583 105.108 127.332 104.271C127.081 103.421 126.948 102.436 126.934 101.316C126.921 100.316 127.003 99.4416 127.179 98.6926C127.356 97.9302 127.608 97.2735 127.934 96.7225C128.26 96.1715 128.64 95.7065 129.076 95.3274C129.524 94.9349 130.006 94.6219 130.523 94.3884C131.053 94.1414 131.598 93.9543 132.156 93.827L136.861 92.6653L137.119 93.982L132.692 95.0401C132.413 95.1104 132.074 95.2082 131.676 95.3334C131.291 95.4584 130.893 95.6437 130.483 95.8891C130.086 96.1343 129.717 96.4725 129.376 96.9036C129.035 97.3348 128.762 97.8918 128.558 98.5745C128.367 99.2437 128.278 100.078 128.291 101.078C128.294 101.292 128.302 101.465 128.318 101.598C128.332 101.718 128.348 101.851 128.363 101.997C128.391 102.13 128.414 102.33 128.431 102.597L127.804 102.085C127.94 101.269 128.231 100.559 128.676 99.9531C129.121 99.3338 129.682 98.8531 130.357 98.5109C131.046 98.1552 131.81 97.9719 132.65 97.9609C133.624 97.9481 134.493 98.1501 135.258 98.5668C136.024 98.9701 136.625 99.5423 137.061 100.283C137.511 101.024 137.742 101.888 137.755 102.874C137.768 103.848 137.553 104.724 137.109 105.503C136.68 106.282 136.061 106.897 135.253 107.348C134.446 107.785 133.495 108.011 132.402 108.025ZM132.547 106.843C133.293 106.833 133.951 106.658 134.52 106.317C135.089 105.963 135.529 105.49 135.841 104.9C136.167 104.309 136.325 103.647 136.315 102.913C136.306 102.193 136.131 101.556 135.79 101C135.463 100.444 135.011 100.01 134.433 99.6977C133.856 99.3719 133.187 99.2139 132.427 99.2239C131.68 99.2337 131.022 99.4023 130.453 99.7298C129.884 100.044 129.436 100.483 129.11 101.047C128.798 101.612 128.646 102.26 128.656 102.994C128.665 103.727 128.834 104.385 129.162 104.967C129.503 105.549 129.962 106.01 130.54 106.349C131.131 106.688 131.8 106.853 132.547 106.843ZM145.364 107.835C144.271 107.85 143.308 107.635 142.476 107.193C141.643 106.737 140.988 106.112 140.511 105.319C140.034 104.511 139.788 103.588 139.775 102.548C139.761 101.508 139.969 100.585 140.398 99.7796C140.841 98.9737 141.446 98.3391 142.214 97.8756C142.994 97.3987 143.871 97.1539 144.844 97.1411C145.831 97.1282 146.707 97.3434 147.473 97.7868C148.252 98.2166 148.867 98.8353 149.317 99.6428C149.768 100.437 150 101.361 150.014 102.414C150.015 102.481 150.009 102.554 149.997 102.634C149.997 102.701 149.998 102.774 149.999 102.854L140.86 102.974L140.846 101.914L149.226 101.804L148.671 102.231C148.661 101.472 148.486 100.8 148.145 100.218C147.817 99.6224 147.371 99.1615 146.807 98.8356C146.242 98.5096 145.593 98.3514 144.86 98.361C144.14 98.3704 143.496 98.5456 142.927 98.8864C142.358 99.2272 141.917 99.6997 141.605 100.304C141.293 100.908 141.142 101.597 141.152 102.37L141.155 102.59C141.166 103.39 141.348 104.094 141.703 104.703C142.071 105.298 142.57 105.765 143.201 106.103C143.846 106.428 144.575 106.585 145.388 106.575C146.028 106.566 146.62 106.445 147.163 106.212C147.72 105.978 148.196 105.625 148.589 105.153L149.401 106.062C148.942 106.628 148.361 107.063 147.658 107.365C146.969 107.668 146.204 107.824 145.364 107.835ZM157.627 107.675C156.587 107.688 155.65 107.474 154.818 107.031C153.998 106.575 153.35 105.951 152.873 105.157C152.396 104.35 152.15 103.426 152.137 102.386C152.123 101.333 152.344 100.403 152.8 99.5972C153.256 98.7911 153.888 98.1561 154.696 97.6922C155.516 97.2281 156.447 96.9892 157.486 96.9756C158.38 96.9639 159.189 97.1266 159.913 97.4639C160.637 97.8011 161.211 98.3136 161.633 99.0015L160.583 99.7353C160.216 99.2067 159.764 98.8192 159.227 98.5729C158.691 98.3266 158.109 98.2075 157.483 98.2157C156.736 98.2255 156.065 98.4076 155.47 98.7621C154.874 99.1033 154.407 99.5828 154.068 100.201C153.73 100.818 153.566 101.541 153.577 102.367C153.587 103.194 153.77 103.912 154.125 104.52C154.48 105.129 154.959 105.603 155.564 105.942C156.168 106.267 156.843 106.425 157.59 106.415C158.217 106.407 158.795 106.273 159.325 106.012C159.855 105.752 160.296 105.36 160.65 104.835L161.719 105.541C161.315 106.226 160.755 106.754 160.04 107.123C159.324 107.479 158.52 107.663 157.627 107.675ZM164.494 107.485L164.357 96.9856L173.796 96.862L173.933 107.361L172.513 107.38L172.387 97.7405L172.752 98.1158L165.433 98.2116L165.788 97.827L165.914 107.466L164.494 107.485ZM176.049 107.313L176.133 106.092C176.227 106.104 176.314 106.123 176.394 106.149C176.488 106.161 176.568 106.167 176.634 106.166C177.061 106.16 177.399 105.996 177.648 105.672C177.911 105.349 178.105 104.92 178.231 104.385C178.358 103.85 178.443 103.248 178.488 102.581C178.532 101.9 178.57 101.22 178.601 100.539L178.732 96.7974L186.431 96.6966L186.569 107.196L185.149 107.214L185.022 97.5351L185.388 97.9503L179.668 98.0252L180.002 97.5808L179.882 100.623C179.854 101.53 179.792 102.397 179.696 103.225C179.614 104.053 179.47 104.782 179.265 105.411C179.073 106.04 178.8 106.537 178.444 106.902C178.089 107.253 177.631 107.433 177.071 107.44C176.911 107.442 176.744 107.431 176.571 107.407C176.41 107.382 176.237 107.351 176.049 107.313ZM197.125 107.057L197.094 104.738L197.029 104.358L196.978 100.479C196.967 99.5855 196.704 98.9022 196.192 98.4289C195.692 97.9554 194.949 97.7251 193.962 97.738C193.282 97.747 192.637 97.8687 192.027 98.1034C191.417 98.3381 190.901 98.6449 190.479 99.0238L189.825 97.9722C190.352 97.512 190.988 97.1569 191.731 96.9072C192.475 96.6441 193.259 96.5071 194.086 96.4963C195.446 96.4785 196.497 96.8048 197.239 97.4751C197.995 98.132 198.381 99.147 198.399 100.52L198.485 107.04L197.125 107.057ZM193.506 107.205C192.72 107.215 192.031 107.097 191.441 106.852C190.865 106.593 190.42 106.238 190.107 105.789C189.795 105.327 189.634 104.795 189.627 104.195C189.619 103.649 189.74 103.154 189.987 102.711C190.248 102.254 190.67 101.888 191.253 101.614C191.849 101.326 192.647 101.176 193.647 101.162L197.267 101.115L197.281 102.175L193.701 102.222C192.688 102.235 191.984 102.424 191.588 102.79C191.206 103.155 191.019 103.604 191.026 104.137C191.034 104.737 191.273 105.214 191.745 105.568C192.216 105.922 192.872 106.093 193.712 106.082C194.512 106.072 195.196 105.883 195.764 105.515C196.346 105.134 196.766 104.595 197.023 103.899L197.356 104.874C197.099 105.571 196.639 106.13 195.978 106.552C195.33 106.974 194.506 107.192 193.506 107.205ZM204.264 106.964L204.138 97.3248L204.503 97.7L200.163 97.7569L200.147 96.517L209.526 96.3941L209.542 97.634L205.203 97.6909L205.558 97.3062L205.684 106.945L204.264 106.964ZM211.717 106.866L211.579 96.3673L212.999 96.3487L213.06 100.988L219.679 100.902L219.618 96.262L221.038 96.2434L221.176 106.743L219.756 106.761L219.695 102.121L213.076 102.208L213.137 106.848L211.717 106.866ZM229.533 106.733C228.519 106.746 227.603 106.532 226.784 106.089C225.978 105.633 225.336 105.008 224.859 104.214C224.382 103.407 224.136 102.483 224.123 101.443C224.109 100.39 224.33 99.4606 224.786 98.6545C225.243 97.8485 225.868 97.2136 226.662 96.7498C227.456 96.286 228.366 96.0474 229.392 96.034C230.432 96.0204 231.355 96.235 232.161 96.6778C232.98 97.1205 233.622 97.7388 234.086 98.5328C234.563 99.3266 234.808 100.25 234.822 101.303C234.836 102.343 234.614 103.273 234.158 104.092C233.716 104.898 233.091 105.54 232.283 106.017C231.476 106.481 230.559 106.72 229.533 106.733ZM229.516 105.473C230.276 105.463 230.947 105.288 231.529 104.947C232.111 104.592 232.565 104.106 232.89 103.489C233.229 102.858 233.393 102.135 233.382 101.322C233.371 100.496 233.188 99.778 232.834 99.1692C232.492 98.5603 232.026 98.093 231.435 97.7674C230.844 97.4284 230.175 97.2639 229.429 97.2736C228.682 97.2834 228.018 97.4655 227.436 97.8198C226.853 98.1608 226.393 98.6402 226.054 99.258C225.716 99.8758 225.552 100.598 225.563 101.425C225.573 102.238 225.756 102.956 226.111 103.578C226.466 104.186 226.939 104.66 227.53 104.999C228.121 105.325 228.783 105.483 229.516 105.473Z" fill="#5A5A5A"/>
<defs>
<filter id="filter0_i_2_16" x="0" y="0" width="360" height="100" filterUnits="userSpaceOnUse" color-interpolation-filters="sRGB">
<feFlood flood-opacity="0" result="BackgroundImageFix"/>
<feBlend mode="normal" in="SourceGraphic" in2="BackgroundImageFix" result="shape"/>
<feColorMatrix in="SourceAlpha" type="matrix" values="0 0 0 0 0 0 0 0 0 0 0 0 0 0 0 0 0 0 127 0" result="hardAlpha"/>
<feOffset/>
<feGaussianBlur stdDeviation="10"/>
<feComposite in2="hardAlpha" operator="arithmetic" k2="-1" k3="1"/>
<feColorMatrix type="matrix" values="0 0 0 0 1 0 0 0 0 1 0 0 0 0 1 0 0 0 0.8 0"/>
<feBlend mode="normal" in2="shape" result="effect1_innerShadow_2_16"/>
</filter>
</defs>
</svg>
