<svg width="16" height="16" viewBox="0 0 16 16" fill="none" xmlns="http://www.w3.org/2000/svg">
<path d="M14.9101 10.7098C14.0974 10.0395 13.3518 9.71364 12.6308 9.71364C11.5879 9.71364 10.8369 10.3945 10.1571 11.0921C10.0789 11.1724 9.9842 11.2098 9.85918 11.2098C9.28627 11.2098 8.2784 10.4735 6.86356 9.02131C5.19907 7.31296 4.56975 6.22641 4.99292 5.79195C6.14007 4.61504 6.49819 3.43522 4.74183 1.19348C4.11306 0.39034 3.49789 0 2.86116 0C2.00247 0 1.34971 0.704441 0.773792 1.32601C0.674224 1.43346 0.580168 1.53496 0.487951 1.6296C-0.162975 2.29758 -0.162641 3.75458 0.488897 5.52728C1.20375 7.4723 2.61519 9.58814 4.46328 11.4851C5.89249 12.9517 7.44755 14.1371 8.96045 14.9329C10.2813 15.6277 11.5625 16 12.568 16C12.5681 16 12.5682 16 12.5684 16C13.1977 16 13.7088 15.8591 14.0464 15.5726C14.7321 14.9908 16.0085 13.913 16 12.6328C15.9953 11.9462 15.6287 11.3028 14.9101 10.7098Z" fill="#44C9AD"/>
</svg>
