<svg width="22" height="36" viewBox="0 0 22 36" fill="none" xmlns="http://www.w3.org/2000/svg">
<path fill-rule="evenodd" clip-rule="evenodd" d="M21.5933 24.3905C22.1357 24.9112 22.1357 25.7554 21.5933 26.2761L12.1489 35.3428C11.6065 35.8635 10.7271 35.8635 10.1847 35.3428L0.74028 26.2761C0.197918 25.7554 0.197918 24.9112 0.74028 24.3905C1.28264 23.8698 2.16208 23.8698 2.70445 24.3905L11.1668 32.5144L19.6291 24.3905C20.1715 23.8698 21.0509 23.8698 21.5933 24.3905Z" fill="#44C9AD"/>
<path fill-rule="evenodd" clip-rule="evenodd" d="M21.5933 12.3905C22.1357 12.9112 22.1357 13.7554 21.5933 14.2761L12.1489 23.3428C11.6065 23.8635 10.7271 23.8635 10.1847 23.3428L0.74028 14.2761C0.197918 13.7554 0.197918 12.9112 0.74028 12.3905C1.28264 11.8698 2.16208 11.8698 2.70445 12.3905L11.1668 20.5144L19.6291 12.3905C20.1715 11.8698 21.0509 11.8698 21.5933 12.3905Z" fill="#44C9AD"/>
<path fill-rule="evenodd" clip-rule="evenodd" d="M21.5933 0.39052C22.1357 0.911227 22.1357 1.75544 21.5933 2.27615L12.1489 11.3428C11.6065 11.8635 10.7271 11.8635 10.1847 11.3428L0.74028 2.27615C0.197918 1.75544 0.197918 0.911227 0.74028 0.39052C1.28264 -0.130173 2.16208 -0.130173 2.70445 0.39052L11.1668 8.5144L19.6291 0.39052C20.1715 -0.130173 21.0509 -0.130173 21.5933 0.39052Z" fill="#44C9AD"/>
</svg>
