<svg width="140" height="50" viewBox="0 0 140 50" fill="none" xmlns="http://www.w3.org/2000/svg">
<rect width="140" height="50" rx="25" fill="#E3C068"/>
<path d="M45.0218 28.136V22.184H42.1418L42.1058 23.408C42.0818 23.928 42.0458 24.42 41.9978 24.884C41.9578 25.348 41.8938 25.772 41.8058 26.156C41.7178 26.532 41.6018 26.852 41.4578 27.116C41.3218 27.38 41.1498 27.568 40.9418 27.68L38.8658 27.416C39.1538 27.424 39.3898 27.324 39.5738 27.116C39.7658 26.908 39.9178 26.616 40.0298 26.24C40.1418 25.856 40.2218 25.408 40.2698 24.896C40.3258 24.384 40.3658 23.828 40.3898 23.228L40.4858 20.6H46.9418V28.136H45.0218ZM38.5898 30.74L38.6018 27.416H48.1178V30.74H46.3178V29H40.3898V30.74H38.5898ZM49.7253 29L53.4693 20.6H55.3893L59.1453 29H57.1053L54.0333 21.584H54.8013L51.7173 29H49.7253ZM51.5973 27.2L52.1133 25.724H56.4333L56.9613 27.2H51.5973ZM61.5901 29.132C61.4461 29.132 61.2941 29.12 61.1341 29.096C60.9821 29.072 60.8141 29.04 60.6301 29L60.7501 27.356C60.8621 27.388 60.9781 27.404 61.0981 27.404C61.4261 27.404 61.6821 27.272 61.8661 27.008C62.0501 26.736 62.1821 26.348 62.2621 25.844C62.3421 25.34 62.3941 24.728 62.4181 24.008L62.5381 20.6H68.9941V29H67.0741V21.74L67.5181 22.184H63.8101L64.2061 21.716L64.1341 23.936C64.1101 24.76 64.0541 25.492 63.9661 26.132C63.8781 26.772 63.7421 27.316 63.5581 27.764C63.3741 28.212 63.1221 28.552 62.8021 28.784C62.4821 29.016 62.0781 29.132 61.5901 29.132ZM74.08 23.984H78.124V25.496H74.08V23.984ZM74.224 27.44H78.796V29H72.292V20.6H78.64V22.16H74.224V27.44ZM83.3543 23.984H87.3983V25.496H83.3543V23.984ZM83.4983 27.44H88.0703V29H81.5663V20.6H87.9143V22.16H83.4983V27.44ZM98.9309 22.988L100.707 25.688L98.9309 28.412H97.3109L98.9429 25.688L97.3109 22.988H98.9309ZM99.2909 25.04V26.348H94.9949V25.04H99.2909Z" fill="#5A5A5A"/>
</svg>
