<svg width="140" height="50" viewBox="0 0 140 50" fill="none" xmlns="http://www.w3.org/2000/svg">
<rect x="0.5" y="0.5" width="139" height="49" rx="24.5" stroke="#E3C068"/>
<path d="M40.8296 28.4L39.0536 25.688L40.8296 22.976H42.4496L40.8176 25.688L42.4496 28.4H40.8296ZM40.4696 26.348V25.04H44.7656V26.348H40.4696ZM57.9634 20.6H59.9074V29H57.9634V20.6ZM54.1474 29H52.2034V20.6H54.1474V29ZM58.1074 25.556H54.0034V23.912H58.1074V25.556ZM62.264 29L66.008 20.6H67.928L71.684 29H69.644L66.572 21.584H67.34L64.256 29H62.264ZM64.136 27.2L64.652 25.724H68.972L69.5 27.2H64.136ZM73.2419 28.256L73.8419 26.864C74.2019 27.08 74.5859 27.248 74.9939 27.368C75.4099 27.48 75.8139 27.544 76.2059 27.56C76.6059 27.568 76.9659 27.528 77.2859 27.44C77.6139 27.352 77.8739 27.22 78.0659 27.044C78.2659 26.868 78.3659 26.644 78.3659 26.372C78.3659 26.052 78.2339 25.816 77.9699 25.664C77.7059 25.504 77.3539 25.424 76.9139 25.424H74.8619V23.96H76.7699C77.1619 23.96 77.4659 23.88 77.6819 23.72C77.9059 23.56 78.0179 23.34 78.0179 23.06C78.0179 22.82 77.9379 22.628 77.7779 22.484C77.6179 22.332 77.3979 22.22 77.1179 22.148C76.8459 22.076 76.5379 22.044 76.1939 22.052C75.8499 22.06 75.4939 22.116 75.1259 22.22C74.7579 22.324 74.4059 22.468 74.0699 22.652L73.4819 21.152C74.0259 20.872 74.5979 20.68 75.1979 20.576C75.8059 20.464 76.3899 20.436 76.9499 20.492C77.5179 20.54 78.0299 20.668 78.4859 20.876C78.9419 21.076 79.3059 21.34 79.5779 21.668C79.8499 21.996 79.9859 22.384 79.9859 22.832C79.9859 23.232 79.8819 23.588 79.6739 23.9C79.4659 24.212 79.1739 24.452 78.7979 24.62C78.4299 24.788 78.0059 24.872 77.5259 24.872L77.5739 24.44C78.1339 24.44 78.6179 24.536 79.0259 24.728C79.4419 24.912 79.7619 25.172 79.9859 25.508C80.2179 25.836 80.3339 26.216 80.3339 26.648C80.3339 27.048 80.2259 27.408 80.0099 27.728C79.8019 28.04 79.5139 28.304 79.1459 28.52C78.7779 28.736 78.3579 28.896 77.8859 29C77.4139 29.104 76.9099 29.148 76.3739 29.132C75.8459 29.116 75.3139 29.04 74.7779 28.904C74.2419 28.76 73.7299 28.544 73.2419 28.256ZM82.1249 29L85.8689 20.6H87.7889L91.5449 29H89.5049L86.4329 21.584H87.2009L84.1169 29H82.1249ZM83.9969 27.2L84.5129 25.724H88.8329L89.3609 27.2H83.9969ZM99.4737 28.136V22.184H96.5937L96.5577 23.408C96.5337 23.928 96.4977 24.42 96.4497 24.884C96.4097 25.348 96.3457 25.772 96.2577 26.156C96.1697 26.532 96.0537 26.852 95.9097 27.116C95.7737 27.38 95.6017 27.568 95.3937 27.68L93.3177 27.416C93.6057 27.424 93.8417 27.324 94.0257 27.116C94.2177 26.908 94.3697 26.616 94.4817 26.24C94.5937 25.856 94.6737 25.408 94.7217 24.896C94.7777 24.384 94.8177 23.828 94.8417 23.228L94.9377 20.6H101.394V28.136H99.4737ZM93.0417 30.74L93.0537 27.416H102.57V30.74H100.77V29H94.8417V30.74H93.0417Z" fill="#5A5A5A"/>
</svg>
