<svg width="570" height="708" viewBox="0 0 570 708" fill="none" xmlns="http://www.w3.org/2000/svg">
<rect width="570" height="708" rx="10" fill="white"/>
<rect x="32.5" y="32.5" width="505" height="643" rx="9.5" stroke="#44C9AD"/>
<mask id="mask0_2050_28" style="mask-type:alpha" maskUnits="userSpaceOnUse" x="0" y="0" width="570" height="451">
<rect width="570" height="451" rx="10" fill="#5A5A5A"/>
</mask>
<g mask="url(#mask0_2050_28)">
<g filter="url(#filter0_i_2050_28)">
<path d="M193 -8.00002C193 -19.0457 201.954 -28 213 -28H357C368.046 -28 377 -19.0457 377 -8V60.9131C377 70.8067 369.766 79.2136 359.983 80.6893L287.983 91.55C286.006 91.8483 283.994 91.8483 282.017 91.55L210.017 80.6893C200.234 79.2136 193 70.8067 193 60.913V-8.00002Z" fill="#44C9AD"/>
</g>
<path d="M213 -27.5H357C367.77 -27.5 376.5 -18.7696 376.5 -8V60.9131C376.5 70.5594 369.447 78.7565 359.908 80.1953L287.908 91.0557C285.98 91.3464 284.02 91.3464 282.092 91.0557L210.092 80.1953C200.553 78.7565 193.5 70.5594 193.5 60.9131V-8C193.5 -18.6014 201.96 -27.2264 212.497 -27.4932L213 -27.5Z" stroke="#E3E3E3"/>
<path d="M294.796 86.4025C292.977 83.2231 284.656 81.9771 284.656 81.9771C268.774 80.545 257.001 67.6699 257.001 51.6298C257.001 39.4852 264.133 28.5435 274.817 23.6169C274.688 23.3162 274.574 23.0011 274.502 22.686C263.288 27.7845 255.483 39.2417 255.483 51.816C255.483 68.3574 267.742 82.0201 284.126 83.5095C284.126 83.5095 290.442 83.8246 292.161 87.0899C292.218 87.2188 294.71 87.1902 294.81 87.1042C294.982 86.918 294.939 86.6459 294.796 86.4025Z" fill="white"/>
<path d="M261.169 22.7856C262.014 23.8024 263.03 25.3491 263.26 27.125C263.474 28.7576 262.672 29.9893 262.2 30.4762C261.613 30.1325 260.51 29.1587 260.295 27.526C260.052 25.7358 260.624 23.9886 261.169 22.7856ZM260.854 20.4082C260.854 20.4082 258.376 23.917 258.877 27.7122C259.25 30.5335 261.598 32.023 262.343 32.023H262.4C263.073 31.9227 265.064 29.8461 264.677 26.9388C264.162 23.1436 260.854 20.4082 260.854 20.4082Z" fill="white"/>
<path d="M271.538 19.1912C271.581 20.208 271.467 21.5113 270.879 22.6284C270.335 23.6595 269.433 24.0892 268.903 24.2324C268.717 23.7025 268.559 22.7 269.089 21.6975C269.676 20.5661 270.679 19.7354 271.538 19.1912ZM272.67 17C272.67 17 269.29 18.203 267.815 21.0243C266.683 23.1869 267.657 25.3924 268.158 25.6502C268.244 25.6932 268.373 25.7218 268.545 25.7218C269.404 25.7218 271.209 25.106 272.154 23.2871C273.629 20.4658 272.67 17 272.67 17Z" fill="white"/>
<path d="M278.57 21.3823C279.286 21.3823 279.973 21.4969 280.56 21.6401C279.844 22.3705 278.828 23.1725 277.61 23.5163C277.324 23.6022 277.037 23.6308 276.737 23.6308C276.021 23.6308 275.419 23.3874 275.075 23.1725C275.333 22.6713 275.949 21.8836 277.052 21.5685C277.51 21.454 278.026 21.3823 278.57 21.3823ZM278.57 19.9502C277.954 19.9502 277.31 20.0218 276.665 20.1937C274.316 20.8524 273.385 23.0723 273.529 23.6165C273.658 24.0605 274.975 25.0773 276.737 25.0773C277.138 25.0773 277.553 25.02 277.997 24.9054C281.076 24.0461 282.938 20.9813 282.938 20.9813C282.938 20.9813 280.933 19.9502 278.57 19.9502Z" fill="white"/>
<path d="M271.266 27.0821C271.337 27.0821 271.423 27.0821 271.509 27.0964C272.784 27.1823 273.93 27.7695 274.789 28.3423C273.958 28.7434 272.87 29.1157 271.738 29.1157C271.624 29.1157 271.495 29.1157 271.38 29.1014C270.249 29.0155 269.476 28.3567 269.132 27.927C269.476 27.569 270.249 27.0821 271.266 27.0821ZM271.266 25.6499C269.017 25.6499 267.528 27.2682 267.499 27.8125C267.456 28.371 268.831 30.3617 271.252 30.5335C271.409 30.5479 271.567 30.5479 271.724 30.5479C274.717 30.5479 277.238 28.5142 277.238 28.5142C277.238 28.5142 274.789 25.8934 271.61 25.6499C271.495 25.6499 271.38 25.6499 271.266 25.6499Z" fill="white"/>
<path d="M264.133 42.3776C263.804 43.6522 263.145 45.3851 261.842 46.6168C260.754 47.6479 259.493 47.7482 258.992 47.7482C258.792 47.7482 258.634 47.7339 258.505 47.7195C258.434 47.0464 258.577 45.5856 259.78 44.4399C261.083 43.2083 262.845 42.6354 264.133 42.3776ZM265.881 40.7163C265.881 40.7163 261.57 40.7593 258.792 43.4088C256.672 45.4281 256.915 48.3067 257.388 48.7936C257.589 48.9941 258.204 49.1803 259.006 49.1803C260.123 49.1803 261.599 48.8223 262.845 47.6479C265.609 45.0128 265.881 40.7163 265.881 40.7163Z" fill="white"/>
<path d="M267.857 33.5122C268.53 33.5122 269.16 33.5838 269.704 33.6698C268.945 34.7439 267.714 36.1187 266.052 36.8205C265.551 37.0353 265.021 37.1356 264.477 37.1356C263.603 37.1356 262.916 36.8635 262.544 36.663C262.715 36.0042 263.389 34.6866 264.907 34.0564C265.752 33.6841 266.754 33.5122 267.857 33.5122ZM267.857 32.0801C266.74 32.0801 265.522 32.2519 264.348 32.7389C261.641 33.8703 260.839 36.6343 261.097 37.2645C261.283 37.7228 262.672 38.5677 264.463 38.5677C265.136 38.5677 265.852 38.4532 266.597 38.1381C270.134 36.663 271.91 32.7532 271.91 32.7532C271.91 32.7532 270.105 32.0801 267.857 32.0801Z" fill="white"/>
<path d="M263.26 51.629C263.231 52.9466 262.988 54.7798 262 56.2835C261.112 57.6441 259.723 58.0594 259.006 58.1167C258.792 57.4722 258.591 56.0114 259.493 54.6366C260.467 53.1471 262.057 52.1876 263.26 51.629ZM264.578 49.624C264.578 49.624 260.396 50.6552 258.29 53.8632C256.686 56.3122 257.589 59.0619 258.147 59.4199C258.276 59.5059 258.52 59.5488 258.849 59.5488C259.952 59.5488 261.957 58.9617 263.203 57.0569C265.294 53.8632 264.578 49.624 264.578 49.624Z" fill="white"/>
<path d="M257.302 69.2593C257.646 69.2593 257.976 69.2736 258.305 69.3166C260.453 69.603 261.685 71.1211 262.014 71.8085C261.57 72.3098 260.281 73.298 258.448 73.298C258.233 73.298 258.004 73.2836 257.789 73.255C255.484 72.9542 253.507 71.5794 252.304 70.5339C253.522 69.9467 255.34 69.2593 257.302 69.2593ZM257.302 67.8271C253.35 67.8271 249.97 70.2332 249.97 70.2332C249.97 70.2332 253.178 74.1 257.603 74.6728C257.89 74.7158 258.176 74.7301 258.448 74.7301C261.398 74.7301 263.432 72.7108 263.518 71.9947C263.618 71.207 261.871 68.3284 258.477 67.8988C258.09 67.8558 257.689 67.8271 257.302 67.8271Z" fill="white"/>
<path d="M267.7 59.4056C267.829 60.9953 267.757 63.4013 266.626 65.4349C265.623 67.2394 263.804 67.8982 262.945 67.9698C262.601 67.2967 262.1 65.4063 263.145 63.5158C264.291 61.4535 266.296 60.136 267.7 59.4056ZM268.845 57.3433C268.845 57.3433 264.076 58.9043 261.899 62.8141C260.252 65.8073 261.513 68.9151 262.215 69.3017C262.343 69.3733 262.544 69.402 262.802 69.402C264.033 69.402 266.511 68.5857 267.872 66.1224C270.063 62.2126 268.845 57.3433 268.845 57.3433Z" fill="white"/>
<path d="M247.793 56.1406C249.211 56.1406 251.273 56.3555 253.02 57.3866C254.882 58.4894 255.426 60.3798 255.455 61.1245C255.125 61.2821 254.452 61.5112 253.564 61.5112C252.648 61.5112 251.788 61.2821 251.001 60.8095C248.996 59.6208 247.721 57.5871 247.019 56.155C247.263 56.1406 247.521 56.1406 247.793 56.1406ZM247.793 54.7085C246.16 54.7085 245 54.952 245 54.952C245 54.952 246.432 59.764 250.285 62.0411C251.416 62.6999 252.562 62.9434 253.579 62.9434C255.226 62.9434 256.529 62.3275 256.772 61.9122C257.173 61.2248 256.701 57.9022 253.75 56.155C251.774 54.9806 249.511 54.7085 247.793 54.7085Z" fill="white"/>
<path d="M274.56 66.5096C274.746 68.0849 274.774 70.4909 273.729 72.5676C272.798 74.4007 271.051 75.1311 270.149 75.2457C269.776 74.5869 269.203 72.7108 270.177 70.7917C271.237 68.7008 273.185 67.2972 274.56 66.5096ZM275.619 64.4043C275.619 64.4043 270.908 66.1515 268.903 70.1472C267.356 73.1977 268.759 76.2625 269.461 76.6206C269.576 76.6778 269.748 76.7065 269.962 76.7065C271.137 76.7065 273.7 75.8185 275.004 73.2264C277.023 69.2306 275.619 64.4043 275.619 64.4043Z" fill="white"/>
<path d="M247.95 42.3634C249.482 42.7931 251.717 43.681 253.249 45.4282C254.667 47.0609 254.567 49.0086 254.366 49.7533C254.266 49.7677 254.137 49.782 253.979 49.782C253.449 49.782 251.645 49.6531 250.241 48.0491C248.723 46.2732 248.165 43.9388 247.95 42.3634ZM246.403 40.5732C246.403 40.5732 246.231 45.5858 249.153 48.9657C250.642 50.6842 252.633 51.1998 253.979 51.1998C254.652 51.1998 255.154 51.0709 255.354 50.8991C255.941 50.3835 256.557 47.0609 254.323 44.483C251.401 41.1175 246.403 40.5732 246.403 40.5732Z" fill="white"/>
<path d="M267.37 78.625C269.089 78.625 270.321 79.4986 270.765 79.9569C270.464 80.6444 269.304 82.234 267.184 82.6207C266.726 82.7067 266.253 82.7496 265.766 82.7496C263.976 82.7496 262.286 82.2054 261.141 81.7042C262.286 80.6014 264.191 79.1406 266.482 78.7253C266.769 78.6393 267.07 78.625 267.37 78.625ZM267.37 77.1929C266.998 77.1929 266.611 77.2215 266.225 77.2931C261.828 78.0808 258.806 82.1052 258.806 82.1052C258.806 82.1052 262.014 84.1675 265.766 84.1675C266.311 84.1675 266.869 84.1245 267.442 84.0242C270.808 83.4227 272.397 80.4582 272.268 79.6848C272.139 78.9974 270.149 77.1929 267.37 77.1929Z" fill="white"/>
<path d="M253.106 29.8751C254.424 30.763 256.243 32.3098 257.131 34.4866C257.947 36.4917 257.231 38.3105 256.816 38.9406C256.057 38.7974 254.281 38.0097 253.464 35.9904C252.576 33.8279 252.791 31.4362 253.106 29.8751ZM252.204 27.6982C252.204 27.6982 250.442 32.3957 252.118 36.5346C253.264 39.3416 255.928 40.4014 257.03 40.4014C257.174 40.4014 257.288 40.3871 257.374 40.3441C258.104 40.0434 259.737 37.1075 258.448 33.9424C256.758 29.8035 252.204 27.6982 252.204 27.6982Z" fill="white"/>
<path d="M295.598 22.7285C295.526 23.0579 295.426 23.3587 295.297 23.6737C305.924 28.629 312.999 39.542 312.999 51.6437C312.999 67.6694 301.226 80.5588 285.344 81.991C285.344 81.991 277.023 83.2513 275.204 86.4163C275.075 86.6598 275.018 86.9176 275.218 87.1037C275.319 87.1897 277.796 87.2183 277.868 87.0894C279.586 83.8098 285.888 83.509 285.888 83.509C302.272 82.0339 314.531 68.3569 314.531 51.8155C314.517 39.2842 306.754 27.8556 295.598 22.7285Z" fill="white"/>
<path d="M308.83 22.7856C309.375 23.9886 309.947 25.7501 309.704 27.526C309.489 29.1587 308.386 30.1325 307.799 30.4762C307.327 30.0036 306.525 28.7576 306.739 27.125C306.969 25.3491 307.985 23.8024 308.83 22.7856ZM309.145 20.4082C309.145 20.4082 305.823 23.1436 305.307 26.9388C304.921 29.8461 306.911 31.9227 307.584 32.023H307.642C308.386 32.023 310.735 30.5335 311.108 27.7122C311.637 23.917 309.145 20.4082 309.145 20.4082Z" fill="white"/>
<path d="M298.462 19.1912C299.321 19.7354 300.324 20.5661 300.911 21.6975C301.441 22.7 301.284 23.7025 301.097 24.2324C300.567 24.0892 299.665 23.6738 299.121 22.6284C298.534 21.497 298.419 20.208 298.462 19.1912ZM297.331 17C297.331 17 296.371 20.4658 297.861 23.2871C298.806 25.106 300.61 25.7218 301.47 25.7218C301.642 25.7218 301.77 25.6932 301.842 25.6502C302.343 25.3924 303.303 23.1869 302.186 21.0243C300.696 18.203 297.331 17 297.331 17Z" fill="white"/>
<path d="M291.43 21.3823C291.974 21.3823 292.49 21.454 292.948 21.5828C294.037 21.8836 294.667 22.6856 294.924 23.1869C294.581 23.4017 293.994 23.6451 293.278 23.6451C292.991 23.6451 292.69 23.6022 292.404 23.5163C291.172 23.1725 290.155 22.3705 289.454 21.6401C290.027 21.4969 290.714 21.3823 291.43 21.3823ZM291.43 19.9502C289.067 19.9502 287.076 20.9813 287.076 20.9813C287.076 20.9813 288.952 24.0461 292.017 24.9054C292.447 25.0343 292.877 25.0773 293.278 25.0773C295.039 25.0773 296.357 24.0605 296.471 23.6165C296.629 23.0723 295.684 20.8524 293.335 20.1937C292.69 20.0218 292.046 19.9502 291.43 19.9502Z" fill="white"/>
<path d="M298.734 27.0821C299.751 27.0821 300.525 27.569 300.897 27.927C300.539 28.371 299.78 29.0155 298.648 29.1014C298.52 29.1157 298.405 29.1157 298.29 29.1157C297.145 29.1157 296.056 28.7434 295.226 28.3423C296.071 27.7695 297.231 27.1823 298.505 27.0964C298.563 27.0821 298.648 27.0821 298.734 27.0821ZM298.734 25.6499C298.62 25.6499 298.505 25.6499 298.391 25.6642C295.211 25.8934 292.762 28.5285 292.762 28.5285C292.762 28.5285 295.297 30.5622 298.276 30.5622C298.434 30.5622 298.591 30.5622 298.749 30.5479C301.183 30.376 302.544 28.3853 302.501 27.8268C302.458 27.2682 300.969 25.6499 298.734 25.6499Z" fill="white"/>
<path d="M305.866 42.3776C307.169 42.6354 308.931 43.2083 310.22 44.4542C311.423 45.5856 311.566 47.0607 311.494 47.7339C311.365 47.7482 311.208 47.7625 311.007 47.7625C310.506 47.7625 309.246 47.6479 308.157 46.6168C306.854 45.3851 306.195 43.6665 305.866 42.3776ZM304.119 40.7163C304.119 40.7163 304.391 45.0128 307.169 47.6479C308.401 48.8223 309.876 49.1803 311.007 49.1803C311.809 49.1803 312.425 48.9941 312.626 48.7936C313.098 48.3067 313.342 45.4281 311.222 43.4088C308.43 40.7736 304.119 40.7163 304.119 40.7163Z" fill="white"/>
<path d="M302.142 33.5122C303.245 33.5122 304.233 33.6984 305.107 34.0564C306.625 34.6866 307.298 36.0042 307.47 36.663C307.112 36.8635 306.41 37.1356 305.537 37.1356C304.992 37.1356 304.463 37.0353 303.961 36.8205C302.3 36.1331 301.068 34.7439 300.309 33.6698C300.839 33.5695 301.469 33.5122 302.142 33.5122ZM302.142 32.0801C299.894 32.0801 298.089 32.7532 298.089 32.7532C298.089 32.7532 299.865 36.663 303.403 38.1381C304.147 38.4388 304.864 38.5677 305.537 38.5677C307.327 38.5677 308.716 37.7084 308.902 37.2645C309.16 36.6343 308.358 33.8703 305.651 32.7389C304.477 32.2376 303.26 32.0801 302.142 32.0801Z" fill="white"/>
<path d="M306.74 51.629C307.943 52.1876 309.518 53.1328 310.507 54.6366C311.409 56.0114 311.223 57.4722 310.993 58.1167C310.263 58.0594 308.888 57.6441 308 56.2835C307.012 54.7798 306.769 52.9609 306.74 51.629ZM305.422 49.624C305.422 49.624 304.706 53.8632 306.797 57.0712C308.043 58.9617 310.034 59.5632 311.151 59.5632C311.48 59.5632 311.724 59.5059 311.853 59.4343C312.411 59.0619 313.314 56.3265 311.71 53.8775C309.604 50.6552 305.422 49.624 305.422 49.624Z" fill="white"/>
<path d="M312.697 69.2593C314.645 69.2593 316.464 69.9467 317.681 70.5482C316.493 71.5937 314.516 72.9543 312.196 73.2693C311.981 73.298 311.752 73.3123 311.537 73.3123C309.704 73.3123 308.415 72.3241 307.971 71.8228C308.315 71.1354 309.547 69.6173 311.681 69.3309C312.01 69.2879 312.354 69.2593 312.697 69.2593ZM312.697 67.8271C312.311 67.8271 311.91 67.8558 311.509 67.8988C308.115 68.3427 306.367 71.2213 306.468 71.9947C306.568 72.7108 308.601 74.7301 311.537 74.7301C311.81 74.7301 312.096 74.7158 312.382 74.6728C316.808 74.1 320.016 70.2332 320.016 70.2332C320.016 70.2332 316.636 67.8271 312.697 67.8271Z" fill="white"/>
<path d="M302.286 59.3912C303.689 60.1216 305.694 61.4392 306.826 63.4872C307.871 65.3776 307.384 67.2824 307.04 67.9555C306.181 67.8839 304.362 67.2394 303.36 65.4206C302.228 63.3869 302.171 60.9809 302.286 59.3912ZM301.14 57.3433C301.14 57.3433 299.937 62.2269 302.114 66.1224C303.474 68.5713 305.966 69.402 307.184 69.402C307.456 69.402 307.656 69.359 307.785 69.3017C308.473 68.9151 309.747 65.8073 308.086 62.8141C305.923 58.89 301.14 57.3433 301.14 57.3433Z" fill="white"/>
<path d="M322.207 56.1406C322.479 56.1406 322.737 56.1406 322.966 56.155C322.279 57.5871 321.004 59.6208 318.985 60.8095C318.197 61.2821 317.338 61.5112 316.421 61.5112C315.548 61.5112 314.875 61.2964 314.531 61.1245C314.574 60.3655 315.104 58.4894 316.966 57.3866C318.727 56.3555 320.79 56.1406 322.207 56.1406ZM322.207 54.7085C320.474 54.7085 318.226 54.9949 316.25 56.155C313.299 57.9022 312.827 61.2248 313.228 61.9122C313.471 62.3275 314.774 62.9434 316.421 62.9434C317.438 62.9434 318.598 62.7142 319.715 62.0411C323.568 59.764 325 54.952 325 54.952C325 54.952 323.84 54.7085 322.207 54.7085Z" fill="white"/>
<path d="M295.426 66.5096C296.8 67.2972 298.762 68.7008 299.808 70.7774C300.782 72.7108 300.209 74.5869 299.837 75.2457C298.977 75.1454 297.201 74.4294 296.256 72.5676C295.211 70.4909 295.239 68.0849 295.426 66.5096ZM294.366 64.4043C294.366 64.4043 292.962 69.2307 294.982 73.212C296.285 75.7899 298.848 76.6922 300.023 76.6922C300.238 76.6922 300.409 76.6635 300.51 76.6062C301.211 76.2482 302.615 73.1977 301.083 70.1329C299.078 66.1515 294.366 64.4043 294.366 64.4043Z" fill="white"/>
<path d="M322.035 42.3634C321.835 43.9388 321.276 46.2732 319.744 48.0348C318.34 49.6531 316.521 49.782 316.006 49.782C315.848 49.782 315.719 49.7677 315.619 49.7533C315.419 49.0229 315.333 47.0609 316.736 45.4282C318.269 43.6667 320.517 42.7788 322.035 42.3634ZM323.582 40.5732C323.582 40.5732 318.598 41.1175 315.662 44.483C313.428 47.0609 314.029 50.3835 314.631 50.8991C314.831 51.0709 315.333 51.1998 316.006 51.1998C317.338 51.1998 319.328 50.6842 320.832 48.9657C323.754 45.5858 323.582 40.5732 323.582 40.5732Z" fill="white"/>
<path d="M302.615 78.625C302.916 78.625 303.217 78.6537 303.518 78.711C305.809 79.1263 307.714 80.6014 308.86 81.6898C307.714 82.1911 306.038 82.7353 304.234 82.7353C303.747 82.7353 303.274 82.6923 302.816 82.6064C300.682 82.2197 299.536 80.6444 299.236 79.9426C299.665 79.4986 300.911 78.625 302.615 78.625ZM302.615 77.1929C299.837 77.1929 297.861 78.9974 297.732 79.6848C297.589 80.4582 299.193 83.4227 302.558 84.0242C303.117 84.1245 303.69 84.1675 304.234 84.1675C307.972 84.1675 311.194 82.1052 311.194 82.1052C311.194 82.1052 308.172 78.0951 303.776 77.2931C303.375 77.2215 302.988 77.1929 302.615 77.1929Z" fill="white"/>
<path d="M316.893 29.8751C317.209 31.4218 317.423 33.8135 316.535 35.9904C315.719 37.9954 313.943 38.7831 313.184 38.9406C312.755 38.3105 312.053 36.4917 312.869 34.4866C313.743 32.3241 315.59 30.7774 316.893 29.8751ZM317.796 27.6982C317.796 27.6982 313.241 29.8035 311.552 33.9424C310.263 37.1075 311.895 40.0434 312.626 40.3441C312.712 40.3728 312.826 40.4014 312.969 40.4014C314.072 40.4014 316.736 39.3416 317.882 36.5346C319.557 32.3957 317.796 27.6982 317.796 27.6982Z" fill="white"/>
<path d="M288.466 30.2758C287.32 30.0324 286.131 29.9035 284.9 29.8892C284.9 29.8892 284.9 29.8892 284.886 29.8892C284.871 29.8892 284.871 29.8892 284.871 29.8892C283.654 29.8892 282.451 30.0181 281.305 30.2758C273.772 31.8799 268.058 38.4391 267.728 46.3589H267.7V47.7911H267.728C268.058 55.7252 273.772 62.2844 281.305 63.8741C282.465 64.1319 283.668 64.2608 284.886 64.2608H284.9C284.9 64.2608 284.9 64.2608 284.914 64.2608C286.146 64.2608 287.335 64.1319 288.48 63.8741C296.013 62.2701 301.728 55.7109 302.057 47.7911H302.086V46.3589H302.057C301.728 38.4248 296.013 31.8655 288.466 30.2758ZM281.62 31.665C279.529 33.0829 277.782 34.9303 276.422 37.0499H272.755C274.975 34.3575 278.083 32.4241 281.62 31.665ZM271.71 38.4821H275.562C274.316 40.8594 273.6 43.5232 273.486 46.3589H269.175C269.304 43.4516 270.22 40.7592 271.71 38.4821ZM269.175 47.7911H273.486C273.6 50.6267 274.316 53.2905 275.562 55.6679H271.71C270.22 53.3908 269.304 50.6983 269.175 47.7911ZM272.755 57.1H276.422C277.782 59.2196 279.544 61.0671 281.62 62.4849C278.083 61.7259 274.975 59.7925 272.755 57.1ZM284.184 62.3274C281.778 61.0814 279.701 59.2912 278.126 57.1H284.184V62.3274ZM284.184 55.6679H277.195C275.834 53.3335 275.018 50.6554 274.903 47.7911H284.184V55.6679ZM284.184 46.3589H274.903C275.018 43.4946 275.834 40.8165 277.195 38.4821H284.184V46.3589ZM284.184 37.0499H278.126C279.701 34.873 281.778 33.0685 284.184 31.8226V37.0499ZM297.044 37.0499H293.378C292.018 34.9303 290.256 33.0829 288.179 31.665C291.717 32.4241 294.825 34.3575 297.044 37.0499ZM285.616 31.8226C288.022 33.0685 290.099 34.8587 291.674 37.0499H285.616V31.8226ZM285.616 38.4821H292.605C293.965 40.8165 294.782 43.4946 294.896 46.3589H285.616V38.4821ZM285.616 47.7911H294.896C294.782 50.6554 293.965 53.3335 292.605 55.6679H285.616V47.7911ZM285.616 57.1H291.674C290.099 59.2769 288.022 61.0814 285.616 62.3274V57.1ZM288.165 62.4849C290.256 61.0671 292.003 59.2196 293.364 57.1H297.03C294.825 59.7925 291.717 61.7259 288.165 62.4849ZM298.09 55.6679H294.237C295.483 53.2905 296.214 50.6267 296.314 47.7911H300.625C300.482 50.6983 299.579 53.3908 298.09 55.6679ZM296.314 46.3589C296.2 43.5232 295.483 40.8594 294.237 38.4821H298.09C299.579 40.7592 300.496 43.4516 300.625 46.3589H296.314Z" fill="white"/>
</g>
<circle cx="68" cy="227" r="4" fill="#44C9AD"/>
<path d="M81.888 233V221.8H86.08C87.0293 221.8 87.8453 221.955 88.528 222.264C89.2107 222.563 89.7333 223 90.096 223.576C90.4693 224.141 90.656 224.829 90.656 225.64C90.656 226.429 90.4693 227.112 90.096 227.688C89.7333 228.253 89.2107 228.691 88.528 229C87.8453 229.309 87.0293 229.464 86.08 229.464H82.544L83.072 228.904V233H81.888ZM83.072 229L82.544 228.424H86.048C87.168 228.424 88.016 228.184 88.592 227.704C89.1787 227.213 89.472 226.525 89.472 225.64C89.472 224.744 89.1787 224.051 88.592 223.56C88.016 223.069 87.168 222.824 86.048 222.824H82.544L83.072 222.264V229ZM97.9414 233V231.144L97.8934 230.84V227.736C97.8934 227.021 97.6907 226.472 97.2854 226.088C96.8907 225.704 96.2987 225.512 95.5094 225.512C94.9654 225.512 94.448 225.603 93.9574 225.784C93.4667 225.965 93.0507 226.205 92.7094 226.504L92.1974 225.656C92.624 225.293 93.136 225.016 93.7334 224.824C94.3307 224.621 94.96 224.52 95.6214 224.52C96.7094 224.52 97.5467 224.792 98.1334 225.336C98.7307 225.869 99.0294 226.685 99.0294 227.784V233H97.9414ZM95.0454 233.08C94.416 233.08 93.8667 232.979 93.3974 232.776C92.9387 232.563 92.5867 232.275 92.3414 231.912C92.096 231.539 91.9734 231.112 91.9734 230.632C91.9734 230.195 92.0747 229.8 92.2774 229.448C92.4907 229.085 92.832 228.797 93.3014 228.584C93.7814 228.36 94.4214 228.248 95.2214 228.248H98.1174V229.096H95.2534C94.4427 229.096 93.8774 229.24 93.5574 229.528C93.248 229.816 93.0934 230.173 93.0934 230.6C93.0934 231.08 93.28 231.464 93.6534 231.752C94.0267 232.04 94.5494 232.184 95.2214 232.184C95.8614 232.184 96.4107 232.04 96.8694 231.752C97.3387 231.453 97.68 231.027 97.8934 230.472L98.1494 231.256C97.936 231.811 97.5627 232.253 97.0294 232.584C96.5067 232.915 95.8454 233.08 95.0454 233.08ZM105.574 233.08C104.742 233.08 103.995 232.899 103.334 232.536C102.683 232.163 102.171 231.656 101.798 231.016C101.424 230.365 101.238 229.624 101.238 228.792C101.238 227.949 101.424 227.208 101.798 226.568C102.171 225.928 102.683 225.427 103.334 225.064C103.995 224.701 104.742 224.52 105.574 224.52C106.288 224.52 106.934 224.659 107.51 224.936C108.086 225.213 108.539 225.629 108.87 226.184L108.022 226.76C107.734 226.333 107.376 226.019 106.95 225.816C106.523 225.613 106.059 225.512 105.558 225.512C104.96 225.512 104.422 225.651 103.942 225.928C103.462 226.195 103.083 226.573 102.806 227.064C102.528 227.555 102.39 228.131 102.39 228.792C102.39 229.453 102.528 230.029 102.806 230.52C103.083 231.011 103.462 231.395 103.942 231.672C104.422 231.939 104.96 232.072 105.558 232.072C106.059 232.072 106.523 231.971 106.95 231.768C107.376 231.565 107.734 231.256 108.022 230.84L108.87 231.416C108.539 231.96 108.086 232.376 107.51 232.664C106.934 232.941 106.288 233.08 105.574 233.08ZM114.449 233.08C113.617 233.08 112.87 232.899 112.209 232.536C111.558 232.163 111.046 231.656 110.673 231.016C110.299 230.365 110.113 229.624 110.113 228.792C110.113 227.949 110.299 227.208 110.673 226.568C111.046 225.928 111.558 225.427 112.209 225.064C112.87 224.701 113.617 224.52 114.449 224.52C115.163 224.52 115.809 224.659 116.385 224.936C116.961 225.213 117.414 225.629 117.745 226.184L116.897 226.76C116.609 226.333 116.251 226.019 115.825 225.816C115.398 225.613 114.934 225.512 114.433 225.512C113.835 225.512 113.297 225.651 112.817 225.928C112.337 226.195 111.958 226.573 111.681 227.064C111.403 227.555 111.265 228.131 111.265 228.792C111.265 229.453 111.403 230.029 111.681 230.52C111.958 231.011 112.337 231.395 112.817 231.672C113.297 231.939 113.835 232.072 114.433 232.072C114.934 232.072 115.398 231.971 115.825 231.768C116.251 231.565 116.609 231.256 116.897 230.84L117.745 231.416C117.414 231.96 116.961 232.376 116.385 232.664C115.809 232.941 115.163 233.08 114.449 233.08ZM126.104 233L122.648 228.84L123.592 228.28L127.448 233H126.104ZM119.944 233V224.6H121.08V233H119.944ZM120.728 229.256V228.28H123.432V229.256H120.728ZM123.688 228.92L122.632 228.76L125.976 224.6H127.208L123.688 228.92ZM134.301 233V231.144L134.253 230.84V227.736C134.253 227.021 134.05 226.472 133.645 226.088C133.25 225.704 132.658 225.512 131.869 225.512C131.325 225.512 130.807 225.603 130.317 225.784C129.826 225.965 129.41 226.205 129.069 226.504L128.557 225.656C128.983 225.293 129.495 225.016 130.093 224.824C130.69 224.621 131.319 224.52 131.981 224.52C133.069 224.52 133.906 224.792 134.493 225.336C135.09 225.869 135.389 226.685 135.389 227.784V233H134.301ZM131.405 233.08C130.775 233.08 130.226 232.979 129.757 232.776C129.298 232.563 128.946 232.275 128.701 231.912C128.455 231.539 128.333 231.112 128.333 230.632C128.333 230.195 128.434 229.8 128.637 229.448C128.85 229.085 129.191 228.797 129.661 228.584C130.141 228.36 130.781 228.248 131.581 228.248H134.477V229.096H131.613C130.802 229.096 130.237 229.24 129.917 229.528C129.607 229.816 129.453 230.173 129.453 230.6C129.453 231.08 129.639 231.464 130.013 231.752C130.386 232.04 130.909 232.184 131.581 232.184C132.221 232.184 132.77 232.04 133.229 231.752C133.698 231.453 134.039 231.027 134.253 230.472L134.509 231.256C134.295 231.811 133.922 232.253 133.389 232.584C132.866 232.915 132.205 233.08 131.405 233.08ZM148.381 233L145.501 228.84L146.445 228.28L149.741 233H148.381ZM143.613 229.256V228.28H146.269V229.256H143.613ZM146.557 228.92L145.469 228.76L148.269 224.6H149.501L146.557 228.92ZM138.429 233H137.069L140.365 228.28L141.293 228.84L138.429 233ZM143.965 233H142.829V224.6H143.965V233ZM143.181 229.256H140.541V228.28H143.181V229.256ZM140.269 228.92L137.309 224.6H138.541L141.325 228.76L140.269 228.92ZM151.632 233V224.6H152.768V231.272L158.384 224.6H159.392V233H158.256V226.312L152.656 233H151.632ZM164.247 233V225.288L164.535 225.592H161.063V224.6H168.567V225.592H165.095L165.383 225.288V233H164.247ZM173.419 233.08C172.544 233.08 171.776 232.899 171.115 232.536C170.454 232.163 169.936 231.656 169.563 231.016C169.19 230.365 169.003 229.624 169.003 228.792C169.003 227.96 169.179 227.224 169.531 226.584C169.894 225.944 170.384 225.443 171.003 225.08C171.632 224.707 172.336 224.52 173.115 224.52C173.904 224.52 174.603 224.701 175.211 225.064C175.83 225.416 176.315 225.917 176.667 226.568C177.019 227.208 177.195 227.949 177.195 228.792C177.195 228.845 177.19 228.904 177.179 228.968C177.179 229.021 177.179 229.08 177.179 229.144H169.867V228.296H176.571L176.123 228.632C176.123 228.024 175.99 227.485 175.723 227.016C175.467 226.536 175.115 226.163 174.667 225.896C174.219 225.629 173.702 225.496 173.115 225.496C172.539 225.496 172.022 225.629 171.563 225.896C171.104 226.163 170.747 226.536 170.491 227.016C170.235 227.496 170.107 228.045 170.107 228.664V228.84C170.107 229.48 170.246 230.045 170.523 230.536C170.811 231.016 171.206 231.395 171.707 231.672C172.219 231.939 172.8 232.072 173.451 232.072C173.963 232.072 174.438 231.981 174.875 231.8C175.323 231.619 175.707 231.341 176.027 230.968L176.667 231.704C176.294 232.152 175.824 232.493 175.259 232.728C174.704 232.963 174.091 233.08 173.419 233.08ZM187.353 233.08C186.543 233.08 185.812 232.899 185.161 232.536C184.521 232.163 184.015 231.656 183.641 231.016C183.268 230.365 183.081 229.624 183.081 228.792C183.081 227.949 183.268 227.208 183.641 226.568C184.015 225.928 184.521 225.427 185.161 225.064C185.801 224.701 186.532 224.52 187.353 224.52C188.185 224.52 188.921 224.701 189.561 225.064C190.212 225.427 190.719 225.928 191.081 226.568C191.455 227.208 191.641 227.949 191.641 228.792C191.641 229.624 191.455 230.365 191.081 231.016C190.719 231.656 190.212 232.163 189.561 232.536C188.911 232.899 188.175 233.08 187.353 233.08ZM187.353 232.072C187.961 232.072 188.5 231.939 188.969 231.672C189.439 231.395 189.807 231.011 190.073 230.52C190.351 230.019 190.489 229.443 190.489 228.792C190.489 228.131 190.351 227.555 190.073 227.064C189.807 226.573 189.439 226.195 188.969 225.928C188.5 225.651 187.967 225.512 187.369 225.512C186.772 225.512 186.239 225.651 185.769 225.928C185.3 226.195 184.927 226.573 184.649 227.064C184.372 227.555 184.233 228.131 184.233 228.792C184.233 229.443 184.372 230.019 184.649 230.52C184.927 231.011 185.3 231.395 185.769 231.672C186.239 231.939 186.767 232.072 187.353 232.072ZM198.529 233V221.8H203.185C204.369 221.8 205.297 222.045 205.969 222.536C206.651 223.016 206.993 223.725 206.993 224.664C206.993 225.592 206.667 226.296 206.017 226.776C205.366 227.245 204.513 227.48 203.457 227.48L203.729 227.08C204.977 227.08 205.926 227.325 206.577 227.816C207.227 228.307 207.553 229.027 207.553 229.976C207.553 230.936 207.211 231.683 206.529 232.216C205.857 232.739 204.843 233 203.489 233H198.529ZM199.697 232.056H203.489C204.438 232.056 205.158 231.88 205.649 231.528C206.139 231.176 206.385 230.632 206.385 229.896C206.385 229.171 206.139 228.637 205.649 228.296C205.158 227.955 204.438 227.784 203.489 227.784H199.697V232.056ZM199.697 226.872H203.121C203.985 226.872 204.646 226.701 205.105 226.36C205.574 226.008 205.809 225.491 205.809 224.808C205.809 224.125 205.574 223.613 205.105 223.272C204.646 222.92 203.985 222.744 203.121 222.744H199.697V226.872ZM215.457 233V231.144L215.409 230.84V227.736C215.409 227.021 215.206 226.472 214.801 226.088C214.406 225.704 213.814 225.512 213.025 225.512C212.481 225.512 211.964 225.603 211.473 225.784C210.982 225.965 210.566 226.205 210.225 226.504L209.713 225.656C210.14 225.293 210.652 225.016 211.249 224.824C211.846 224.621 212.476 224.52 213.137 224.52C214.225 224.52 215.062 224.792 215.649 225.336C216.246 225.869 216.545 226.685 216.545 227.784V233H215.457ZM212.561 233.08C211.932 233.08 211.382 232.979 210.913 232.776C210.454 232.563 210.102 232.275 209.857 231.912C209.612 231.539 209.489 231.112 209.489 230.632C209.489 230.195 209.59 229.8 209.793 229.448C210.006 229.085 210.348 228.797 210.817 228.584C211.297 228.36 211.937 228.248 212.737 228.248H215.633V229.096H212.769C211.958 229.096 211.393 229.24 211.073 229.528C210.764 229.816 210.609 230.173 210.609 230.6C210.609 231.08 210.796 231.464 211.169 231.752C211.542 232.04 212.065 232.184 212.737 232.184C213.377 232.184 213.926 232.04 214.385 231.752C214.854 231.453 215.196 231.027 215.409 230.472L215.665 231.256C215.452 231.811 215.078 232.253 214.545 232.584C214.022 232.915 213.361 233.08 212.561 233.08ZM225.089 232.008L224.833 232.312V224.6H225.969V232.312L225.665 232.008H230.353L230.049 232.312V224.6H231.185V233H219.569V224.6H220.705V232.312L220.417 232.008H225.089ZM238.013 233.08C237.138 233.08 236.37 232.899 235.709 232.536C235.048 232.163 234.53 231.656 234.157 231.016C233.784 230.365 233.597 229.624 233.597 228.792C233.597 227.96 233.773 227.224 234.125 226.584C234.488 225.944 234.978 225.443 235.597 225.08C236.226 224.707 236.93 224.52 237.709 224.52C238.498 224.52 239.197 224.701 239.805 225.064C240.424 225.416 240.909 225.917 241.261 226.568C241.613 227.208 241.789 227.949 241.789 228.792C241.789 228.845 241.784 228.904 241.773 228.968C241.773 229.021 241.773 229.08 241.773 229.144H234.461V228.296H241.165L240.717 228.632C240.717 228.024 240.584 227.485 240.317 227.016C240.061 226.536 239.709 226.163 239.261 225.896C238.813 225.629 238.296 225.496 237.709 225.496C237.133 225.496 236.616 225.629 236.157 225.896C235.698 226.163 235.341 226.536 235.085 227.016C234.829 227.496 234.701 228.045 234.701 228.664V228.84C234.701 229.48 234.84 230.045 235.117 230.536C235.405 231.016 235.8 231.395 236.301 231.672C236.813 231.939 237.394 232.072 238.045 232.072C238.557 232.072 239.032 231.981 239.469 231.8C239.917 231.619 240.301 231.341 240.621 230.968L241.261 231.704C240.888 232.152 240.418 232.493 239.853 232.728C239.298 232.963 238.685 233.08 238.013 233.08ZM244.304 233V224.6H245.44V231.272L251.056 224.6H252.064V233H250.928V226.312L245.328 233H244.304ZM248.112 223.384C247.408 223.384 246.837 223.208 246.4 222.856C245.973 222.493 245.749 221.976 245.728 221.304H246.544C246.554 221.731 246.704 222.067 246.992 222.312C247.28 222.557 247.653 222.68 248.112 222.68C248.57 222.68 248.944 222.557 249.232 222.312C249.53 222.067 249.685 221.731 249.696 221.304H250.512C250.501 221.976 250.277 222.493 249.84 222.856C249.402 223.208 248.826 223.384 248.112 223.384ZM259.507 233V224.6H267.059V233H265.923V225.288L266.211 225.592H260.355L260.643 225.288V233H259.507ZM274.624 233.08C273.899 233.08 273.243 232.915 272.656 232.584C272.069 232.243 271.6 231.757 271.248 231.128C270.907 230.488 270.736 229.709 270.736 228.792C270.736 227.875 270.907 227.101 271.248 226.472C271.589 225.832 272.053 225.347 272.64 225.016C273.227 224.685 273.888 224.52 274.624 224.52C275.424 224.52 276.139 224.701 276.768 225.064C277.408 225.416 277.909 225.917 278.272 226.568C278.635 227.208 278.816 227.949 278.816 228.792C278.816 229.645 278.635 230.392 278.272 231.032C277.909 231.672 277.408 232.173 276.768 232.536C276.139 232.899 275.424 233.08 274.624 233.08ZM270.288 236.104V224.6H271.376V227.128L271.264 228.808L271.424 230.504V236.104H270.288ZM274.544 232.072C275.141 232.072 275.675 231.939 276.144 231.672C276.613 231.395 276.987 231.011 277.264 230.52C277.541 230.019 277.68 229.443 277.68 228.792C277.68 228.141 277.541 227.571 277.264 227.08C276.987 226.589 276.613 226.205 276.144 225.928C275.675 225.651 275.141 225.512 274.544 225.512C273.947 225.512 273.408 225.651 272.928 225.928C272.459 226.205 272.085 226.589 271.808 227.08C271.541 227.571 271.408 228.141 271.408 228.792C271.408 229.443 271.541 230.019 271.808 230.52C272.085 231.011 272.459 231.395 272.928 231.672C273.408 231.939 273.947 232.072 274.544 232.072ZM284.713 233.08C283.902 233.08 283.171 232.899 282.521 232.536C281.881 232.163 281.374 231.656 281.001 231.016C280.627 230.365 280.441 229.624 280.441 228.792C280.441 227.949 280.627 227.208 281.001 226.568C281.374 225.928 281.881 225.427 282.521 225.064C283.161 224.701 283.891 224.52 284.713 224.52C285.545 224.52 286.281 224.701 286.921 225.064C287.571 225.427 288.078 225.928 288.441 226.568C288.814 227.208 289.001 227.949 289.001 228.792C289.001 229.624 288.814 230.365 288.441 231.016C288.078 231.656 287.571 232.163 286.921 232.536C286.27 232.899 285.534 233.08 284.713 233.08ZM284.713 232.072C285.321 232.072 285.859 231.939 286.329 231.672C286.798 231.395 287.166 231.011 287.433 230.52C287.71 230.019 287.849 229.443 287.849 228.792C287.849 228.131 287.71 227.555 287.433 227.064C287.166 226.573 286.798 226.195 286.329 225.928C285.859 225.651 285.326 225.512 284.729 225.512C284.131 225.512 283.598 225.651 283.129 225.928C282.659 226.195 282.286 226.573 282.009 227.064C281.731 227.555 281.593 228.131 281.593 228.792C281.593 229.443 281.731 230.019 282.009 230.52C282.286 231.011 282.659 231.395 283.129 231.672C283.598 231.939 284.126 232.072 284.713 232.072ZM295.205 233.096C294.522 233.096 293.914 232.984 293.381 232.76C292.858 232.536 292.41 232.195 292.037 231.736C291.663 231.277 291.381 230.712 291.189 230.04C290.997 229.357 290.901 228.568 290.901 227.672C290.901 226.872 290.975 226.173 291.125 225.576C291.274 224.968 291.482 224.445 291.749 224.008C292.015 223.571 292.325 223.203 292.677 222.904C293.039 222.595 293.429 222.349 293.845 222.168C294.271 221.976 294.709 221.832 295.157 221.736L298.933 220.856L299.125 221.912L295.573 222.712C295.349 222.765 295.077 222.84 294.757 222.936C294.447 223.032 294.127 223.176 293.797 223.368C293.477 223.56 293.178 223.827 292.901 224.168C292.623 224.509 292.399 224.952 292.229 225.496C292.069 226.029 291.989 226.696 291.989 227.496C291.989 227.667 291.994 227.805 292.005 227.912C292.015 228.008 292.026 228.115 292.037 228.232C292.058 228.339 292.074 228.499 292.085 228.712L291.589 228.296C291.706 227.645 291.946 227.08 292.309 226.6C292.671 226.109 293.125 225.731 293.669 225.464C294.223 225.187 294.837 225.048 295.509 225.048C296.287 225.048 296.981 225.219 297.589 225.56C298.197 225.891 298.671 226.355 299.013 226.952C299.365 227.549 299.541 228.243 299.541 229.032C299.541 229.811 299.359 230.509 298.997 231.128C298.645 231.747 298.143 232.232 297.493 232.584C296.842 232.925 296.079 233.096 295.205 233.096ZM295.333 232.152C295.93 232.152 296.458 232.019 296.917 231.752C297.375 231.475 297.733 231.101 297.989 230.632C298.255 230.163 298.389 229.635 298.389 229.048C298.389 228.472 298.255 227.96 297.989 227.512C297.733 227.064 297.375 226.712 296.917 226.456C296.458 226.189 295.925 226.056 295.317 226.056C294.719 226.056 294.191 226.184 293.733 226.44C293.274 226.685 292.911 227.032 292.645 227.48C292.389 227.928 292.261 228.445 292.261 229.032C292.261 229.619 292.389 230.147 292.645 230.616C292.911 231.085 293.274 231.459 293.733 231.736C294.202 232.013 294.735 232.152 295.333 232.152ZM300.393 232.984L300.473 232.008C300.547 232.019 300.617 232.035 300.681 232.056C300.755 232.067 300.819 232.072 300.873 232.072C301.214 232.072 301.486 231.944 301.689 231.688C301.902 231.432 302.062 231.091 302.169 230.664C302.275 230.237 302.35 229.757 302.393 229.224C302.435 228.68 302.473 228.136 302.505 227.592L302.649 224.6H308.809V233H307.673V225.256L307.961 225.592H303.385L303.657 225.24L303.529 227.672C303.497 228.397 303.438 229.091 303.353 229.752C303.278 230.413 303.155 230.995 302.985 231.496C302.825 231.997 302.601 232.392 302.312 232.68C302.025 232.957 301.657 233.096 301.209 233.096C301.081 233.096 300.947 233.085 300.809 233.064C300.681 233.043 300.542 233.016 300.393 232.984ZM315.638 233.08C314.763 233.08 313.995 232.899 313.334 232.536C312.673 232.163 312.155 231.656 311.782 231.016C311.409 230.365 311.222 229.624 311.222 228.792C311.222 227.96 311.398 227.224 311.75 226.584C312.113 225.944 312.603 225.443 313.222 225.08C313.851 224.707 314.555 224.52 315.334 224.52C316.123 224.52 316.822 224.701 317.43 225.064C318.049 225.416 318.534 225.917 318.886 226.568C319.238 227.208 319.414 227.949 319.414 228.792C319.414 228.845 319.409 228.904 319.398 228.968C319.398 229.021 319.398 229.08 319.398 229.144H312.086V228.296H318.79L318.342 228.632C318.342 228.024 318.209 227.485 317.942 227.016C317.686 226.536 317.334 226.163 316.886 225.896C316.438 225.629 315.921 225.496 315.334 225.496C314.758 225.496 314.241 225.629 313.782 225.896C313.323 226.163 312.966 226.536 312.71 227.016C312.454 227.496 312.326 228.045 312.326 228.664V228.84C312.326 229.48 312.465 230.045 312.742 230.536C313.03 231.016 313.425 231.395 313.926 231.672C314.438 231.939 315.019 232.072 315.67 232.072C316.182 232.072 316.657 231.981 317.094 231.8C317.542 231.619 317.926 231.341 318.246 230.968L318.886 231.704C318.513 232.152 318.043 232.493 317.478 232.728C316.923 232.963 316.31 233.08 315.638 233.08ZM321.929 233V224.6H323.081L326.889 231.048H326.409L330.281 224.6H331.337V233H330.297V225.896L330.505 225.992L326.889 231.976H326.377L322.729 225.928L322.969 225.88V233H321.929ZM338.169 233.08C337.294 233.08 336.526 232.899 335.865 232.536C335.204 232.163 334.686 231.656 334.313 231.016C333.94 230.365 333.753 229.624 333.753 228.792C333.753 227.96 333.929 227.224 334.281 226.584C334.644 225.944 335.134 225.443 335.753 225.08C336.382 224.707 337.086 224.52 337.865 224.52C338.654 224.52 339.353 224.701 339.961 225.064C340.58 225.416 341.065 225.917 341.417 226.568C341.769 227.208 341.945 227.949 341.945 228.792C341.945 228.845 341.94 228.904 341.929 228.968C341.929 229.021 341.929 229.08 341.929 229.144H334.617V228.296H341.321L340.873 228.632C340.873 228.024 340.74 227.485 340.473 227.016C340.217 226.536 339.865 226.163 339.417 225.896C338.969 225.629 338.452 225.496 337.865 225.496C337.289 225.496 336.772 225.629 336.313 225.896C335.854 226.163 335.497 226.536 335.241 227.016C334.985 227.496 334.857 228.045 334.857 228.664V228.84C334.857 229.48 334.996 230.045 335.273 230.536C335.561 231.016 335.956 231.395 336.457 231.672C336.969 231.939 337.55 232.072 338.201 232.072C338.713 232.072 339.188 231.981 339.625 231.8C340.073 231.619 340.457 231.341 340.777 230.968L341.417 231.704C341.044 232.152 340.574 232.493 340.009 232.728C339.454 232.963 338.841 233.08 338.169 233.08ZM343.74 235.336L344.444 232.376L344.572 233.064C344.326 233.064 344.118 232.984 343.948 232.824C343.788 232.664 343.708 232.456 343.708 232.2C343.708 231.944 343.788 231.736 343.948 231.576C344.118 231.416 344.321 231.336 344.556 231.336C344.801 231.336 344.998 231.421 345.148 231.592C345.308 231.763 345.388 231.965 345.388 232.2C345.388 232.285 345.382 232.371 345.372 232.456C345.361 232.541 345.34 232.637 345.308 232.744C345.276 232.851 345.233 232.979 345.18 233.128L344.508 235.336H343.74ZM81.616 255V246.6H82.752V253.272L88.368 246.6H89.376V255H88.24V248.312L82.64 255H81.616ZM96.8191 255V246.6H97.9711L101.779 253.048H101.299L105.171 246.6H106.227V255H105.187V247.896L105.395 247.992L101.779 253.976H101.267L97.6191 247.928L97.8591 247.88V255H96.8191ZM117.652 255V246.6H118.788V255H117.652ZM112.996 249.56C114.052 249.571 114.857 249.805 115.412 250.264C115.966 250.723 116.244 251.384 116.244 252.248C116.244 253.144 115.945 253.832 115.348 254.312C114.75 254.792 113.897 255.027 112.788 255.016L109.46 255V246.6H110.596V249.528L112.996 249.56ZM112.708 254.152C113.497 254.163 114.089 254.008 114.484 253.688C114.889 253.357 115.092 252.877 115.092 252.248C115.092 251.619 114.894 251.16 114.5 250.872C114.105 250.573 113.508 250.419 112.708 250.408L110.596 250.376V254.12L112.708 254.152ZM126.21 255V246.6H133.762V255H132.626V247.288L132.914 247.592H127.058L127.346 247.288V255H126.21ZM141.327 255.08C140.602 255.08 139.946 254.915 139.359 254.584C138.772 254.243 138.303 253.757 137.951 253.128C137.61 252.488 137.439 251.709 137.439 250.792C137.439 249.875 137.61 249.101 137.951 248.472C138.292 247.832 138.756 247.347 139.343 247.016C139.93 246.685 140.591 246.52 141.327 246.52C142.127 246.52 142.842 246.701 143.471 247.064C144.111 247.416 144.612 247.917 144.975 248.568C145.338 249.208 145.519 249.949 145.519 250.792C145.519 251.645 145.338 252.392 144.975 253.032C144.612 253.672 144.111 254.173 143.471 254.536C142.842 254.899 142.127 255.08 141.327 255.08ZM136.991 258.104V246.6H138.079V249.128L137.967 250.808L138.127 252.504V258.104H136.991ZM141.247 254.072C141.844 254.072 142.378 253.939 142.847 253.672C143.316 253.395 143.69 253.011 143.967 252.52C144.244 252.019 144.383 251.443 144.383 250.792C144.383 250.141 144.244 249.571 143.967 249.08C143.69 248.589 143.316 248.205 142.847 247.928C142.378 247.651 141.844 247.512 141.247 247.512C140.65 247.512 140.111 247.651 139.631 247.928C139.162 248.205 138.788 248.589 138.511 249.08C138.244 249.571 138.111 250.141 138.111 250.792C138.111 251.443 138.244 252.019 138.511 252.52C138.788 253.011 139.162 253.395 139.631 253.672C140.111 253.939 140.65 254.072 141.247 254.072ZM151.56 255.08C150.685 255.08 149.917 254.899 149.256 254.536C148.594 254.163 148.077 253.656 147.704 253.016C147.33 252.365 147.144 251.624 147.144 250.792C147.144 249.96 147.32 249.224 147.672 248.584C148.034 247.944 148.525 247.443 149.144 247.08C149.773 246.707 150.477 246.52 151.256 246.52C152.045 246.52 152.744 246.701 153.352 247.064C153.97 247.416 154.456 247.917 154.808 248.568C155.16 249.208 155.336 249.949 155.336 250.792C155.336 250.845 155.33 250.904 155.32 250.968C155.32 251.021 155.32 251.08 155.32 251.144H148.008V250.296H154.712L154.264 250.632C154.264 250.024 154.13 249.485 153.864 249.016C153.608 248.536 153.256 248.163 152.808 247.896C152.36 247.629 151.842 247.496 151.256 247.496C150.68 247.496 150.162 247.629 149.704 247.896C149.245 248.163 148.888 248.536 148.632 249.016C148.376 249.496 148.248 250.045 148.248 250.664V250.84C148.248 251.48 148.386 252.045 148.664 252.536C148.952 253.016 149.346 253.395 149.848 253.672C150.36 253.939 150.941 254.072 151.592 254.072C152.104 254.072 152.578 253.981 153.016 253.8C153.464 253.619 153.848 253.341 154.168 252.968L154.808 253.704C154.434 254.152 153.965 254.493 153.4 254.728C152.845 254.963 152.232 255.08 151.56 255.08ZM163.439 254.456V247.592H159.391L159.295 249.464C159.273 250.029 159.236 250.584 159.183 251.128C159.14 251.672 159.06 252.173 158.943 252.632C158.836 253.08 158.681 253.448 158.479 253.736C158.276 254.013 158.015 254.173 157.695 254.216L156.559 254.008C156.889 254.019 157.161 253.901 157.375 253.656C157.588 253.4 157.753 253.053 157.871 252.616C157.988 252.179 158.073 251.683 158.127 251.128C158.18 250.563 158.223 249.987 158.255 249.4L158.367 246.6H164.575V254.456H163.439ZM156.207 257.032V254.008H165.887V257.032H164.815V255H157.279V257.032H156.207ZM166.564 254.984L166.644 254.008C166.719 254.019 166.788 254.035 166.852 254.056C166.927 254.067 166.991 254.072 167.044 254.072C167.386 254.072 167.658 253.944 167.86 253.688C168.074 253.432 168.234 253.091 168.34 252.664C168.447 252.237 168.522 251.757 168.564 251.224C168.607 250.68 168.644 250.136 168.676 249.592L168.82 246.6H174.98V255H173.844V247.256L174.132 247.592H169.556L169.828 247.24L169.7 249.672C169.668 250.397 169.61 251.091 169.524 251.752C169.45 252.413 169.327 252.995 169.156 253.496C168.996 253.997 168.772 254.392 168.484 254.68C168.196 254.957 167.828 255.096 167.38 255.096C167.252 255.096 167.119 255.085 166.98 255.064C166.852 255.043 166.714 255.016 166.564 254.984ZM181.666 255.08C180.855 255.08 180.124 254.899 179.474 254.536C178.834 254.163 178.327 253.656 177.954 253.016C177.58 252.365 177.394 251.624 177.394 250.792C177.394 249.949 177.58 249.208 177.954 248.568C178.327 247.928 178.834 247.427 179.474 247.064C180.114 246.701 180.844 246.52 181.666 246.52C182.498 246.52 183.234 246.701 183.874 247.064C184.524 247.427 185.031 247.928 185.394 248.568C185.767 249.208 185.954 249.949 185.954 250.792C185.954 251.624 185.767 252.365 185.394 253.016C185.031 253.656 184.524 254.163 183.874 254.536C183.223 254.899 182.487 255.08 181.666 255.08ZM181.666 254.072C182.274 254.072 182.812 253.939 183.282 253.672C183.751 253.395 184.119 253.011 184.386 252.52C184.663 252.019 184.802 251.443 184.802 250.792C184.802 250.131 184.663 249.555 184.386 249.064C184.119 248.573 183.751 248.195 183.282 247.928C182.812 247.651 182.279 247.512 181.682 247.512C181.084 247.512 180.551 247.651 180.082 247.928C179.612 248.195 179.239 248.573 178.962 249.064C178.684 249.555 178.546 250.131 178.546 250.792C178.546 251.443 178.684 252.019 178.962 252.52C179.239 253.011 179.612 253.395 180.082 253.672C180.551 253.939 181.079 254.072 181.666 254.072ZM198.053 255L195.173 250.84L196.117 250.28L199.413 255H198.053ZM193.285 251.256V250.28H195.941V251.256H193.285ZM196.229 250.92L195.141 250.76L197.941 246.6H199.173L196.229 250.92ZM188.101 255H186.741L190.037 250.28L190.965 250.84L188.101 255ZM193.637 255H192.501V246.6H193.637V255ZM192.853 251.256H190.213V250.28H192.853V251.256ZM189.941 250.92L186.981 246.6H188.213L190.997 250.76L189.941 250.92ZM201.304 255V246.6H202.44V253.272L208.056 246.6H209.064V255H207.928V248.312L202.328 255H201.304ZM212.319 255V246.6H213.471L217.279 253.048H216.799L220.671 246.6H221.727V255H220.687V247.896L220.895 247.992L217.279 253.976H216.767L213.119 247.928L213.359 247.88V255H212.319ZM232.603 255.08C231.793 255.08 231.062 254.899 230.411 254.536C229.771 254.163 229.265 253.656 228.891 253.016C228.518 252.365 228.331 251.624 228.331 250.792C228.331 249.949 228.518 249.208 228.891 248.568C229.265 247.928 229.771 247.427 230.411 247.064C231.051 246.701 231.782 246.52 232.603 246.52C233.435 246.52 234.171 246.701 234.811 247.064C235.462 247.427 235.969 247.928 236.331 248.568C236.705 249.208 236.891 249.949 236.891 250.792C236.891 251.624 236.705 252.365 236.331 253.016C235.969 253.656 235.462 254.163 234.811 254.536C234.161 254.899 233.425 255.08 232.603 255.08ZM232.603 254.072C233.211 254.072 233.75 253.939 234.219 253.672C234.689 253.395 235.057 253.011 235.323 252.52C235.601 252.019 235.739 251.443 235.739 250.792C235.739 250.131 235.601 249.555 235.323 249.064C235.057 248.573 234.689 248.195 234.219 247.928C233.75 247.651 233.217 247.512 232.619 247.512C232.022 247.512 231.489 247.651 231.019 247.928C230.55 248.195 230.177 248.573 229.899 249.064C229.622 249.555 229.483 250.131 229.483 250.792C229.483 251.443 229.622 252.019 229.899 252.52C230.177 253.011 230.55 253.395 231.019 253.672C231.489 253.939 232.017 254.072 232.603 254.072ZM239.319 255V246.6H246.871V255H245.735V247.288L246.023 247.592H240.167L240.455 247.288V255H239.319ZM251.7 255V247.288L251.988 247.592H248.516V246.6H256.02V247.592H252.548L252.836 247.288V255H251.7ZM257.663 255V246.6H258.799V253.272L264.415 246.6H265.423V255H264.287V248.312L258.687 255H257.663ZM268.679 255V246.6H269.831L273.639 253.048H273.159L277.031 246.6H278.087V255H277.047V247.896L277.255 247.992L273.639 253.976H273.127L269.479 247.928L269.719 247.88V255H268.679ZM286.535 255V253.144L286.487 252.84V249.736C286.487 249.021 286.284 248.472 285.879 248.088C285.484 247.704 284.892 247.512 284.103 247.512C283.559 247.512 283.042 247.603 282.551 247.784C282.06 247.965 281.644 248.205 281.303 248.504L280.791 247.656C281.218 247.293 281.73 247.016 282.327 246.824C282.924 246.621 283.554 246.52 284.215 246.52C285.303 246.52 286.14 246.792 286.727 247.336C287.324 247.869 287.623 248.685 287.623 249.784V255H286.535ZM283.639 255.08C283.01 255.08 282.46 254.979 281.991 254.776C281.532 254.563 281.18 254.275 280.935 253.912C280.69 253.539 280.567 253.112 280.567 252.632C280.567 252.195 280.668 251.8 280.871 251.448C281.084 251.085 281.426 250.797 281.895 250.584C282.375 250.36 283.015 250.248 283.815 250.248H286.711V251.096H283.847C283.036 251.096 282.471 251.24 282.151 251.528C281.842 251.816 281.687 252.173 281.687 252.6C281.687 253.08 281.874 253.464 282.247 253.752C282.62 254.04 283.143 254.184 283.815 254.184C284.455 254.184 285.004 254.04 285.463 253.752C285.932 253.453 286.274 253.027 286.487 252.472L286.743 253.256C286.53 253.811 286.156 254.253 285.623 254.584C285.1 254.915 284.439 255.08 283.639 255.08ZM289.111 254.984L289.191 254.008C289.266 254.019 289.335 254.035 289.399 254.056C289.474 254.067 289.538 254.072 289.591 254.072C289.933 254.072 290.205 253.944 290.407 253.688C290.621 253.432 290.781 253.091 290.887 252.664C290.994 252.237 291.069 251.757 291.111 251.224C291.154 250.68 291.191 250.136 291.223 249.592L291.367 246.6H297.527V255H296.391V247.256L296.679 247.592H292.103L292.375 247.24L292.247 249.672C292.215 250.397 292.157 251.091 292.071 251.752C291.997 252.413 291.874 252.995 291.703 253.496C291.543 253.997 291.319 254.392 291.031 254.68C290.743 254.957 290.375 255.096 289.927 255.096C289.799 255.096 289.666 255.085 289.527 255.064C289.399 255.043 289.261 255.016 289.111 254.984ZM304.373 249.56C305.429 249.571 306.229 249.805 306.773 250.264C307.327 250.723 307.605 251.384 307.605 252.248C307.605 253.144 307.306 253.832 306.709 254.312C306.122 254.792 305.269 255.027 304.149 255.016L300.757 255V246.6H301.893V249.528L304.373 249.56ZM304.085 254.152C304.863 254.163 305.45 254.008 305.845 253.688C306.25 253.357 306.453 252.877 306.453 252.248C306.453 251.619 306.255 251.16 305.861 250.872C305.466 250.573 304.874 250.419 304.085 250.408L301.893 250.376V254.12L304.085 254.152ZM309.772 255V246.6H310.908V250.312H316.204V246.6H317.34V255H316.204V251.288H310.908V255H309.772ZM324.025 255.08C323.214 255.08 322.484 254.899 321.833 254.536C321.193 254.163 320.686 253.656 320.313 253.016C319.94 252.365 319.753 251.624 319.753 250.792C319.753 249.949 319.94 249.208 320.313 248.568C320.686 247.928 321.193 247.427 321.833 247.064C322.473 246.701 323.204 246.52 324.025 246.52C324.857 246.52 325.593 246.701 326.233 247.064C326.884 247.427 327.39 247.928 327.753 248.568C328.126 249.208 328.313 249.949 328.313 250.792C328.313 251.624 328.126 252.365 327.753 253.016C327.39 253.656 326.884 254.163 326.233 254.536C325.582 254.899 324.846 255.08 324.025 255.08ZM324.025 254.072C324.633 254.072 325.172 253.939 325.641 253.672C326.11 253.395 326.478 253.011 326.745 252.52C327.022 252.019 327.161 251.443 327.161 250.792C327.161 250.131 327.022 249.555 326.745 249.064C326.478 248.573 326.11 248.195 325.641 247.928C325.172 247.651 324.638 247.512 324.041 247.512C323.444 247.512 322.91 247.651 322.441 247.928C321.972 248.195 321.598 248.573 321.321 249.064C321.044 249.555 320.905 250.131 320.905 250.792C320.905 251.443 321.044 252.019 321.321 252.52C321.598 253.011 321.972 253.395 322.441 253.672C322.91 253.939 323.438 254.072 324.025 254.072ZM334.341 255.08C333.466 255.08 332.698 254.899 332.037 254.536C331.376 254.163 330.858 253.656 330.485 253.016C330.112 252.365 329.925 251.624 329.925 250.792C329.925 249.96 330.101 249.224 330.453 248.584C330.816 247.944 331.306 247.443 331.925 247.08C332.554 246.707 333.258 246.52 334.037 246.52C334.826 246.52 335.525 246.701 336.133 247.064C336.752 247.416 337.237 247.917 337.589 248.568C337.941 249.208 338.117 249.949 338.117 250.792C338.117 250.845 338.112 250.904 338.101 250.968C338.101 251.021 338.101 251.08 338.101 251.144H330.789V250.296H337.493L337.045 250.632C337.045 250.024 336.912 249.485 336.645 249.016C336.389 248.536 336.037 248.163 335.589 247.896C335.141 247.629 334.624 247.496 334.037 247.496C333.461 247.496 332.944 247.629 332.485 247.896C332.026 248.163 331.669 248.536 331.413 249.016C331.157 249.496 331.029 250.045 331.029 250.664V250.84C331.029 251.48 331.168 252.045 331.445 252.536C331.733 253.016 332.128 253.395 332.629 253.672C333.141 253.939 333.722 254.072 334.373 254.072C334.885 254.072 335.36 253.981 335.797 253.8C336.245 253.619 336.629 253.341 336.949 252.968L337.589 253.704C337.216 254.152 336.746 254.493 336.181 254.728C335.626 254.963 335.013 255.08 334.341 255.08ZM349.155 255.08C348.43 255.08 347.774 254.915 347.187 254.584C346.6 254.243 346.131 253.757 345.779 253.128C345.438 252.488 345.267 251.709 345.267 250.792C345.267 249.875 345.438 249.101 345.779 248.472C346.12 247.832 346.584 247.347 347.171 247.016C347.758 246.685 348.419 246.52 349.155 246.52C349.955 246.52 350.67 246.701 351.299 247.064C351.939 247.416 352.44 247.917 352.803 248.568C353.166 249.208 353.347 249.949 353.347 250.792C353.347 251.645 353.166 252.392 352.803 253.032C352.44 253.672 351.939 254.173 351.299 254.536C350.67 254.899 349.955 255.08 349.155 255.08ZM344.819 258.104V246.6H345.907V249.128L345.795 250.808L345.955 252.504V258.104H344.819ZM349.075 254.072C349.672 254.072 350.206 253.939 350.675 253.672C351.144 253.395 351.518 253.011 351.795 252.52C352.072 252.019 352.211 251.443 352.211 250.792C352.211 250.141 352.072 249.571 351.795 249.08C351.518 248.589 351.144 248.205 350.675 247.928C350.206 247.651 349.672 247.512 349.075 247.512C348.478 247.512 347.939 247.651 347.459 247.928C346.99 248.205 346.616 248.589 346.339 249.08C346.072 249.571 345.939 250.141 345.939 250.792C345.939 251.443 346.072 252.019 346.339 252.52C346.616 253.011 346.99 253.395 347.459 253.672C347.939 253.939 348.478 254.072 349.075 254.072ZM359.388 255.08C358.513 255.08 357.745 254.899 357.084 254.536C356.423 254.163 355.905 253.656 355.532 253.016C355.159 252.365 354.972 251.624 354.972 250.792C354.972 249.96 355.148 249.224 355.5 248.584C355.863 247.944 356.353 247.443 356.972 247.08C357.601 246.707 358.305 246.52 359.084 246.52C359.873 246.52 360.572 246.701 361.18 247.064C361.799 247.416 362.284 247.917 362.636 248.568C362.988 249.208 363.164 249.949 363.164 250.792C363.164 250.845 363.159 250.904 363.148 250.968C363.148 251.021 363.148 251.08 363.148 251.144H355.836V250.296H362.54L362.092 250.632C362.092 250.024 361.959 249.485 361.692 249.016C361.436 248.536 361.084 248.163 360.636 247.896C360.188 247.629 359.671 247.496 359.084 247.496C358.508 247.496 357.991 247.629 357.532 247.896C357.073 248.163 356.716 248.536 356.46 249.016C356.204 249.496 356.076 250.045 356.076 250.664V250.84C356.076 251.48 356.215 252.045 356.492 252.536C356.78 253.016 357.175 253.395 357.676 253.672C358.188 253.939 358.769 254.072 359.42 254.072C359.932 254.072 360.407 253.981 360.844 253.8C361.292 253.619 361.676 253.341 361.996 252.968L362.636 253.704C362.263 254.152 361.793 254.493 361.228 254.728C360.673 254.963 360.06 255.08 359.388 255.08ZM371.199 254.008L370.943 254.312V246.6H372.079V254.312L371.775 254.008H376.463L376.159 254.312V246.6H377.295V255H365.679V246.6H366.815V254.312L366.527 254.008H371.199ZM384.122 255.08C383.248 255.08 382.48 254.899 381.818 254.536C381.157 254.163 380.64 253.656 380.266 253.016C379.893 252.365 379.706 251.624 379.706 250.792C379.706 249.96 379.882 249.224 380.234 248.584C380.597 247.944 381.088 247.443 381.706 247.08C382.336 246.707 383.04 246.52 383.818 246.52C384.608 246.52 385.306 246.701 385.914 247.064C386.533 247.416 387.018 247.917 387.37 248.568C387.722 249.208 387.898 249.949 387.898 250.792C387.898 250.845 387.893 250.904 387.882 250.968C387.882 251.021 387.882 251.08 387.882 251.144H380.57V250.296H387.274L386.826 250.632C386.826 250.024 386.693 249.485 386.426 249.016C386.17 248.536 385.818 248.163 385.37 247.896C384.922 247.629 384.405 247.496 383.818 247.496C383.242 247.496 382.725 247.629 382.266 247.896C381.808 248.163 381.45 248.536 381.194 249.016C380.938 249.496 380.81 250.045 380.81 250.664V250.84C380.81 251.48 380.949 252.045 381.226 252.536C381.514 253.016 381.909 253.395 382.41 253.672C382.922 253.939 383.504 254.072 384.154 254.072C384.666 254.072 385.141 253.981 385.578 253.8C386.026 253.619 386.41 253.341 386.73 252.968L387.37 253.704C386.997 254.152 386.528 254.493 385.962 254.728C385.408 254.963 384.794 255.08 384.122 255.08ZM390.413 255V246.6H391.549V250.312H396.845V246.6H397.981V255H396.845V251.288H391.549V255H390.413ZM401.21 255V246.6H402.346V253.272L407.962 246.6H408.97V255H407.834V248.312L402.234 255H401.21ZM415.825 255.08C414.951 255.08 414.183 254.899 413.521 254.536C412.86 254.163 412.343 253.656 411.969 253.016C411.596 252.365 411.409 251.624 411.409 250.792C411.409 249.96 411.585 249.224 411.937 248.584C412.3 247.944 412.791 247.443 413.409 247.08C414.039 246.707 414.743 246.52 415.521 246.52C416.311 246.52 417.009 246.701 417.617 247.064C418.236 247.416 418.721 247.917 419.073 248.568C419.425 249.208 419.601 249.949 419.601 250.792C419.601 250.845 419.596 250.904 419.585 250.968C419.585 251.021 419.585 251.08 419.585 251.144H412.273V250.296H418.977L418.529 250.632C418.529 250.024 418.396 249.485 418.129 249.016C417.873 248.536 417.521 248.163 417.073 247.896C416.625 247.629 416.108 247.496 415.521 247.496C414.945 247.496 414.428 247.629 413.969 247.896C413.511 248.163 413.153 248.536 412.897 249.016C412.641 249.496 412.513 250.045 412.513 250.664V250.84C412.513 251.48 412.652 252.045 412.929 252.536C413.217 253.016 413.612 253.395 414.113 253.672C414.625 253.939 415.207 254.072 415.857 254.072C416.369 254.072 416.844 253.981 417.281 253.8C417.729 253.619 418.113 253.341 418.433 252.968L419.073 253.704C418.7 254.152 418.231 254.493 417.665 254.728C417.111 254.963 416.497 255.08 415.825 255.08Z" fill="#5A5A5A"/>
<path d="M73.2047 130.621V138.227H75.1266C76.4625 138.227 77.4195 137.867 77.9977 137.148C78.5758 136.43 78.8648 135.562 78.8648 134.547C78.8648 133.531 78.607 132.656 78.0914 131.922C77.482 131.055 76.4273 130.621 74.9273 130.621H73.2047ZM75.0797 139H68.6695V138.906C69.4898 138.695 70.0328 138.367 70.2984 137.922C70.5719 137.469 70.7086 136.738 70.7086 135.73V125.699C70.7086 124.699 70.5719 123.973 70.2984 123.52C70.0328 123.074 69.4898 122.746 68.6695 122.535V122.441H80.1891V125.828H80.0953C79.4469 124.656 78.9469 123.93 78.5953 123.648C78.2281 123.352 77.6383 123.203 76.8258 123.203H73.2047V129.859H75.3375C75.9625 129.859 76.5484 129.898 77.0953 129.977C77.65 130.055 78.1969 130.195 78.7359 130.398C79.2828 130.602 79.7477 130.867 80.1305 131.195C80.5211 131.516 80.8336 131.938 81.068 132.461C81.3102 132.977 81.4312 133.574 81.4312 134.254C81.4312 135.707 80.8609 136.863 79.7203 137.723C78.5875 138.574 77.0406 139 75.0797 139ZM97.3195 139H85.5773V138.906C86.3977 138.695 86.9406 138.367 87.2062 137.922C87.4797 137.469 87.6164 136.738 87.6164 135.73V125.699C87.6164 124.699 87.4797 123.973 87.2062 123.52C86.9406 123.074 86.3977 122.746 85.5773 122.535V122.441H96.6164V125.828H96.5227C95.9133 124.734 95.3898 124.023 94.9523 123.695C94.5148 123.367 93.8703 123.203 93.0187 123.203H90.1125V130.094H92.9953C93.5969 130.094 94.0695 129.988 94.4133 129.777C94.757 129.559 95.1008 129.176 95.4445 128.629H95.5383V132.332H95.4445C95.093 131.777 94.7492 131.395 94.4133 131.184C94.0852 130.973 93.6125 130.867 92.9953 130.867H90.1125V138.227H93.6867C94.4914 138.227 95.1086 138.059 95.5383 137.723C95.9602 137.387 96.6789 136.555 97.6945 135.227H97.7883L97.3195 139ZM111.473 139.363C108.88 139.363 106.692 138.578 104.911 137.008C103.13 135.438 102.235 133.43 102.227 130.984C102.227 129.25 102.7 127.695 103.645 126.32C104.559 125 105.712 123.969 107.102 123.227C108.493 122.477 109.981 122.102 111.567 122.102C112.27 122.102 113.083 122.191 114.005 122.371C114.934 122.551 115.708 122.773 116.325 123.039V126.285H116.22C115.118 123.934 113.481 122.758 111.309 122.758C109.552 122.758 108.067 123.516 106.856 125.031C105.645 126.547 105.04 128.445 105.04 130.727C105.04 132.992 105.684 134.891 106.973 136.422C108.262 137.953 109.809 138.715 111.614 138.707C113.934 138.707 115.649 137.461 116.759 134.969H116.852L116.559 138.355C116.028 138.637 115.29 138.875 114.345 139.07C113.337 139.273 112.38 139.371 111.473 139.363ZM139.174 138.906V139H132.588V138.906C132.948 138.812 133.248 138.695 133.491 138.555C133.741 138.414 133.94 138.262 134.088 138.098C134.237 137.926 134.35 137.715 134.428 137.465C134.514 137.207 134.569 136.949 134.592 136.691C134.623 136.434 134.639 136.113 134.639 135.73V125.699C134.639 124.777 134.537 124.148 134.334 123.812C134.131 123.492 133.76 123.332 133.221 123.332H127.362C126.815 123.332 126.44 123.496 126.237 123.824C126.034 124.168 125.936 124.793 125.944 125.699V135.73C125.944 136.73 126.08 137.461 126.354 137.922C126.62 138.375 127.162 138.703 127.983 138.906V139H121.409V138.906C122.229 138.695 122.772 138.367 123.037 137.922C123.311 137.469 123.448 136.738 123.448 135.73V125.699C123.448 124.699 123.311 123.973 123.037 123.52C122.772 123.074 122.229 122.746 121.409 122.535V122.441H139.174V122.535C138.362 122.746 137.815 123.074 137.534 123.52C137.252 123.957 137.12 124.684 137.135 125.699V135.73C137.135 136.738 137.268 137.469 137.534 137.922C137.799 138.367 138.346 138.695 139.174 138.906ZM159.645 138.906V139H153.07V138.906C153.891 138.695 154.434 138.367 154.699 137.922C154.973 137.469 155.109 136.738 155.109 135.73V123.203H150V124.211C150 129.148 149.484 132.887 148.453 135.426C147.937 136.699 147.367 137.656 146.742 138.297C146.125 138.93 145.449 139.242 144.715 139.234C144.176 139.234 143.723 139.098 143.355 138.824C142.996 138.551 142.816 138.156 142.816 137.641C142.816 137.219 142.937 136.852 143.18 136.539C143.43 136.227 143.758 136.07 144.164 136.07C144.914 136.07 145.562 136.52 146.109 137.418C146.797 136.863 147.445 135.625 148.055 133.703C148.664 131.797 148.969 129.258 148.969 126.086C148.969 125.023 148.781 124.215 148.406 123.66C148.031 123.098 147.344 122.723 146.344 122.535V122.441H159.645V122.535C158.824 122.746 158.281 123.074 158.016 123.52C157.742 123.973 157.605 124.699 157.605 125.699V135.73C157.605 136.73 157.742 137.461 158.016 137.922C158.281 138.375 158.824 138.703 159.645 138.906ZM168.185 132.355H173.998L171.021 124.023L168.185 132.355ZM179.998 138.906V139H173.974V138.906C174.498 138.773 174.873 138.594 175.099 138.367C175.334 138.133 175.447 137.75 175.439 137.219C175.439 136.68 175.052 135.328 174.279 133.164H167.904C167.185 135.336 166.826 136.672 166.826 137.172C166.826 137.688 166.939 138.07 167.166 138.32C167.4 138.562 167.779 138.758 168.302 138.906V139H163.24V138.906C163.716 138.664 164.111 138.363 164.423 138.004C165.017 137.316 165.849 135.496 166.92 132.543L170.611 122.441H172.943L176.517 132.52C177.322 134.816 177.935 136.363 178.357 137.16C178.795 137.988 179.341 138.57 179.998 138.906ZM191.749 138.906V139H185.175V138.906C185.995 138.695 186.538 138.367 186.804 137.922C187.077 137.469 187.214 136.738 187.214 135.73V123.203H184.484C184.03 123.203 183.546 123.539 183.03 124.211C183.007 124.242 182.956 124.309 182.878 124.41C182.808 124.512 182.73 124.621 182.644 124.738C182.558 124.848 182.472 124.965 182.386 125.09C182.12 125.465 181.843 125.828 181.554 126.18H181.46L181.941 122.441H194.995L195.476 126.18H195.382C195.179 125.938 194.839 125.488 194.362 124.832C193.925 124.23 193.585 123.816 193.343 123.59C193.101 123.348 192.804 123.219 192.452 123.203H189.71V135.73C189.71 136.73 189.847 137.461 190.12 137.922C190.386 138.375 190.929 138.703 191.749 138.906ZM217.657 138.906V139H211.083V138.906C211.903 138.695 212.446 138.367 212.712 137.922C212.985 137.469 213.122 136.738 213.122 135.73V130.938H204.333V135.73C204.333 136.73 204.47 137.461 204.743 137.922C205.009 138.375 205.552 138.703 206.372 138.906V139H199.798V138.906C200.618 138.695 201.161 138.367 201.427 137.922C201.7 137.469 201.837 136.738 201.837 135.73V125.699C201.837 124.699 201.7 123.973 201.427 123.52C201.161 123.074 200.618 122.746 199.798 122.535V122.441H206.372V122.535C205.552 122.746 205.009 123.074 204.743 123.52C204.47 123.973 204.333 124.699 204.333 125.699V130.047H213.122V125.699C213.122 124.699 212.985 123.973 212.712 123.52C212.446 123.074 211.903 122.746 211.083 122.535V122.441H217.657V122.535C216.837 122.746 216.294 123.074 216.028 123.52C215.755 123.973 215.618 124.699 215.618 125.699V135.73C215.618 136.73 215.755 137.461 216.028 137.922C216.294 138.375 216.837 138.703 217.657 138.906ZM226.127 132.355H231.94L228.963 124.023L226.127 132.355ZM237.94 138.906V139H231.916V138.906C232.44 138.773 232.815 138.594 233.041 138.367C233.276 138.133 233.389 137.75 233.381 137.219C233.381 136.68 232.995 135.328 232.221 133.164H225.846C225.127 135.336 224.768 136.672 224.768 137.172C224.768 137.688 224.881 138.07 225.108 138.32C225.342 138.562 225.721 138.758 226.245 138.906V139H221.182V138.906C221.659 138.664 222.053 138.363 222.366 138.004C222.959 137.316 223.791 135.496 224.862 132.543L228.553 122.441H230.885L234.459 132.52C235.264 134.816 235.877 136.363 236.299 137.16C236.737 137.988 237.284 138.57 237.94 138.906ZM255.164 138.906V139H248.59V138.906C249.402 138.695 249.949 138.367 250.23 137.922C250.504 137.461 250.637 136.73 250.629 135.73V131.488H249.117L245.543 136.82C244.84 137.875 244.301 138.5 243.926 138.695C243.535 138.898 242.699 139 241.418 139H239.812V138.906C240.453 138.734 240.945 138.504 241.289 138.215C241.641 137.926 242.188 137.258 242.93 136.211L246.598 131.125C245.449 130.938 244.453 130.492 243.609 129.789C242.766 129.086 242.348 128.18 242.355 127.07C242.355 126.266 242.523 125.559 242.859 124.949C243.203 124.34 243.66 123.859 244.23 123.508C244.809 123.156 245.438 122.895 246.117 122.723C246.797 122.543 247.52 122.449 248.285 122.441H255.164V122.535C254.344 122.746 253.801 123.074 253.535 123.52C253.262 123.973 253.125 124.699 253.125 125.699V135.73C253.125 136.73 253.262 137.461 253.535 137.922C253.801 138.375 254.344 138.703 255.164 138.906ZM248.566 130.738H250.629V123.203H248.637C247.512 123.203 246.609 123.586 245.93 124.352C245.258 125.117 244.922 126.07 244.922 127.211C244.922 128.352 245.277 129.227 245.988 129.836C246.707 130.445 247.566 130.746 248.566 130.738ZM282.804 138.906V139H281.62C280.034 139 278.991 138.867 278.491 138.602C277.991 138.336 277.491 137.59 276.991 136.363L276.124 134.219C275.601 132.922 275.105 132.02 274.636 131.512C274.183 131.02 273.495 130.773 272.573 130.773H271.472V135.73C271.472 136.73 271.609 137.461 271.882 137.922C272.148 138.375 272.691 138.703 273.511 138.906V139H266.937V138.906C267.757 138.695 268.3 138.367 268.566 137.922C268.839 137.469 268.976 136.738 268.976 135.73V125.699C268.976 124.699 268.839 123.973 268.566 123.52C268.3 123.074 267.757 122.746 266.937 122.535V122.441H273.511V122.535C272.691 122.746 272.148 123.074 271.882 123.52C271.609 123.973 271.472 124.699 271.472 125.699V130.094H272.14C272.866 130.094 273.445 129.984 273.874 129.766C274.312 129.539 274.691 129.109 275.011 128.477C275.237 128.031 275.452 127.488 275.655 126.848L276.066 125.559C276.183 125.191 276.366 124.781 276.616 124.328C276.866 123.875 277.112 123.52 277.355 123.262C277.691 122.895 278.097 122.609 278.573 122.406C279.05 122.203 279.538 122.102 280.038 122.102C280.601 122.102 281.097 122.238 281.527 122.512C281.956 122.785 282.171 123.188 282.171 123.719C282.171 124.188 282.042 124.586 281.784 124.914C281.534 125.234 281.179 125.395 280.718 125.395C280.077 125.395 279.624 125.113 279.359 124.551C279.093 123.996 279.202 123.43 279.687 122.852C278.741 122.852 277.968 123.492 277.366 124.773C277.148 125.227 277.003 125.566 276.933 125.793C276.628 126.785 276.343 127.617 276.077 128.289C275.929 128.672 275.714 129.027 275.433 129.355C275.152 129.684 274.839 129.938 274.495 130.117C276.394 130.328 277.82 131.441 278.773 133.457C278.905 133.738 279.124 134.254 279.429 135.004C279.734 135.762 279.968 136.309 280.132 136.645C280.429 137.309 280.78 137.824 281.187 138.191C281.601 138.559 282.14 138.797 282.804 138.906ZM289.012 136.305C290.122 137.906 291.52 138.707 293.208 138.707C294.887 138.707 296.29 137.91 297.415 136.316C298.532 134.707 299.091 132.836 299.091 130.703C299.091 128.562 298.536 126.703 297.427 125.125C296.325 123.547 294.923 122.758 293.22 122.758C291.516 122.758 290.11 123.547 289.001 125.125C287.891 126.703 287.337 128.562 287.337 130.703C287.337 132.828 287.895 134.695 289.012 136.305ZM293.208 122.102C294.684 122.102 296.071 122.484 297.368 123.25C298.673 124.008 299.743 125.027 300.579 126.309C301.446 127.645 301.887 129.133 301.903 130.773C301.903 131.719 301.755 132.629 301.458 133.504C301.161 134.379 300.739 135.168 300.192 135.871C299.653 136.566 299.024 137.18 298.305 137.711C297.595 138.234 296.802 138.641 295.927 138.93C295.052 139.211 294.149 139.355 293.22 139.363C291.657 139.363 290.208 138.98 288.872 138.215C287.536 137.449 286.477 136.406 285.696 135.086C284.915 133.766 284.524 132.328 284.524 130.773C284.524 129.648 284.762 128.551 285.239 127.48C285.716 126.41 286.348 125.484 287.137 124.703C287.927 123.922 288.852 123.293 289.915 122.816C290.985 122.34 292.083 122.102 293.208 122.102ZM324.213 138.906V139H317.639V138.906C318.459 138.695 319.002 138.367 319.268 137.922C319.541 137.469 319.678 136.738 319.678 135.73V130.938H310.889V135.73C310.889 136.73 311.026 137.461 311.299 137.922C311.565 138.375 312.108 138.703 312.928 138.906V139H306.354V138.906C307.174 138.695 307.717 138.367 307.983 137.922C308.256 137.469 308.393 136.738 308.393 135.73V125.699C308.393 124.699 308.256 123.973 307.983 123.52C307.717 123.074 307.174 122.746 306.354 122.535V122.441H312.928V122.535C312.108 122.746 311.565 123.074 311.299 123.52C311.026 123.973 310.889 124.699 310.889 125.699V130.047H319.678V125.699C319.678 124.699 319.541 123.973 319.268 123.52C319.002 123.074 318.459 122.746 317.639 122.535V122.441H324.213V122.535C323.393 122.746 322.85 123.074 322.584 123.52C322.311 123.973 322.174 124.699 322.174 125.699V135.73C322.174 136.73 322.311 137.461 322.584 137.922C322.85 138.375 323.393 138.703 324.213 138.906ZM338.133 139.363C335.539 139.363 333.352 138.578 331.57 137.008C329.789 135.438 328.895 133.43 328.887 130.984C328.887 129.25 329.359 127.695 330.305 126.32C331.219 125 332.371 123.969 333.762 123.227C335.152 122.477 336.641 122.102 338.227 122.102C338.93 122.102 339.742 122.191 340.664 122.371C341.594 122.551 342.367 122.773 342.984 123.039V126.285H342.879C341.777 123.934 340.141 122.758 337.969 122.758C336.211 122.758 334.727 123.516 333.516 125.031C332.305 126.547 331.699 128.445 331.699 130.727C331.699 132.992 332.344 134.891 333.633 136.422C334.922 137.953 336.469 138.715 338.273 138.707C340.594 138.707 342.309 137.461 343.418 134.969H343.512L343.219 138.355C342.688 138.637 341.949 138.875 341.004 139.07C339.996 139.273 339.039 139.371 338.133 139.363ZM346.72 122.535V122.441H352.767V122.535C352.017 122.676 351.607 123.023 351.537 123.578C351.466 124.125 351.767 125.074 352.439 126.426L355.767 132.836L358.392 126.566C359.4 124.152 359.072 122.809 357.408 122.535V122.441H362.517V122.535C361.962 122.715 361.459 123.102 361.005 123.695C360.537 124.305 360.002 125.277 359.4 126.613L355.896 134.465C354.443 137.73 352.712 139.363 350.705 139.363C350.087 139.363 349.564 139.176 349.134 138.801C348.697 138.41 348.478 138 348.478 137.57C348.478 137.102 348.603 136.73 348.853 136.457C349.111 136.184 349.47 136.047 349.931 136.047C350.416 136.047 350.857 136.398 351.255 137.102C351.537 137.625 351.732 137.977 351.841 138.156C352.326 137.992 352.802 137.641 353.271 137.102C353.74 136.562 354.134 135.996 354.455 135.402L349.826 126.637C349.029 125.09 348.427 124.039 348.021 123.484C347.63 122.953 347.197 122.637 346.72 122.535ZM378.71 138.906V139H372.136V138.906C372.956 138.695 373.499 138.367 373.765 137.922C374.038 137.469 374.175 136.738 374.175 135.73V123.203H369.066V124.211C369.066 129.148 368.55 132.887 367.519 135.426C367.003 136.699 366.433 137.656 365.808 138.297C365.191 138.93 364.515 139.242 363.78 139.234C363.241 139.234 362.788 139.098 362.421 138.824C362.062 138.551 361.882 138.156 361.882 137.641C361.882 137.219 362.003 136.852 362.245 136.539C362.495 136.227 362.823 136.07 363.23 136.07C363.98 136.07 364.628 136.52 365.175 137.418C365.862 136.863 366.511 135.625 367.12 133.703C367.73 131.797 368.034 129.258 368.034 126.086C368.034 125.023 367.847 124.215 367.472 123.66C367.097 123.098 366.409 122.723 365.409 122.535V122.441H378.71V122.535C377.89 122.746 377.347 123.074 377.081 123.52C376.808 123.973 376.671 124.699 376.671 125.699V135.73C376.671 136.73 376.808 137.461 377.081 137.922C377.347 138.375 377.89 138.703 378.71 138.906ZM389.512 139H383.102V138.906C383.923 138.695 384.466 138.367 384.731 137.922C385.005 137.469 385.141 136.738 385.141 135.73V125.699C385.141 124.699 385.005 123.973 384.731 123.52C384.466 123.074 383.923 122.746 383.102 122.535V122.441H390.016V122.535C389.079 122.746 388.446 123.078 388.118 123.531C387.798 123.984 387.637 124.707 387.637 125.699V129.859H389.77C390.395 129.859 390.981 129.898 391.528 129.977C392.083 130.055 392.63 130.195 393.169 130.398C393.716 130.602 394.18 130.867 394.563 131.195C394.954 131.516 395.266 131.938 395.501 132.461C395.743 132.977 395.864 133.574 395.864 134.254C395.864 135.707 395.294 136.863 394.153 137.723C393.02 138.574 391.473 139 389.512 139ZM387.637 130.621V138.227H389.559C390.895 138.227 391.852 137.867 392.43 137.148C393.009 136.43 393.298 135.562 393.298 134.547C393.298 133.531 393.04 132.656 392.524 131.922C391.915 131.055 390.86 130.621 389.36 130.621H387.637ZM410.159 138.906V139H403.584V138.906C404.405 138.695 404.948 138.367 405.213 137.922C405.487 137.469 405.623 136.738 405.623 135.73V123.203H402.893C402.44 123.203 401.955 123.539 401.44 124.211C401.416 124.242 401.366 124.309 401.288 124.41C401.217 124.512 401.139 124.621 401.053 124.738C400.967 124.848 400.881 124.965 400.795 125.09C400.53 125.465 400.252 125.828 399.963 126.18H399.87L400.35 122.441H413.405L413.885 126.18H413.791C413.588 125.938 413.248 125.488 412.772 124.832C412.334 124.23 411.995 123.816 411.752 123.59C411.51 123.348 411.213 123.219 410.862 123.203H408.12V135.73C408.12 136.73 408.256 137.461 408.53 137.922C408.795 138.375 409.338 138.703 410.159 138.906ZM420.059 132.355H425.871L422.895 124.023L420.059 132.355ZM431.871 138.906V139H425.848V138.906C426.371 138.773 426.746 138.594 426.973 138.367C427.207 138.133 427.32 137.75 427.312 137.219C427.312 136.68 426.926 135.328 426.152 133.164H419.777C419.059 135.336 418.699 136.672 418.699 137.172C418.699 137.688 418.812 138.07 419.039 138.32C419.273 138.562 419.652 138.758 420.176 138.906V139H415.113V138.906C415.59 138.664 415.984 138.363 416.297 138.004C416.891 137.316 417.723 135.496 418.793 132.543L422.484 122.441H424.816L428.391 132.52C429.195 134.816 429.809 136.363 430.23 137.16C430.668 137.988 431.215 138.57 431.871 138.906ZM453.466 138.109V142.891H453.373C453.334 142.82 452.966 142.195 452.271 141.016C452.091 140.711 451.939 140.461 451.814 140.266C451.689 140.07 451.502 139.844 451.252 139.586C451.009 139.336 450.775 139.172 450.548 139.094C450.361 139.031 450.134 139 449.869 139H435.396V138.906C436.216 138.695 436.759 138.367 437.025 137.922C437.298 137.469 437.435 136.738 437.435 135.73V125.699C437.435 124.699 437.298 123.973 437.025 123.52C436.759 123.074 436.216 122.746 435.396 122.535V122.441H441.97V122.535C441.15 122.746 440.607 123.074 440.341 123.52C440.068 123.973 439.931 124.699 439.931 125.699V135.73C439.931 136.652 440.033 137.281 440.236 137.617C440.431 137.945 440.802 138.109 441.349 138.109H447.209C447.755 138.109 448.13 137.945 448.334 137.617C448.537 137.273 448.634 136.645 448.627 135.73V125.699C448.627 124.699 448.49 123.973 448.216 123.52C447.951 123.074 447.404 122.746 446.576 122.535V122.441H453.162V122.535C452.349 122.746 451.802 123.074 451.521 123.52C451.24 123.957 451.107 124.684 451.123 125.699V135.73C451.123 136.652 451.248 137.281 451.498 137.617C451.748 137.945 452.205 138.109 452.869 138.109H453.466ZM475.718 138.906V139H469.144V138.906C469.964 138.695 470.507 138.367 470.773 137.922C471.046 137.469 471.183 136.738 471.183 135.73V125.605L462.206 137.102C462.292 137.664 462.487 138.066 462.792 138.309C463.097 138.543 463.566 138.742 464.198 138.906V139H457.624V138.906C458.445 138.695 458.987 138.367 459.253 137.922C459.527 137.469 459.663 136.738 459.663 135.73V125.699C459.663 124.699 459.527 123.973 459.253 123.52C458.987 123.074 458.445 122.746 457.624 122.535V122.441H464.198V122.535C463.378 122.746 462.835 123.074 462.57 123.52C462.296 123.973 462.159 124.699 462.159 125.699V135.684L471.089 124.234C470.987 123.719 470.784 123.348 470.48 123.121C470.175 122.895 469.73 122.699 469.144 122.535V122.441H475.718V122.535C474.898 122.746 474.355 123.074 474.089 123.52C473.816 123.973 473.679 124.699 473.679 125.699V135.73C473.679 136.73 473.816 137.461 474.089 137.922C474.355 138.375 474.898 138.703 475.718 138.906ZM493.88 138.906V139H487.305V138.906C488.118 138.695 488.665 138.367 488.946 137.922C489.22 137.461 489.352 136.73 489.345 135.73V131.488H487.833L484.259 136.82C483.555 137.875 483.016 138.5 482.641 138.695C482.251 138.898 481.415 139 480.134 139H478.528V138.906C479.169 138.734 479.661 138.504 480.005 138.215C480.356 137.926 480.903 137.258 481.645 136.211L485.313 131.125C484.165 130.938 483.169 130.492 482.325 129.789C481.481 129.086 481.063 128.18 481.071 127.07C481.071 126.266 481.239 125.559 481.575 124.949C481.919 124.34 482.376 123.859 482.946 123.508C483.524 123.156 484.153 122.895 484.833 122.723C485.512 122.543 486.235 122.449 487.001 122.441H493.88V122.535C493.059 122.746 492.516 123.074 492.251 123.52C491.977 123.973 491.841 124.699 491.841 125.699V135.73C491.841 136.73 491.977 137.461 492.251 137.922C492.516 138.375 493.059 138.703 493.88 138.906ZM487.282 130.738H489.345V123.203H487.352C486.227 123.203 485.325 123.586 484.645 124.352C483.973 125.117 483.637 126.07 483.637 127.211C483.637 128.352 483.993 129.227 484.704 129.836C485.423 130.445 486.282 130.746 487.282 130.738Z" fill="#44C9AD"/>
<path d="M176.733 172.906V173H170.159V172.906C170.979 172.695 171.522 172.367 171.787 171.922C172.061 171.469 172.198 170.738 172.198 169.73V164.938H163.409V169.73C163.409 170.73 163.545 171.461 163.819 171.922C164.084 172.375 164.627 172.703 165.448 172.906V173H158.873V172.906C159.694 172.695 160.237 172.367 160.502 171.922C160.776 171.469 160.912 170.738 160.912 169.73V159.699C160.912 158.699 160.776 157.973 160.502 157.52C160.237 157.074 159.694 156.746 158.873 156.535V156.441H165.448V156.535C164.627 156.746 164.084 157.074 163.819 157.52C163.545 157.973 163.409 158.699 163.409 159.699V164.047H172.198V159.699C172.198 158.699 172.061 157.973 171.787 157.52C171.522 157.074 170.979 156.746 170.159 156.535V156.441H176.733V156.535C175.912 156.746 175.37 157.074 175.104 157.52C174.83 157.973 174.694 158.699 174.694 159.699V169.73C174.694 170.73 174.83 171.461 175.104 171.922C175.37 172.375 175.912 172.703 176.733 172.906ZM185.203 166.355H191.016L188.039 158.023L185.203 166.355ZM197.016 172.906V173H190.992V172.906C191.516 172.773 191.891 172.594 192.117 172.367C192.352 172.133 192.465 171.75 192.457 171.219C192.457 170.68 192.07 169.328 191.297 167.164H184.922C184.203 169.336 183.844 170.672 183.844 171.172C183.844 171.688 183.957 172.07 184.184 172.32C184.418 172.562 184.797 172.758 185.32 172.906V173H180.258V172.906C180.734 172.664 181.129 172.363 181.441 172.004C182.035 171.316 182.867 169.496 183.938 166.543L187.629 156.441H189.961L193.535 166.52C194.34 168.816 194.953 170.363 195.375 171.16C195.812 171.988 196.359 172.57 197.016 172.906ZM226.603 172.906V173H200.541V172.906C201.361 172.695 201.904 172.367 202.17 171.922C202.443 171.469 202.58 170.738 202.58 169.73V159.699C202.58 158.699 202.443 157.973 202.17 157.52C201.904 157.074 201.361 156.746 200.541 156.535V156.441H207.115V156.535C206.295 156.746 205.752 157.074 205.486 157.52C205.212 157.973 205.076 158.699 205.076 159.699V169.73C205.076 170.652 205.177 171.281 205.38 171.617C205.576 171.945 205.947 172.109 206.494 172.109H210.912C211.451 172.109 211.822 171.945 212.025 171.617C212.228 171.281 212.33 170.652 212.33 169.73V159.699C212.33 158.699 212.193 157.973 211.92 157.52C211.654 157.074 211.111 156.746 210.291 156.535V156.441H216.865V156.535C216.06 156.746 215.517 157.074 215.236 157.52C214.955 157.973 214.818 158.699 214.826 159.699V169.73C214.818 170.645 214.916 171.273 215.119 171.617C215.322 171.945 215.693 172.109 216.232 172.109H220.65C221.197 172.109 221.572 171.945 221.775 171.617C221.978 171.273 222.076 170.645 222.068 169.73V159.699C222.068 158.699 221.931 157.973 221.658 157.52C221.392 157.074 220.849 156.746 220.029 156.535V156.441H226.603V156.535C225.783 156.746 225.24 157.074 224.974 157.52C224.701 157.973 224.564 158.699 224.564 159.699V169.73C224.564 170.73 224.701 171.461 224.974 171.922C225.24 172.375 225.783 172.703 226.603 172.906ZM242.808 173H231.066V172.906C231.886 172.695 232.429 172.367 232.695 171.922C232.968 171.469 233.105 170.738 233.105 169.73V159.699C233.105 158.699 232.968 157.973 232.695 157.52C232.429 157.074 231.886 156.746 231.066 156.535V156.441H242.105V159.828H242.011C241.402 158.734 240.878 158.023 240.441 157.695C240.003 157.367 239.359 157.203 238.507 157.203H235.601V164.094H238.484C239.085 164.094 239.558 163.988 239.902 163.777C240.245 163.559 240.589 163.176 240.933 162.629H241.027V166.332H240.933C240.581 165.777 240.237 165.395 239.902 165.184C239.573 164.973 239.101 164.867 238.484 164.867H235.601V172.227H239.175C239.98 172.227 240.597 172.059 241.027 171.723C241.448 171.387 242.167 170.555 243.183 169.227H243.277L242.808 173ZM254.278 172.906V173H247.364V172.906C248.184 172.695 248.727 172.367 248.993 171.922C249.266 171.469 249.403 170.738 249.403 169.73V159.699C249.403 158.699 249.266 157.973 248.993 157.52C248.727 157.074 248.184 156.746 247.364 156.535V156.441H258.637V159.828H258.544C257.895 158.656 257.395 157.93 257.044 157.648C256.677 157.352 256.091 157.203 255.286 157.203H251.899V169.73C251.899 170.723 252.063 171.453 252.391 171.922C252.72 172.383 253.348 172.711 254.278 172.906ZM267.448 170.305C268.557 171.906 269.955 172.707 271.643 172.707C273.323 172.707 274.725 171.91 275.85 170.316C276.967 168.707 277.526 166.836 277.526 164.703C277.526 162.562 276.971 160.703 275.862 159.125C274.76 157.547 273.358 156.758 271.655 156.758C269.952 156.758 268.545 157.547 267.436 159.125C266.327 160.703 265.772 162.562 265.772 164.703C265.772 166.828 266.33 168.695 267.448 170.305ZM271.643 156.102C273.12 156.102 274.506 156.484 275.803 157.25C277.108 158.008 278.178 159.027 279.014 160.309C279.881 161.645 280.323 163.133 280.338 164.773C280.338 165.719 280.19 166.629 279.893 167.504C279.596 168.379 279.174 169.168 278.627 169.871C278.088 170.566 277.459 171.18 276.741 171.711C276.03 172.234 275.237 172.641 274.362 172.93C273.487 173.211 272.584 173.355 271.655 173.363C270.092 173.363 268.643 172.98 267.307 172.215C265.971 171.449 264.913 170.406 264.131 169.086C263.35 167.766 262.959 166.328 262.959 164.773C262.959 163.648 263.198 162.551 263.674 161.48C264.151 160.41 264.784 159.484 265.573 158.703C266.362 157.922 267.288 157.293 268.35 156.816C269.42 156.34 270.518 156.102 271.643 156.102ZM308.119 172.707C309.806 172.691 311.205 171.891 312.314 170.305C313.439 168.711 314.002 166.844 314.002 164.703C314.002 162.562 313.447 160.703 312.337 159.125C311.228 157.547 309.822 156.758 308.119 156.758C306.416 156.758 305.009 157.547 303.9 159.125C302.791 160.703 302.236 162.562 302.236 164.703C302.236 166.836 302.795 168.707 303.912 170.316C305.037 171.91 306.439 172.707 308.119 172.707ZM298.802 172.906V173H292.228V172.906C293.048 172.695 293.591 172.367 293.857 171.922C294.13 171.469 294.267 170.738 294.267 169.73V159.699C294.267 158.699 294.13 157.973 293.857 157.52C293.591 157.074 293.048 156.746 292.228 156.535V156.441H298.802V156.535C297.982 156.746 297.439 157.074 297.173 157.52C296.9 157.973 296.763 158.699 296.763 159.699V164.047H299.459C299.654 161.812 300.634 159.93 302.4 158.398C304.166 156.867 306.072 156.102 308.119 156.102C309.252 156.102 310.353 156.34 311.423 156.816C312.494 157.293 313.42 157.926 314.201 158.715C314.99 159.496 315.623 160.422 316.099 161.492C316.576 162.555 316.814 163.648 316.814 164.773C316.814 166.344 316.416 167.789 315.619 169.109C314.83 170.422 313.767 171.457 312.431 172.215C311.103 172.973 309.666 173.355 308.119 173.363C305.869 173.363 303.873 172.566 302.13 170.973C300.388 169.379 299.486 167.367 299.423 164.938H296.763V169.73C296.763 170.73 296.9 171.461 297.173 171.922C297.439 172.375 297.982 172.703 298.802 172.906ZM328.05 172.906V173H321.136V172.906C321.956 172.695 322.499 172.367 322.765 171.922C323.038 171.469 323.175 170.738 323.175 169.73V159.699C323.175 158.699 323.038 157.973 322.765 157.52C322.499 157.074 321.956 156.746 321.136 156.535V156.441H328.507C330.304 156.441 331.648 156.805 332.538 157.531C333.437 158.25 333.882 159.328 333.874 160.766C333.874 162.359 333.347 163.562 332.292 164.375C331.245 165.18 329.909 165.582 328.284 165.582H325.671V169.73C325.671 170.723 325.835 171.453 326.163 171.922C326.491 172.383 327.12 172.711 328.05 172.906ZM325.671 157.203V164.82H327.874C328.632 164.82 329.28 164.637 329.82 164.27C330.359 163.902 330.753 163.426 331.003 162.84C331.253 162.254 331.378 161.594 331.378 160.859C331.378 159.859 331.109 159 330.57 158.281C330.023 157.578 329.191 157.219 328.073 157.203H325.671ZM356.348 172.906V173H349.774V172.906C350.595 172.695 351.138 172.367 351.403 171.922C351.677 171.469 351.813 170.738 351.813 169.73V159.605L342.837 171.102C342.923 171.664 343.118 172.066 343.423 172.309C343.727 172.543 344.196 172.742 344.829 172.906V173H338.255V172.906C339.075 172.695 339.618 172.367 339.884 171.922C340.157 171.469 340.294 170.738 340.294 169.73V159.699C340.294 158.699 340.157 157.973 339.884 157.52C339.618 157.074 339.075 156.746 338.255 156.535V156.441H344.829V156.535C344.009 156.746 343.466 157.074 343.2 157.52C342.927 157.973 342.79 158.699 342.79 159.699V169.684L351.72 158.234C351.618 157.719 351.415 157.348 351.11 157.121C350.805 156.895 350.36 156.699 349.774 156.535V156.441H356.348V156.535C355.528 156.746 354.985 157.074 354.72 157.52C354.446 157.973 354.309 158.699 354.309 159.699V169.73C354.309 170.73 354.446 171.461 354.72 171.922C354.985 172.375 355.528 172.703 356.348 172.906ZM370.268 173.363C367.674 173.363 365.487 172.578 363.705 171.008C361.924 169.438 361.03 167.43 361.022 164.984C361.022 163.25 361.495 161.695 362.44 160.32C363.354 159 364.506 157.969 365.897 157.227C367.288 156.477 368.776 156.102 370.362 156.102C371.065 156.102 371.877 156.191 372.799 156.371C373.729 156.551 374.502 156.773 375.12 157.039V160.285H375.014C373.913 157.934 372.276 156.758 370.104 156.758C368.346 156.758 366.862 157.516 365.651 159.031C364.44 160.547 363.834 162.445 363.834 164.727C363.834 166.992 364.479 168.891 365.768 170.422C367.057 171.953 368.604 172.715 370.409 172.707C372.729 172.707 374.444 171.461 375.553 168.969H375.647L375.354 172.355C374.823 172.637 374.084 172.875 373.139 173.07C372.131 173.273 371.174 173.371 370.268 173.363ZM390.352 172.906V173H383.777V172.906C384.598 172.695 385.141 172.367 385.406 171.922C385.68 171.469 385.816 170.738 385.816 169.73V157.203H383.086C382.633 157.203 382.148 157.539 381.633 158.211C381.609 158.242 381.559 158.309 381.48 158.41C381.41 158.512 381.332 158.621 381.246 158.738C381.16 158.848 381.074 158.965 380.988 159.09C380.723 159.465 380.445 159.828 380.156 160.18H380.062L380.543 156.441H393.598L394.078 160.18H393.984C393.781 159.938 393.441 159.488 392.965 158.832C392.527 158.23 392.188 157.816 391.945 157.59C391.703 157.348 391.406 157.219 391.055 157.203H388.312V169.73C388.312 170.73 388.449 171.461 388.723 171.922C388.988 172.375 389.531 172.703 390.352 172.906ZM400.252 166.355H406.064L403.087 158.023L400.252 166.355ZM412.064 172.906V173H406.041V172.906C406.564 172.773 406.939 172.594 407.166 172.367C407.4 172.133 407.513 171.75 407.505 171.219C407.505 170.68 407.119 169.328 406.345 167.164H399.97C399.252 169.336 398.892 170.672 398.892 171.172C398.892 171.688 399.005 172.07 399.232 172.32C399.466 172.562 399.845 172.758 400.369 172.906V173H395.306V172.906C395.783 172.664 396.177 172.363 396.49 172.004C397.084 171.316 397.916 169.496 398.986 166.543L402.677 156.441H405.009L408.584 166.52C409.388 168.816 410.002 170.363 410.423 171.16C410.861 171.988 411.408 172.57 412.064 172.906Z" fill="#5A5A5A"/>
<defs>
<filter id="filter0_i_2050_28" x="193" y="-28" width="184" height="119.774" filterUnits="userSpaceOnUse" color-interpolation-filters="sRGB">
<feFlood flood-opacity="0" result="BackgroundImageFix"/>
<feBlend mode="normal" in="SourceGraphic" in2="BackgroundImageFix" result="shape"/>
<feColorMatrix in="SourceAlpha" type="matrix" values="0 0 0 0 0 0 0 0 0 0 0 0 0 0 0 0 0 0 127 0" result="hardAlpha"/>
<feOffset/>
<feGaussianBlur stdDeviation="23.5"/>
<feComposite in2="hardAlpha" operator="arithmetic" k2="-1" k3="1"/>
<feColorMatrix type="matrix" values="0 0 0 0 1 0 0 0 0 1 0 0 0 0 1 0 0 0 0.65 0"/>
<feBlend mode="normal" in2="shape" result="effect1_innerShadow_2050_28"/>
</filter>
</defs>
</svg>
