<svg width="183" height="182" viewBox="0 0 183 182" fill="none" xmlns="http://www.w3.org/2000/svg">
<mask id="path-1-inside-1_2022_40" fill="white">
<path d="M56.975 122.5V123H17.5375V122.5C22.2042 121.083 25.2458 119.167 26.6625 116.75C28.1208 114.333 28.85 110.521 28.85 105.312V52.75C24.5167 54.4167 18.9958 55.8958 12.2875 57.1875L11.9125 55.9375C17.5375 54.2708 23.5167 51.2708 29.85 46.9375C36.225 42.6042 41.7667 38 46.475 33.125H46.975V105.312C46.975 110.271 47.6 114 48.85 116.5C50.1 118.958 52.8083 120.958 56.975 122.5ZM109.4 106.562C111.442 108.562 112.463 111.062 112.463 114.062C112.463 117.062 111.442 119.562 109.4 121.562C107.358 123.521 104.838 124.5 101.838 124.5C98.8375 124.5 96.3167 123.5 94.275 121.5C92.2333 119.5 91.2125 117 91.2125 114C91.2125 111.042 92.2333 108.562 94.275 106.562C96.3583 104.562 98.8792 103.562 101.838 103.562C104.838 103.562 107.358 104.562 109.4 106.562Z"/>
</mask>
<g filter="url(#filter0_i_2022_40)">
<path d="M56.975 122.5V123H17.5375V122.5C22.2042 121.083 25.2458 119.167 26.6625 116.75C28.1208 114.333 28.85 110.521 28.85 105.312V52.75C24.5167 54.4167 18.9958 55.8958 12.2875 57.1875L11.9125 55.9375C17.5375 54.2708 23.5167 51.2708 29.85 46.9375C36.225 42.6042 41.7667 38 46.475 33.125H46.975V105.312C46.975 110.271 47.6 114 48.85 116.5C50.1 118.958 52.8083 120.958 56.975 122.5ZM109.4 106.562C111.442 108.562 112.463 111.062 112.463 114.062C112.463 117.062 111.442 119.562 109.4 121.562C107.358 123.521 104.838 124.5 101.838 124.5C98.8375 124.5 96.3167 123.5 94.275 121.5C92.2333 119.5 91.2125 117 91.2125 114C91.2125 111.042 92.2333 108.562 94.275 106.562C96.3583 104.562 98.8792 103.562 101.838 103.562C104.838 103.562 107.358 104.562 109.4 106.562Z" fill="#44C9AD"/>
</g>
<path d="M56.975 122.5H57.975V121.804L57.322 121.562L56.975 122.5ZM56.975 123V124H57.975V123H56.975ZM17.5375 123H16.5375V124H17.5375V123ZM17.5375 122.5L17.247 121.543L16.5375 121.759V122.5H17.5375ZM26.6625 116.75L25.8062 116.233L25.7998 116.244L26.6625 116.75ZM28.85 52.75H29.85V51.294L28.491 51.8167L28.85 52.75ZM12.2875 57.1875L11.3297 57.4748L11.5893 58.3403L12.4766 58.1695L12.2875 57.1875ZM11.9125 55.9375L11.6284 54.9787L10.6663 55.2638L10.9547 56.2248L11.9125 55.9375ZM29.85 46.9375L29.2878 46.1105L29.2853 46.1122L29.85 46.9375ZM46.475 33.125V32.125H46.0506L45.7557 32.4303L46.475 33.125ZM46.975 33.125H47.975V32.125H46.975V33.125ZM48.85 116.5L47.9556 116.947L47.9586 116.953L48.85 116.5ZM56.975 122.5H55.975V123H56.975H57.975V122.5H56.975ZM56.975 123V122H17.5375V123V124H56.975V123ZM17.5375 123H18.5375V122.5H17.5375H16.5375V123H17.5375ZM17.5375 122.5L17.828 123.457C22.5718 122.017 25.9154 120.002 27.5252 117.256L26.6625 116.75L25.7998 116.244C24.5762 118.332 21.8365 120.15 17.247 121.543L17.5375 122.5ZM26.6625 116.75L27.5187 117.267C29.1213 114.611 29.85 110.572 29.85 105.312H28.85H27.85C27.85 110.47 27.1204 114.056 25.8063 116.233L26.6625 116.75ZM28.85 105.312H29.85V52.75H28.85H27.85V105.312H28.85ZM28.85 52.75L28.491 51.8167C24.2319 53.4548 18.7732 54.9203 12.0984 56.2055L12.2875 57.1875L12.4766 58.1695C19.2185 56.8713 24.8014 55.3786 29.209 53.6833L28.85 52.75ZM12.2875 57.1875L13.2453 56.9002L12.8703 55.6502L11.9125 55.9375L10.9547 56.2248L11.3297 57.4748L12.2875 57.1875ZM11.9125 55.9375L12.1966 56.8963C17.9468 55.1925 24.0203 52.1379 30.4147 47.7628L29.85 46.9375L29.2853 46.1122C23.0131 50.4037 17.1281 53.3492 11.6284 54.9787L11.9125 55.9375ZM29.85 46.9375L30.4122 47.7645C36.8363 43.3978 42.4323 38.7503 47.1943 33.8197L46.475 33.125L45.7557 32.4303C41.101 37.2497 35.6136 41.8106 29.2878 46.1105L29.85 46.9375ZM46.475 33.125V34.125H46.975V33.125V32.125H46.475V33.125ZM46.975 33.125H45.975V105.312H46.975H47.975V33.125H46.975ZM46.975 105.312H45.975C45.975 110.323 46.6015 114.239 47.9556 116.947L48.85 116.5L49.7444 116.053C48.5985 113.761 47.975 110.218 47.975 105.312H46.975ZM48.85 116.5L47.9586 116.953C49.3749 119.739 52.3621 121.859 56.628 123.438L56.975 122.5L57.322 121.562C53.2546 120.057 50.8251 118.178 49.7414 116.047L48.85 116.5ZM109.4 121.562L110.092 122.284L110.1 122.277L109.4 121.562ZM94.275 106.562L93.5824 105.841L93.5752 105.848L94.275 106.562ZM109.4 106.562L108.7 107.277C110.539 109.079 111.463 111.316 111.463 114.062H112.463H113.463C113.463 110.809 112.344 108.046 110.1 105.848L109.4 106.562ZM112.463 114.062H111.463C111.463 116.809 110.539 119.046 108.7 120.848L109.4 121.562L110.1 122.277C112.344 120.079 113.463 117.316 113.463 114.062H112.463ZM109.4 121.562L108.708 120.841C106.864 122.609 104.597 123.5 101.838 123.5V124.5V125.5C105.078 125.5 107.852 124.433 110.092 122.284L109.4 121.562ZM101.838 124.5V123.5C99.0847 123.5 96.8195 122.593 94.9748 120.786L94.275 121.5L93.5752 122.214C95.8139 124.407 98.5903 125.5 101.838 125.5V124.5ZM94.275 121.5L94.9748 120.786C93.1355 118.984 92.2125 116.746 92.2125 114H91.2125H90.2125C90.2125 117.254 91.3311 120.016 93.5752 122.214L94.275 121.5ZM91.2125 114H92.2125C92.2125 111.3 93.1326 109.081 94.9748 107.277L94.275 106.562L93.5752 105.848C91.3341 108.044 90.2125 110.783 90.2125 114H91.2125ZM94.275 106.562L94.9675 107.284C96.8596 105.467 99.1303 104.562 101.838 104.562V103.562V102.562C98.628 102.562 95.857 103.658 93.5825 105.841L94.275 106.562ZM101.838 103.562V104.562C104.59 104.562 106.856 105.47 108.7 107.277L109.4 106.562L110.1 105.848C107.861 103.655 105.085 102.562 101.838 102.562V103.562Z" fill="#E3E3E3" mask="url(#path-1-inside-1_2022_40)"/>
<path d="M27.0938 170.906V171H1.03125V170.906C1.85156 170.695 2.39453 170.367 2.66016 169.922C2.93359 169.469 3.07031 168.738 3.07031 167.73V157.699C3.07031 156.699 2.93359 155.973 2.66016 155.52C2.39453 155.074 1.85156 154.746 1.03125 154.535V154.441H7.60547V154.535C6.78516 154.746 6.24219 155.074 5.97656 155.52C5.70312 155.973 5.56641 156.699 5.56641 157.699V167.73C5.56641 168.652 5.66797 169.281 5.87109 169.617C6.06641 169.945 6.4375 170.109 6.98438 170.109H11.4023C11.9414 170.109 12.3125 169.945 12.5156 169.617C12.7188 169.281 12.8203 168.652 12.8203 167.73V157.699C12.8203 156.699 12.6836 155.973 12.4102 155.52C12.1445 155.074 11.6016 154.746 10.7812 154.535V154.441H17.3555V154.535C16.5508 154.746 16.0078 155.074 15.7266 155.52C15.4453 155.973 15.3086 156.699 15.3164 157.699V167.73C15.3086 168.645 15.4062 169.273 15.6094 169.617C15.8125 169.945 16.1836 170.109 16.7227 170.109H21.1406C21.6875 170.109 22.0625 169.945 22.2656 169.617C22.4688 169.273 22.5664 168.645 22.5586 167.73V157.699C22.5586 156.699 22.4219 155.973 22.1484 155.52C21.8828 155.074 21.3398 154.746 20.5195 154.535V154.441H27.0938V154.535C26.2734 154.746 25.7305 155.074 25.4648 155.52C25.1914 155.973 25.0547 156.699 25.0547 157.699V167.73C25.0547 168.73 25.1914 169.461 25.4648 169.922C25.7305 170.375 26.2734 170.703 27.0938 170.906ZM35.5641 164.355H41.3766L38.4 156.023L35.5641 164.355ZM47.3766 170.906V171H41.3531V170.906C41.8766 170.773 42.2516 170.594 42.4781 170.367C42.7125 170.133 42.8258 169.75 42.818 169.219C42.818 168.68 42.4312 167.328 41.6578 165.164H35.2828C34.5641 167.336 34.2047 168.672 34.2047 169.172C34.2047 169.688 34.318 170.07 34.5445 170.32C34.7789 170.562 35.1578 170.758 35.6812 170.906V171H30.6187V170.906C31.0953 170.664 31.4898 170.363 31.8023 170.004C32.3961 169.316 33.2281 167.496 34.2984 164.543L37.9898 154.441H40.3219L43.8961 164.52C44.7008 166.816 45.3141 168.363 45.7359 169.16C46.1734 169.988 46.7203 170.57 47.3766 170.906ZM57.675 170.906V171H50.7609V170.906C51.5812 170.695 52.1242 170.367 52.3898 169.922C52.6633 169.469 52.8 168.738 52.8 167.73V157.699C52.8 156.699 52.6633 155.973 52.3898 155.52C52.1242 155.074 51.5812 154.746 50.7609 154.535V154.441H62.0344V157.828H61.9406C61.2922 156.656 60.7922 155.93 60.4406 155.648C60.0734 155.352 59.4875 155.203 58.6828 155.203H55.2961V167.73C55.2961 168.723 55.4602 169.453 55.7883 169.922C56.1164 170.383 56.7453 170.711 57.675 170.906ZM83.4633 170.906V171H76.5375V170.906C77.5453 170.703 78.2172 170.383 78.5531 169.945C78.8891 169.508 79.057 168.77 79.057 167.73V157.488C78.5336 157.73 77.4984 158.113 75.9516 158.637L75.8812 158.227C77.8969 157.508 79.7133 156.148 81.3305 154.148H81.4242V167.73C81.4242 168.73 81.5609 169.461 81.8344 169.922C82.1 170.375 82.643 170.703 83.4633 170.906Z" fill="#44C9AD"/>
<g clip-path="url(#clip0_2022_40)">
<path d="M166.119 93.2496C162.96 93.2496 159.801 93.2496 156.633 93.2496L155.261 85.9209H145.739L144.367 93.2496C143.358 93.2496 135.761 93.2496 134.881 93.2496C133.83 93.2496 132.977 94.0896 132.977 95.1246C132.977 96.1596 133.83 96.9996 134.881 96.9996H166.119C167.17 96.9996 168.023 96.1596 168.023 95.1246C168.023 94.0896 167.17 93.2496 166.119 93.2496Z" fill="#44C9AD"/>
<path d="M179.191 33H121.809C119.709 33 118 34.6825 118 36.75V78.4212C118 80.4888 119.709 82.1712 121.809 82.1712H143.029H157.971H179.191C181.291 82.1712 183 80.4888 183 78.4212V36.75C183 34.6825 181.291 33 179.191 33ZM132.002 52.9062L136.152 44.1388C136.392 43.5479 137.126 43.0562 137.878 43.0562H148.757V39.6175C148.757 38.5812 149.609 37.7425 150.661 37.7425C151.712 37.7425 152.566 38.5812 152.566 39.6175V43.0562H163.444C164.219 43.0562 164.864 43.5146 165.161 44.1187C165.163 44.1207 169.028 52.2886 169.029 52.2913C170.934 56.3121 167.947 60.9212 163.444 60.9212C158.938 60.9212 155.956 56.3089 157.859 52.2913L160.456 46.8062H152.566V65.265H157.281C158.333 65.265 159.185 66.105 159.185 67.14C159.185 68.175 158.333 69.015 157.281 69.015H143.719C142.667 69.015 141.815 68.175 141.815 67.14C141.815 66.105 142.667 65.265 143.719 65.265H148.757V46.8062H140.867L143.754 52.9062C145.762 57.15 142.606 61.9875 137.878 61.9875C133.135 61.9875 130 57.1356 132.002 52.9062ZM168.166 77.4287H132.834C131.782 77.4287 130.93 76.5887 130.93 75.5537C130.93 74.5187 131.782 73.6787 132.834 73.6787H168.166C169.218 73.6787 170.07 74.5187 170.07 75.5537C170.07 76.5887 169.218 77.4287 168.166 77.4287Z" fill="#44C9AD"/>
<path d="M137.878 58.2376C139.843 58.2376 141.129 56.2335 140.302 54.4914L137.878 49.3701L135.454 54.4914C134.628 56.2352 135.911 58.2376 137.878 58.2376Z" fill="#44C9AD"/>
<path d="M163.444 57.1714C165.167 57.1714 166.306 55.4166 165.577 53.8751L163.444 49.3701L161.311 53.8751C160.581 55.4192 161.724 57.1714 163.444 57.1714Z" fill="#44C9AD"/>
</g>
<defs>
<filter id="filter0_i_2022_40" x="11.9125" y="33.125" width="100.55" height="91.375" filterUnits="userSpaceOnUse" color-interpolation-filters="sRGB">
<feFlood flood-opacity="0" result="BackgroundImageFix"/>
<feBlend mode="normal" in="SourceGraphic" in2="BackgroundImageFix" result="shape"/>
<feColorMatrix in="SourceAlpha" type="matrix" values="0 0 0 0 0 0 0 0 0 0 0 0 0 0 0 0 0 0 127 0" result="hardAlpha"/>
<feOffset/>
<feGaussianBlur stdDeviation="23.5"/>
<feComposite in2="hardAlpha" operator="arithmetic" k2="-1" k3="1"/>
<feColorMatrix type="matrix" values="0 0 0 0 1 0 0 0 0 1 0 0 0 0 1 0 0 0 0.35 0"/>
<feBlend mode="normal" in2="shape" result="effect1_innerShadow_2022_40"/>
</filter>
<clipPath id="clip0_2022_40">
<rect width="65" height="64" fill="white" transform="translate(118 33)"/>
</clipPath>
</defs>
</svg>
