<svg width="182" height="182" viewBox="0 0 182 182" fill="none" xmlns="http://www.w3.org/2000/svg">
<mask id="path-1-inside-1_2001_5" fill="white">
<path d="M63.2875 123H6.2875V119.688L33.0375 86.75C41.4958 76.4167 45.725 66.5208 45.725 57.0625C45.725 52.3542 44.0583 48.2083 40.725 44.625C37.3917 41 33.3917 39.1875 28.725 39.1875C25.9333 39.2708 23.1625 39.8125 20.4125 40.8125C17.7042 41.8125 15.5583 43.2708 13.975 45.1875H14.975C18.3917 45.1875 21.35 46.2083 23.85 48.25C26.3917 50.25 27.6625 52.9167 27.6625 56.25C27.6625 59.3333 26.6833 61.8958 24.725 63.9375C22.7667 65.9375 20.2458 66.9375 17.1625 66.9375C13.8708 66.9375 11.2042 65.7708 9.1625 63.4375C7.1625 61.0625 6.1625 58.2083 6.1625 54.875C6.1625 49.5833 9.07917 44.5833 14.9125 39.875C20.7042 35.2083 27.725 32.875 35.975 32.875C39.5583 32.875 43.0167 33.3542 46.35 34.3125C49.6833 35.2292 52.725 36.5833 55.475 38.375C58.225 40.1667 60.4125 42.5625 62.0375 45.5625C63.7042 48.5625 64.5375 51.9375 64.5375 55.6875C64.5375 59.2708 63.4125 62.8958 61.1625 66.5625C58.9125 70.1875 56.1625 73.4167 52.9125 76.25C41.4958 86.25 33.8083 93.6458 29.85 98.4375L21.9125 107.875H65.0375L63.2875 123ZM109.4 106.562C111.442 108.562 112.463 111.062 112.463 114.062C112.463 117.062 111.442 119.562 109.4 121.562C107.358 123.521 104.838 124.5 101.838 124.5C98.8375 124.5 96.3167 123.5 94.275 121.5C92.2333 119.5 91.2125 117 91.2125 114C91.2125 111.042 92.2333 108.562 94.275 106.562C96.3583 104.562 98.8792 103.562 101.838 103.562C104.838 103.562 107.358 104.562 109.4 106.562Z"/>
</mask>
<g filter="url(#filter0_i_2001_5)">
<path d="M63.2875 123H6.2875V119.688L33.0375 86.75C41.4958 76.4167 45.725 66.5208 45.725 57.0625C45.725 52.3542 44.0583 48.2083 40.725 44.625C37.3917 41 33.3917 39.1875 28.725 39.1875C25.9333 39.2708 23.1625 39.8125 20.4125 40.8125C17.7042 41.8125 15.5583 43.2708 13.975 45.1875H14.975C18.3917 45.1875 21.35 46.2083 23.85 48.25C26.3917 50.25 27.6625 52.9167 27.6625 56.25C27.6625 59.3333 26.6833 61.8958 24.725 63.9375C22.7667 65.9375 20.2458 66.9375 17.1625 66.9375C13.8708 66.9375 11.2042 65.7708 9.1625 63.4375C7.1625 61.0625 6.1625 58.2083 6.1625 54.875C6.1625 49.5833 9.07917 44.5833 14.9125 39.875C20.7042 35.2083 27.725 32.875 35.975 32.875C39.5583 32.875 43.0167 33.3542 46.35 34.3125C49.6833 35.2292 52.725 36.5833 55.475 38.375C58.225 40.1667 60.4125 42.5625 62.0375 45.5625C63.7042 48.5625 64.5375 51.9375 64.5375 55.6875C64.5375 59.2708 63.4125 62.8958 61.1625 66.5625C58.9125 70.1875 56.1625 73.4167 52.9125 76.25C41.4958 86.25 33.8083 93.6458 29.85 98.4375L21.9125 107.875H65.0375L63.2875 123ZM109.4 106.562C111.442 108.562 112.463 111.062 112.463 114.062C112.463 117.062 111.442 119.562 109.4 121.562C107.358 123.521 104.838 124.5 101.838 124.5C98.8375 124.5 96.3167 123.5 94.275 121.5C92.2333 119.5 91.2125 117 91.2125 114C91.2125 111.042 92.2333 108.562 94.275 106.562C96.3583 104.562 98.8792 103.562 101.838 103.562C104.838 103.562 107.358 104.562 109.4 106.562Z" fill="#44C9AD"/>
</g>
<path d="M63.2875 123V124H64.1785L64.2809 123.115L63.2875 123ZM6.2875 123H5.2875V124H6.2875V123ZM6.2875 119.688L5.51125 119.057L5.2875 119.333V119.688H6.2875ZM33.0375 86.75L32.2637 86.1166L32.2612 86.1196L33.0375 86.75ZM40.725 44.625L39.9889 45.3019L39.9928 45.3061L40.725 44.625ZM28.725 39.1875V38.1875H28.7101L28.6952 38.1879L28.725 39.1875ZM20.4125 40.8125L20.0708 39.8727L20.0661 39.8744L20.4125 40.8125ZM13.975 45.1875L13.204 44.5506L11.8518 46.1875H13.975V45.1875ZM23.85 48.25L23.2175 49.0245L23.2245 49.0303L23.2316 49.0359L23.85 48.25ZM24.725 63.9375L25.4395 64.6372L25.4467 64.6297L24.725 63.9375ZM9.1625 63.4375L8.39759 64.0816L8.40369 64.0889L8.40992 64.096L9.1625 63.4375ZM14.9125 39.875L14.2851 39.0963L14.2844 39.0969L14.9125 39.875ZM46.35 34.3125L46.0737 35.2736L46.0848 35.2767L46.35 34.3125ZM62.0375 45.5625L61.1582 46.0388L61.1633 46.0481L62.0375 45.5625ZM61.1625 66.5625L62.0121 67.0899L62.0148 67.0855L61.1625 66.5625ZM52.9125 76.25L52.2554 75.4962L52.2536 75.4978L52.9125 76.25ZM29.85 98.4375L30.6153 99.0812L30.621 99.0744L29.85 98.4375ZM21.9125 107.875L21.1472 107.231L19.7648 108.875H21.9125V107.875ZM65.0375 107.875L66.0309 107.99L66.1599 106.875H65.0375V107.875ZM63.2875 123V122H6.2875V123V124H63.2875V123ZM6.2875 123H7.2875V119.688H6.2875H5.2875V123H6.2875ZM6.2875 119.688L7.06375 120.318L33.8137 87.3804L33.0375 86.75L32.2612 86.1196L5.51125 119.057L6.2875 119.688ZM33.0375 86.75L33.8113 87.3834C42.3567 76.9438 46.725 66.8306 46.725 57.0625H45.725H44.725C44.725 66.2111 40.635 75.8896 32.2637 86.1166L33.0375 86.75ZM45.725 57.0625H46.725C46.725 52.0907 44.9552 47.7042 41.4572 43.9439L40.725 44.625L39.9928 45.3061C43.1615 48.7125 44.725 52.6177 44.725 57.0625H45.725ZM40.725 44.625L41.4611 43.9481C37.9502 40.13 33.6884 38.1875 28.725 38.1875V39.1875V40.1875C33.0949 40.1875 36.8331 41.87 39.9889 45.3019L40.725 44.625ZM28.725 39.1875L28.6952 38.1879C25.792 38.2746 22.9161 38.838 20.0708 39.8727L20.4125 40.8125L20.7542 41.7523C23.4089 40.787 26.0747 40.2671 28.7548 40.1871L28.725 39.1875ZM20.4125 40.8125L20.0661 39.8744C17.2192 40.9256 14.9169 42.4772 13.204 44.5506L13.975 45.1875L14.746 45.8244C16.1998 44.0645 18.1891 42.6994 20.7589 41.7506L20.4125 40.8125ZM13.975 45.1875V46.1875H14.975V45.1875V44.1875H13.975V45.1875ZM14.975 45.1875V46.1875C18.1757 46.1875 20.907 47.1376 23.2175 49.0245L23.85 48.25L24.4825 47.4755C21.793 45.279 18.6076 44.1875 14.975 44.1875V45.1875ZM23.85 48.25L23.2316 49.0359C25.5238 50.8396 26.6625 53.2123 26.6625 56.25H27.6625H28.6625C28.6625 52.621 27.2595 49.6604 24.4684 47.4641L23.85 48.25ZM27.6625 56.25H26.6625C26.6625 59.1007 25.7662 61.4074 24.0033 63.2453L24.725 63.9375L25.4467 64.6297C27.6004 62.3843 28.6625 59.566 28.6625 56.25H27.6625ZM24.725 63.9375L24.0105 63.2379C22.2603 65.0253 20.007 65.9375 17.1625 65.9375V66.9375V67.9375C20.4846 67.9375 23.273 66.8497 25.4395 64.6371L24.725 63.9375ZM17.1625 66.9375V65.9375C14.139 65.9375 11.754 64.8806 9.91508 62.779L9.1625 63.4375L8.40992 64.096C10.6544 66.6611 13.6026 67.9375 17.1625 67.9375V66.9375ZM9.1625 63.4375L9.92741 62.7934C8.09086 60.6125 7.1625 57.9913 7.1625 54.875H6.1625H5.1625C5.1625 58.4253 6.23413 61.5125 8.39759 64.0816L9.1625 63.4375ZM6.1625 54.875H7.1625C7.1625 49.9965 9.83988 45.2544 15.5406 40.6531L14.9125 39.875L14.2844 39.0969C8.31845 43.9122 5.1625 49.1702 5.1625 54.875H6.1625ZM14.9125 39.875L15.5399 40.6537C21.1343 36.146 27.9268 33.875 35.975 33.875V32.875V31.875C27.5232 31.875 20.2741 34.2707 14.2851 39.0963L14.9125 39.875ZM35.975 32.875V33.875C39.468 33.875 42.8331 34.3419 46.0737 35.2736L46.35 34.3125L46.6263 33.3514C43.2002 32.3664 39.6487 31.875 35.975 31.875V32.875ZM46.35 34.3125L46.0848 35.2767C49.324 36.1675 52.2701 37.4805 54.9291 39.2129L55.475 38.375L56.0209 37.5371C53.1799 35.6862 50.0427 34.2909 46.6152 33.3483L46.35 34.3125ZM55.475 38.375L54.9291 39.2129C57.534 40.91 59.6093 43.1792 61.1582 46.0388L62.0375 45.5625L62.9168 45.0862C61.2157 41.9458 58.916 39.4233 56.0209 37.5371L55.475 38.375ZM62.0375 45.5625L61.1633 46.0481C62.74 48.8861 63.5375 52.0913 63.5375 55.6875H64.5375H65.5375C65.5375 51.7837 64.6684 48.2389 62.9117 45.0769L62.0375 45.5625ZM64.5375 55.6875H63.5375C63.5375 59.0522 62.4831 62.4984 60.3102 66.0395L61.1625 66.5625L62.0148 67.0855C64.3419 63.2932 65.5375 59.4895 65.5375 55.6875H64.5375ZM61.1625 66.5625L60.3129 66.0351C58.116 69.5746 55.4311 72.7277 52.2554 75.4962L52.9125 76.25L53.5696 77.0038C56.8939 74.1057 59.709 70.8004 62.0121 67.0899L61.1625 66.5625ZM52.9125 76.25L52.2536 75.4978C40.8377 85.4971 33.0943 92.94 29.079 97.8006L29.85 98.4375L30.621 99.0744C34.5223 94.3517 42.154 87.0029 53.5714 77.0022L52.9125 76.25ZM29.85 98.4375L29.0847 97.7938L21.1472 107.231L21.9125 107.875L22.6778 108.519L30.6153 99.0812L29.85 98.4375ZM21.9125 107.875V108.875H65.0375V107.875V106.875H21.9125V107.875ZM65.0375 107.875L64.0441 107.76L62.2941 122.885L63.2875 123L64.2809 123.115L66.0309 107.99L65.0375 107.875ZM109.4 121.562L110.092 122.284L110.1 122.277L109.4 121.562ZM94.275 106.562L93.5824 105.841L93.5752 105.848L94.275 106.562ZM109.4 106.562L108.7 107.277C110.539 109.079 111.463 111.316 111.463 114.062H112.463H113.463C113.463 110.809 112.344 108.046 110.1 105.848L109.4 106.562ZM112.463 114.062H111.463C111.463 116.809 110.539 119.046 108.7 120.848L109.4 121.562L110.1 122.277C112.344 120.079 113.463 117.316 113.463 114.062H112.463ZM109.4 121.562L108.708 120.841C106.864 122.609 104.597 123.5 101.838 123.5V124.5V125.5C105.078 125.5 107.852 124.433 110.092 122.284L109.4 121.562ZM101.838 124.5V123.5C99.0847 123.5 96.8195 122.593 94.9748 120.786L94.275 121.5L93.5752 122.214C95.8139 124.407 98.5903 125.5 101.838 125.5V124.5ZM94.275 121.5L94.9748 120.786C93.1355 118.984 92.2125 116.746 92.2125 114H91.2125H90.2125C90.2125 117.254 91.3311 120.016 93.5752 122.214L94.275 121.5ZM91.2125 114H92.2125C92.2125 111.3 93.1326 109.081 94.9748 107.277L94.275 106.562L93.5752 105.848C91.3341 108.044 90.2125 110.783 90.2125 114H91.2125ZM94.275 106.562L94.9675 107.284C96.8596 105.467 99.1303 104.562 101.838 104.562V103.562V102.562C98.628 102.562 95.857 103.658 93.5825 105.841L94.275 106.562ZM101.838 103.562V104.562C104.59 104.562 106.856 105.47 108.7 107.277L109.4 106.562L110.1 105.848C107.861 103.655 105.085 102.562 101.838 102.562V103.562Z" fill="#E3E3E3" mask="url(#path-1-inside-1_2001_5)"/>
<path d="M27.0938 170.906V171H1.03125V170.906C1.85156 170.695 2.39453 170.367 2.66016 169.922C2.93359 169.469 3.07031 168.738 3.07031 167.73V157.699C3.07031 156.699 2.93359 155.973 2.66016 155.52C2.39453 155.074 1.85156 154.746 1.03125 154.535V154.441H7.60547V154.535C6.78516 154.746 6.24219 155.074 5.97656 155.52C5.70312 155.973 5.56641 156.699 5.56641 157.699V167.73C5.56641 168.652 5.66797 169.281 5.87109 169.617C6.06641 169.945 6.4375 170.109 6.98438 170.109H11.4023C11.9414 170.109 12.3125 169.945 12.5156 169.617C12.7188 169.281 12.8203 168.652 12.8203 167.73V157.699C12.8203 156.699 12.6836 155.973 12.4102 155.52C12.1445 155.074 11.6016 154.746 10.7812 154.535V154.441H17.3555V154.535C16.5508 154.746 16.0078 155.074 15.7266 155.52C15.4453 155.973 15.3086 156.699 15.3164 157.699V167.73C15.3086 168.645 15.4062 169.273 15.6094 169.617C15.8125 169.945 16.1836 170.109 16.7227 170.109H21.1406C21.6875 170.109 22.0625 169.945 22.2656 169.617C22.4688 169.273 22.5664 168.645 22.5586 167.73V157.699C22.5586 156.699 22.4219 155.973 22.1484 155.52C21.8828 155.074 21.3398 154.746 20.5195 154.535V154.441H27.0938V154.535C26.2734 154.746 25.7305 155.074 25.4648 155.52C25.1914 155.973 25.0547 156.699 25.0547 157.699V167.73C25.0547 168.73 25.1914 169.461 25.4648 169.922C25.7305 170.375 26.2734 170.703 27.0938 170.906ZM35.5641 164.355H41.3766L38.4 156.023L35.5641 164.355ZM47.3766 170.906V171H41.3531V170.906C41.8766 170.773 42.2516 170.594 42.4781 170.367C42.7125 170.133 42.8258 169.75 42.818 169.219C42.818 168.68 42.4312 167.328 41.6578 165.164H35.2828C34.5641 167.336 34.2047 168.672 34.2047 169.172C34.2047 169.688 34.318 170.07 34.5445 170.32C34.7789 170.562 35.1578 170.758 35.6812 170.906V171H30.6187V170.906C31.0953 170.664 31.4898 170.363 31.8023 170.004C32.3961 169.316 33.2281 167.496 34.2984 164.543L37.9898 154.441H40.3219L43.8961 164.52C44.7008 166.816 45.3141 168.363 45.7359 169.16C46.1734 169.988 46.7203 170.57 47.3766 170.906ZM57.675 170.906V171H50.7609V170.906C51.5812 170.695 52.1242 170.367 52.3898 169.922C52.6633 169.469 52.8 168.738 52.8 167.73V157.699C52.8 156.699 52.6633 155.973 52.3898 155.52C52.1242 155.074 51.5812 154.746 50.7609 154.535V154.441H62.0344V157.828H61.9406C61.2922 156.656 60.7922 155.93 60.4406 155.648C60.0734 155.352 59.4875 155.203 58.6828 155.203H55.2961V167.73C55.2961 168.723 55.4602 169.453 55.7883 169.922C56.1164 170.383 56.7453 170.711 57.675 170.906ZM84.4945 169.031V171H74.4164V170.379L79.1977 164.496C81.018 162.254 81.9281 160.309 81.9281 158.66C81.9281 157.598 81.5961 156.754 80.932 156.129C80.268 155.496 79.3969 155.18 78.3187 155.18C77.2016 155.18 76.2133 155.645 75.3539 156.574C75.5805 156.543 75.7641 156.527 75.9047 156.527C76.4047 156.527 76.8305 156.672 77.182 156.961C77.5336 157.242 77.7094 157.629 77.7094 158.121C77.7094 158.582 77.557 158.969 77.2523 159.281C76.9477 159.594 76.5648 159.75 76.1039 159.75C75.6195 159.75 75.2133 159.574 74.8852 159.223C74.557 158.871 74.393 158.453 74.393 157.969C74.393 157.078 74.8812 156.211 75.8578 155.367C76.8422 154.523 78.0922 154.102 79.6078 154.102C81.1156 154.102 82.3109 154.484 83.1937 155.25C84.0766 156.016 84.5102 156.984 84.4945 158.156C84.4945 158.969 84.2523 159.711 83.768 160.383C83.2992 161.031 82.6703 161.793 81.8812 162.668C80.8734 163.793 80.307 164.434 80.182 164.59L76.3852 169.031H84.4945Z" fill="#44C9AD"/>
<g clip-path="url(#clip0_2001_5)">
<path d="M134.519 51.6118C134.323 47.5575 131.189 44.261 127.205 43.8071C129.209 43.3742 130.715 41.5891 130.715 39.4581C130.715 37.0043 128.719 35.0068 126.265 35.0068C123.811 35.0068 121.815 37.0043 121.815 39.4581C121.815 41.5888 123.321 43.3738 125.324 43.807C121.208 44.2758 118 47.7777 118 52.0156V55.3456C118 56.3811 118.839 57.2206 119.875 57.2206H129.636C129.625 53.5582 131.509 51.8183 134.519 51.6118Z" fill="#44C9AD"/>
<path d="M174.676 43.807C176.679 43.3738 178.185 41.5888 178.185 39.4581C178.185 37.0043 176.189 35.0068 173.735 35.0068C171.281 35.0068 169.285 37.0043 169.285 39.4581C169.285 41.5891 170.791 43.3742 172.795 43.8071C168.811 44.2608 165.677 47.5575 165.481 51.6118C168.485 51.8178 170.376 53.5512 170.364 57.2206H180.125C181.161 57.2206 182 56.3811 182 55.3456V52.0156C182 47.7777 178.792 44.2758 174.676 43.807Z" fill="#44C9AD"/>
<path d="M170.315 68.9841C167.051 66.4004 165.939 65.1516 166.284 60.9703C166.434 59.1646 166.938 56.3087 166.291 55.6616C166.134 55.5041 165.841 55.4153 165.471 55.3716C163.201 55.1108 159.592 56.3767 156.91 55.2653C155.315 54.6028 154.122 53.0953 152.97 51.6378C152.01 50.4241 150.815 48.9141 150 48.9141C149.185 48.9141 147.99 50.4241 147.03 51.6378C145.877 53.0953 144.685 54.6028 143.09 55.2653C141.42 55.9573 139.428 55.7296 137.576 55.5216C136.49 55.4029 134.261 55.1141 133.709 55.6616C132.628 56.7424 134.603 61.9283 133.312 65.0428C132.65 66.6378 131.142 67.8303 129.685 68.9841C128.471 69.9428 126.961 71.1378 126.961 71.9528C126.961 72.7678 128.471 73.9628 129.685 74.9228C131.142 76.0753 132.65 77.2678 133.312 78.8641C134 80.5216 133.78 82.4816 133.569 84.3766C133.411 85.7916 133.194 87.7303 133.709 88.2441C134.222 88.7591 136.161 88.5416 137.576 88.3841C139.481 88.1711 141.433 87.9551 143.09 88.6416C144.685 89.3028 145.877 90.8103 147.03 92.2691C147.99 93.4816 149.185 94.9928 150 94.9928C150.815 94.9928 152.01 93.4816 152.969 92.2691C154.122 90.8103 155.315 89.3028 156.91 88.6416C158.569 87.9528 160.529 88.1728 162.424 88.3841C163.839 88.5428 165.776 88.7591 166.291 88.2441C166.805 87.7303 166.589 85.7916 166.431 84.3766C166.22 82.4816 166 80.5216 166.687 78.8641C167.35 77.2678 168.857 76.0753 170.315 74.9228C171.529 73.9628 173.039 72.7678 173.039 71.9528C173.039 71.1378 171.529 69.9428 170.315 68.9841ZM157.23 70.1891L148.294 77.6716C147.437 78.3896 146.153 78.1977 145.536 77.2816L142.419 72.6578C141.84 71.7991 142.066 70.6341 142.925 70.0541C143.784 69.4753 144.949 69.7028 145.527 70.5616C146.038 71.3184 145.651 70.7434 147.482 73.4603C152.818 68.9928 151.191 70.3553 154.824 67.3141C155.617 66.6491 156.8 66.7541 157.465 67.5478C158.129 68.3416 158.025 69.5253 157.23 70.1891Z" fill="#44C9AD"/>
</g>
<defs>
<filter id="filter0_i_2001_5" x="6.16248" y="32.875" width="106.3" height="91.625" filterUnits="userSpaceOnUse" color-interpolation-filters="sRGB">
<feFlood flood-opacity="0" result="BackgroundImageFix"/>
<feBlend mode="normal" in="SourceGraphic" in2="BackgroundImageFix" result="shape"/>
<feColorMatrix in="SourceAlpha" type="matrix" values="0 0 0 0 0 0 0 0 0 0 0 0 0 0 0 0 0 0 127 0" result="hardAlpha"/>
<feOffset/>
<feGaussianBlur stdDeviation="23.5"/>
<feComposite in2="hardAlpha" operator="arithmetic" k2="-1" k3="1"/>
<feColorMatrix type="matrix" values="0 0 0 0 1 0 0 0 0 1 0 0 0 0 1 0 0 0 0.35 0"/>
<feBlend mode="normal" in2="shape" result="effect1_innerShadow_2001_5"/>
</filter>
<clipPath id="clip0_2001_5">
<rect width="64" height="64" fill="white" transform="translate(118 33)"/>
</clipPath>
</defs>
</svg>
