<svg width="182" height="182" viewBox="0 0 182 182" fill="none" xmlns="http://www.w3.org/2000/svg">
<mask id="path-1-inside-1_2022_41" fill="white">
<path d="M42.4125 49.5H8.475V34.6875H60.6V35.1875L38.7875 63.375C46.2875 65.0417 52.6417 68.6042 57.85 74.0625C63.0583 79.5208 65.6625 85.9375 65.6625 93.3125C65.6625 102.604 61.9333 110.188 54.475 116.062C47.0583 121.896 38.6 124.854 29.1 124.938C22.0167 124.938 16.35 123.5 12.1 120.625C7.89167 117.75 5.7875 114.021 5.7875 109.438C5.7875 106.479 6.80833 104.042 8.85 102.125C10.8917 100.167 13.3917 99.1875 16.35 99.1875C19.1833 99.1875 21.6208 100.104 23.6625 101.938C25.7458 103.771 26.7875 106.083 26.7875 108.875C26.7875 111.292 26.1625 113.479 24.9125 115.438C23.6625 117.354 21.9333 118.854 19.725 119.938C21.9333 120.896 24.1208 121.354 26.2875 121.312C32.4125 121.312 37.4125 119.625 41.2875 116.25C45.2042 112.875 47.1625 107.667 47.1625 100.625C47.1625 93.625 44.6208 88.2083 39.5375 84.375C34.4958 80.5833 28.6625 78.4375 22.0375 77.9375L21.4125 76.9375L42.4125 49.5ZM109.4 106.562C111.442 108.562 112.463 111.062 112.463 114.062C112.463 117.062 111.442 119.562 109.4 121.562C107.358 123.521 104.838 124.5 101.838 124.5C98.8375 124.5 96.3167 123.5 94.275 121.5C92.2333 119.5 91.2125 117 91.2125 114C91.2125 111.042 92.2333 108.562 94.275 106.562C96.3583 104.562 98.8792 103.562 101.838 103.562C104.838 103.562 107.358 104.562 109.4 106.562Z"/>
</mask>
<g filter="url(#filter0_i_2022_41)">
<path d="M42.4125 49.5H8.475V34.6875H60.6V35.1875L38.7875 63.375C46.2875 65.0417 52.6417 68.6042 57.85 74.0625C63.0583 79.5208 65.6625 85.9375 65.6625 93.3125C65.6625 102.604 61.9333 110.188 54.475 116.062C47.0583 121.896 38.6 124.854 29.1 124.938C22.0167 124.938 16.35 123.5 12.1 120.625C7.89167 117.75 5.7875 114.021 5.7875 109.438C5.7875 106.479 6.80833 104.042 8.85 102.125C10.8917 100.167 13.3917 99.1875 16.35 99.1875C19.1833 99.1875 21.6208 100.104 23.6625 101.938C25.7458 103.771 26.7875 106.083 26.7875 108.875C26.7875 111.292 26.1625 113.479 24.9125 115.438C23.6625 117.354 21.9333 118.854 19.725 119.938C21.9333 120.896 24.1208 121.354 26.2875 121.312C32.4125 121.312 37.4125 119.625 41.2875 116.25C45.2042 112.875 47.1625 107.667 47.1625 100.625C47.1625 93.625 44.6208 88.2083 39.5375 84.375C34.4958 80.5833 28.6625 78.4375 22.0375 77.9375L21.4125 76.9375L42.4125 49.5ZM109.4 106.562C111.442 108.562 112.463 111.062 112.463 114.062C112.463 117.062 111.442 119.562 109.4 121.562C107.358 123.521 104.838 124.5 101.838 124.5C98.8375 124.5 96.3167 123.5 94.275 121.5C92.2333 119.5 91.2125 117 91.2125 114C91.2125 111.042 92.2333 108.562 94.275 106.562C96.3583 104.562 98.8792 103.562 101.838 103.562C104.838 103.562 107.358 104.562 109.4 106.562Z" fill="#44C9AD"/>
</g>
<path d="M42.4125 49.5L43.2066 50.1078L44.4372 48.5H42.4125V49.5ZM8.475 49.5H7.475V50.5H8.475V49.5ZM8.475 34.6875V33.6875H7.475V34.6875H8.475ZM60.6 34.6875H61.6V33.6875H60.6V34.6875ZM60.6 35.1875L61.3909 35.7995L61.6 35.5292V35.1875H60.6ZM38.7875 63.375L37.9966 62.763L37.0322 64.0093L38.5706 64.3512L38.7875 63.375ZM54.475 116.062L55.0932 116.849L55.0938 116.848L54.475 116.062ZM29.1 124.938V125.938L29.1088 125.937L29.1 124.938ZM12.1 120.625L11.5359 121.451L11.5397 121.453L12.1 120.625ZM8.85 102.125L9.53447 102.854L9.54222 102.847L8.85 102.125ZM23.6625 101.938L22.9943 102.682L23.0019 102.688L23.6625 101.938ZM24.9125 115.438L25.7501 115.984L25.7554 115.976L24.9125 115.438ZM19.725 119.938L19.2846 119.04L17.3411 119.993L19.3269 120.855L19.725 119.938ZM26.2875 121.312V120.312H26.2779L26.2683 120.313L26.2875 121.312ZM41.2875 116.25L40.6347 115.492L40.6307 115.496L41.2875 116.25ZM39.5375 84.375L40.1396 83.5766L40.1386 83.5758L39.5375 84.375ZM22.0375 77.9375L21.1895 78.4675L21.4577 78.8966L21.9622 78.9347L22.0375 77.9375ZM21.4125 76.9375L20.6184 76.3297L20.1973 76.8799L20.5645 77.4675L21.4125 76.9375ZM42.4125 49.5V48.5H8.475V49.5V50.5H42.4125V49.5ZM8.475 49.5H9.475V34.6875H8.475H7.475V49.5H8.475ZM8.475 34.6875V35.6875H60.6V34.6875V33.6875H8.475V34.6875ZM60.6 34.6875H59.6V35.1875H60.6H61.6V34.6875H60.6ZM60.6 35.1875L59.8091 34.5755L37.9966 62.763L38.7875 63.375L39.5784 63.987L61.3909 35.7995L60.6 35.1875ZM38.7875 63.375L38.5706 64.3512C45.8809 65.9757 52.0576 69.4407 57.1265 74.7528L57.85 74.0625L58.5735 73.3722C53.2257 67.7677 46.6941 64.1076 39.0044 62.3988L38.7875 63.375ZM57.85 74.0625L57.1265 74.7528C62.1619 80.0299 64.6625 86.2011 64.6625 93.3125H65.6625H66.6625C66.6625 85.6739 63.9548 79.0117 58.5735 73.3722L57.85 74.0625ZM65.6625 93.3125H64.6625C64.6625 102.29 61.08 109.587 53.8562 115.277L54.475 116.062L55.0938 116.848C62.7867 110.788 66.6625 102.918 66.6625 93.3125H65.6625ZM54.475 116.062L53.8568 115.276C46.6153 120.972 38.3716 123.856 29.0912 123.938L29.1 124.938L29.1088 125.937C38.8284 125.852 47.5014 122.82 55.0932 116.849L54.475 116.062ZM29.1 124.938V123.938C22.1427 123.938 16.6929 122.525 12.6603 119.797L12.1 120.625L11.5397 121.453C16.0071 124.475 21.8906 125.938 29.1 125.938V124.938ZM12.1 120.625L12.6641 119.799C8.69277 117.086 6.7875 113.649 6.7875 109.438H5.7875H4.7875C4.7875 114.392 7.09056 118.414 11.5359 121.451L12.1 120.625ZM5.7875 109.438H6.7875C6.7875 106.738 7.70652 104.57 9.53443 102.854L8.85 102.125L8.16556 101.396C5.91014 103.513 4.7875 106.22 4.7875 109.438H5.7875ZM8.85 102.125L9.54222 102.847C11.3885 101.076 13.6366 100.188 16.35 100.188V99.1875V98.1875C13.1467 98.1875 10.3948 99.2576 8.15777 101.403L8.85 102.125ZM16.35 99.1875V100.188C18.9455 100.188 21.1427 101.019 22.9944 102.682L23.6625 101.938L24.3306 101.193C22.099 99.1895 19.4212 98.1875 16.35 98.1875V99.1875ZM23.6625 101.938L23.0019 102.688C24.868 104.33 25.7875 106.369 25.7875 108.875H26.7875H27.7875C27.7875 105.798 26.6237 103.211 24.3231 101.187L23.6625 101.938ZM26.7875 108.875H25.7875C25.7875 111.109 25.2127 113.109 24.0696 114.899L24.9125 115.438L25.7554 115.976C27.1123 113.85 27.7875 111.474 27.7875 108.875H26.7875ZM24.9125 115.438L24.0749 114.891C22.9306 116.646 21.3438 118.03 19.2846 119.04L19.725 119.938L20.1654 120.835C22.5228 119.679 24.3944 118.063 25.7501 115.984L24.9125 115.438ZM19.725 119.938L19.3269 120.855C21.6521 121.864 23.9815 122.357 26.3067 122.312L26.2875 121.312L26.2683 120.313C24.2602 120.351 22.2145 119.928 20.1231 119.02L19.725 119.938ZM26.2875 121.312V122.312C32.6052 122.312 37.8536 120.567 41.9443 117.004L41.2875 116.25L40.6307 115.496C36.9714 118.683 32.2198 120.312 26.2875 120.312V121.312ZM41.2875 116.25L41.9403 117.008C46.1493 113.381 48.1625 107.847 48.1625 100.625H47.1625H46.1625C46.1625 107.486 44.259 112.369 40.6347 115.492L41.2875 116.25ZM47.1625 100.625H48.1625C48.1625 93.3472 45.5009 87.6195 40.1396 83.5766L39.5375 84.375L38.9354 85.1734C43.7408 88.7971 46.1625 93.9028 46.1625 100.625H47.1625ZM39.5375 84.375L40.1386 83.5758C34.9358 79.663 28.9177 77.4539 22.1128 76.9403L22.0375 77.9375L21.9622 78.9347C28.4073 79.4211 34.0558 81.5037 38.9364 85.1742L39.5375 84.375ZM22.0375 77.9375L22.8855 77.4075L22.2605 76.4075L21.4125 76.9375L20.5645 77.4675L21.1895 78.4675L22.0375 77.9375ZM21.4125 76.9375L22.2066 77.5453L43.2066 50.1078L42.4125 49.5L41.6184 48.8922L20.6184 76.3297L21.4125 76.9375ZM109.4 121.562L110.092 122.284L110.1 122.277L109.4 121.562ZM94.275 106.562L93.5824 105.841L93.5752 105.848L94.275 106.562ZM109.4 106.562L108.7 107.277C110.539 109.079 111.463 111.316 111.463 114.062H112.463H113.463C113.463 110.809 112.344 108.046 110.1 105.848L109.4 106.562ZM112.463 114.062H111.463C111.463 116.809 110.539 119.046 108.7 120.848L109.4 121.562L110.1 122.277C112.344 120.079 113.463 117.316 113.463 114.062H112.463ZM109.4 121.562L108.708 120.841C106.864 122.609 104.597 123.5 101.838 123.5V124.5V125.5C105.078 125.5 107.852 124.433 110.092 122.284L109.4 121.562ZM101.838 124.5V123.5C99.0847 123.5 96.8195 122.593 94.9748 120.786L94.275 121.5L93.5752 122.214C95.8139 124.407 98.5903 125.5 101.838 125.5V124.5ZM94.275 121.5L94.9748 120.786C93.1355 118.984 92.2125 116.746 92.2125 114H91.2125H90.2125C90.2125 117.254 91.3311 120.016 93.5752 122.214L94.275 121.5ZM91.2125 114H92.2125C92.2125 111.3 93.1326 109.081 94.9748 107.277L94.275 106.562L93.5752 105.848C91.3341 108.044 90.2125 110.783 90.2125 114H91.2125ZM94.275 106.562L94.9675 107.284C96.8596 105.467 99.1303 104.562 101.838 104.562V103.562V102.562C98.628 102.562 95.857 103.658 93.5825 105.841L94.275 106.562ZM101.838 103.562V104.562C104.59 104.562 106.856 105.47 108.7 107.277L109.4 106.562L110.1 105.848C107.861 103.655 105.085 102.562 101.838 102.562V103.562Z" fill="#E3E3E3" mask="url(#path-1-inside-1_2022_41)"/>
<path d="M27.0938 170.906V171H1.03125V170.906C1.85156 170.695 2.39453 170.367 2.66016 169.922C2.93359 169.469 3.07031 168.738 3.07031 167.73V157.699C3.07031 156.699 2.93359 155.973 2.66016 155.52C2.39453 155.074 1.85156 154.746 1.03125 154.535V154.441H7.60547V154.535C6.78516 154.746 6.24219 155.074 5.97656 155.52C5.70312 155.973 5.56641 156.699 5.56641 157.699V167.73C5.56641 168.652 5.66797 169.281 5.87109 169.617C6.06641 169.945 6.4375 170.109 6.98438 170.109H11.4023C11.9414 170.109 12.3125 169.945 12.5156 169.617C12.7188 169.281 12.8203 168.652 12.8203 167.73V157.699C12.8203 156.699 12.6836 155.973 12.4102 155.52C12.1445 155.074 11.6016 154.746 10.7812 154.535V154.441H17.3555V154.535C16.5508 154.746 16.0078 155.074 15.7266 155.52C15.4453 155.973 15.3086 156.699 15.3164 157.699V167.73C15.3086 168.645 15.4062 169.273 15.6094 169.617C15.8125 169.945 16.1836 170.109 16.7227 170.109H21.1406C21.6875 170.109 22.0625 169.945 22.2656 169.617C22.4688 169.273 22.5664 168.645 22.5586 167.73V157.699C22.5586 156.699 22.4219 155.973 22.1484 155.52C21.8828 155.074 21.3398 154.746 20.5195 154.535V154.441H27.0938V154.535C26.2734 154.746 25.7305 155.074 25.4648 155.52C25.1914 155.973 25.0547 156.699 25.0547 157.699V167.73C25.0547 168.73 25.1914 169.461 25.4648 169.922C25.7305 170.375 26.2734 170.703 27.0938 170.906ZM35.5641 164.355H41.3766L38.4 156.023L35.5641 164.355ZM47.3766 170.906V171H41.3531V170.906C41.8766 170.773 42.2516 170.594 42.4781 170.367C42.7125 170.133 42.8258 169.75 42.818 169.219C42.818 168.68 42.4312 167.328 41.6578 165.164H35.2828C34.5641 167.336 34.2047 168.672 34.2047 169.172C34.2047 169.688 34.318 170.07 34.5445 170.32C34.7789 170.562 35.1578 170.758 35.6812 170.906V171H30.6187V170.906C31.0953 170.664 31.4898 170.363 31.8023 170.004C32.3961 169.316 33.2281 167.496 34.2984 164.543L37.9898 154.441H40.3219L43.8961 164.52C44.7008 166.816 45.3141 168.363 45.7359 169.16C46.1734 169.988 46.7203 170.57 47.3766 170.906ZM57.675 170.906V171H50.7609V170.906C51.5812 170.695 52.1242 170.367 52.3898 169.922C52.6633 169.469 52.8 168.738 52.8 167.73V157.699C52.8 156.699 52.6633 155.973 52.3898 155.52C52.1242 155.074 51.5812 154.746 50.7609 154.535V154.441H62.0344V157.828H61.9406C61.2922 156.656 60.7922 155.93 60.4406 155.648C60.0734 155.352 59.4875 155.203 58.6828 155.203H55.2961V167.73C55.2961 168.723 55.4602 169.453 55.7883 169.922C56.1164 170.383 56.7453 170.711 57.675 170.906ZM81.3773 156.621H74.6859V154.441H83.8734V154.535L79.6078 160.418C81.0297 160.598 82.2484 161.148 83.2641 162.07C84.2797 162.992 84.7875 164.227 84.7875 165.773C84.7875 167.336 84.1078 168.656 82.7484 169.734C81.3969 170.805 79.8461 171.348 78.0961 171.363C76.8617 171.363 75.8852 171.086 75.1664 170.531C74.4477 169.977 74.0883 169.324 74.0883 168.574C74.0883 168.09 74.2484 167.691 74.5687 167.379C74.8891 167.059 75.2914 166.898 75.7758 166.898C76.2289 166.898 76.6117 167.039 76.9242 167.32C77.2367 167.602 77.393 167.969 77.393 168.422C77.393 168.844 77.2523 169.223 76.9711 169.559C76.6898 169.887 76.3422 170.102 75.9281 170.203C76.5531 170.555 77.225 170.73 77.9437 170.73C79.1156 170.73 80.1078 170.355 80.9203 169.605C81.7328 168.855 82.1391 167.785 82.1391 166.395C82.1391 165.004 81.6703 163.98 80.7328 163.324C79.8734 162.723 78.8539 162.43 77.6742 162.445C77.5102 162.445 77.3852 162.449 77.2992 162.457L77.2523 162.387L81.3773 156.621Z" fill="#44C9AD"/>
<path d="M158.474 44.375H158.437L153.856 50.4829L157.634 73.1426L150 80.7764L142.366 73.1426L146.144 50.4834L141.563 44.375H141.526C140.293 46.2114 138.711 47.7935 136.875 49.0259V63.7822C136.875 72.7598 142 80.853 150 84.79C158 80.8535 163.125 72.7603 163.125 63.7822V49.0259C161.289 47.7935 159.707 46.2114 158.474 44.375Z" fill="#44C9AD"/>
<path d="M150.938 48.125L153.75 44.375H146.25L149.062 48.125H150.938Z" fill="#44C9AD"/>
<path d="M146.589 70.625L146.384 71.8574L150 75.4736L153.616 71.8574L150.287 51.875H149.713L147.214 66.875H151.875V70.625H146.589Z" fill="#44C9AD"/>
<path d="M174.375 63.7822V40.625H172.5C169.398 40.625 166.875 37.9766 166.875 34.875V33H133.125V34.875C133.125 37.9766 130.602 40.625 127.5 40.625H125.625V63.7822C125.625 78.7769 135.183 92.0615 149.407 96.8022L150 97L150.593 96.8022C164.817 92.0615 174.375 78.7769 174.375 63.7822ZM150.767 88.5732L150 88.9155L149.233 88.5732C139.448 84.1895 133.125 74.5195 133.125 63.7822V46.9072C133.569 46.582 136.704 45.2876 138.865 41.5591L139.407 40.625H160.593L161.135 41.5591C163.286 45.2715 166.402 46.561 166.875 46.9072V63.7822C166.875 74.5195 160.552 84.1895 150.767 88.5732Z" fill="#44C9AD"/>
<defs>
<filter id="filter0_i_2022_41" x="5.78748" y="34.6875" width="106.675" height="90.25" filterUnits="userSpaceOnUse" color-interpolation-filters="sRGB">
<feFlood flood-opacity="0" result="BackgroundImageFix"/>
<feBlend mode="normal" in="SourceGraphic" in2="BackgroundImageFix" result="shape"/>
<feColorMatrix in="SourceAlpha" type="matrix" values="0 0 0 0 0 0 0 0 0 0 0 0 0 0 0 0 0 0 127 0" result="hardAlpha"/>
<feOffset/>
<feGaussianBlur stdDeviation="23.5"/>
<feComposite in2="hardAlpha" operator="arithmetic" k2="-1" k3="1"/>
<feColorMatrix type="matrix" values="0 0 0 0 1 0 0 0 0 1 0 0 0 0 1 0 0 0 0.35 0"/>
<feBlend mode="normal" in2="shape" result="effect1_innerShadow_2022_41"/>
</filter>
</defs>
</svg>
