<svg width="182" height="182" viewBox="0 0 182 182" fill="none" xmlns="http://www.w3.org/2000/svg">
<mask id="path-1-inside-1_2022_42" fill="white">
<path d="M68.6625 122.5V123H29.725V122.5C34.3917 121.083 37.4542 119.167 38.9125 116.75C40.3292 114.375 41.0167 110.562 40.975 105.312V98.6875H2.85V98.1875L44.725 34.0625H58.6625V89.3125H67.975V98.6875H58.6625V105.312C58.6625 107.812 58.7667 109.833 58.975 111.375C59.1833 112.917 59.6208 114.458 60.2875 116C60.9542 117.5 61.9542 118.771 63.2875 119.812C64.6625 120.812 66.4542 121.708 68.6625 122.5ZM14.6 89.3125H40.975V49.5L14.6 89.3125ZM109.4 106.562C111.442 108.562 112.463 111.062 112.463 114.062C112.463 117.062 111.442 119.562 109.4 121.562C107.358 123.521 104.838 124.5 101.838 124.5C98.8375 124.5 96.3167 123.5 94.275 121.5C92.2333 119.5 91.2125 117 91.2125 114C91.2125 111.042 92.2333 108.562 94.275 106.562C96.3583 104.562 98.8792 103.562 101.838 103.562C104.838 103.562 107.358 104.562 109.4 106.562Z"/>
</mask>
<g filter="url(#filter0_i_2022_42)">
<path d="M68.6625 122.5V123H29.725V122.5C34.3917 121.083 37.4542 119.167 38.9125 116.75C40.3292 114.375 41.0167 110.562 40.975 105.312V98.6875H2.85V98.1875L44.725 34.0625H58.6625V89.3125H67.975V98.6875H58.6625V105.312C58.6625 107.812 58.7667 109.833 58.975 111.375C59.1833 112.917 59.6208 114.458 60.2875 116C60.9542 117.5 61.9542 118.771 63.2875 119.812C64.6625 120.812 66.4542 121.708 68.6625 122.5ZM14.6 89.3125H40.975V49.5L14.6 89.3125ZM109.4 106.562C111.442 108.562 112.463 111.062 112.463 114.062C112.463 117.062 111.442 119.562 109.4 121.562C107.358 123.521 104.838 124.5 101.838 124.5C98.8375 124.5 96.3167 123.5 94.275 121.5C92.2333 119.5 91.2125 117 91.2125 114C91.2125 111.042 92.2333 108.562 94.275 106.562C96.3583 104.562 98.8792 103.562 101.838 103.562C104.838 103.562 107.358 104.562 109.4 106.562Z" fill="#44C9AD"/>
</g>
<path d="M68.6625 122.5H69.6625V121.796L69 121.559L68.6625 122.5ZM68.6625 123V124H69.6625V123H68.6625ZM29.725 123H28.725V124H29.725V123ZM29.725 122.5L29.4345 121.543L28.725 121.759V122.5H29.725ZM38.9125 116.75L39.7687 117.267L39.7713 117.262L38.9125 116.75ZM40.975 105.312H39.975L39.975 105.32L40.975 105.312ZM40.975 98.6875H41.975V97.6875H40.975V98.6875ZM2.85 98.6875H1.85V99.6875H2.85V98.6875ZM2.85 98.1875L2.01271 97.6407L1.85 97.8899V98.1875H2.85ZM44.725 34.0625V33.0625H44.1837L43.8877 33.5157L44.725 34.0625ZM58.6625 34.0625H59.6625V33.0625H58.6625V34.0625ZM58.6625 89.3125H57.6625V90.3125H58.6625V89.3125ZM67.975 89.3125H68.975V88.3125H67.975V89.3125ZM67.975 98.6875V99.6875H68.975V98.6875H67.975ZM58.6625 98.6875V97.6875H57.6625V98.6875H58.6625ZM60.2875 116L59.3696 116.397L59.3737 116.406L60.2875 116ZM63.2875 119.812L62.6719 120.601L62.6854 120.611L62.6993 120.621L63.2875 119.812ZM14.6 89.3125L13.7663 88.7602L12.738 90.3125H14.6V89.3125ZM40.975 89.3125V90.3125H41.975V89.3125H40.975ZM40.975 49.5H41.975V46.1799L40.1413 48.9477L40.975 49.5ZM68.6625 122.5H67.6625V123H68.6625H69.6625V122.5H68.6625ZM68.6625 123V122H29.725V123V124H68.6625V123ZM29.725 123H30.725V122.5H29.725H28.725V123H29.725ZM29.725 122.5L30.0155 123.457C34.7608 122.016 38.1175 120.003 39.7687 117.267L38.9125 116.75L38.0563 116.233C36.7909 118.33 34.0225 120.15 29.4345 121.543L29.725 122.5ZM38.9125 116.75L39.7713 117.262C41.3336 114.643 42.017 110.599 41.975 105.305L40.975 105.312L39.975 105.32C40.0163 110.526 39.3247 114.107 38.0537 116.238L38.9125 116.75ZM40.975 105.312H41.975V98.6875H40.975H39.975V105.312H40.975ZM40.975 98.6875V97.6875H2.85V98.6875V99.6875H40.975V98.6875ZM2.85 98.6875H3.85V98.1875H2.85H1.85V98.6875H2.85ZM2.85 98.1875L3.68728 98.7343L45.5623 34.6093L44.725 34.0625L43.8877 33.5157L2.01271 97.6407L2.85 98.1875ZM44.725 34.0625V35.0625H58.6625V34.0625V33.0625H44.725V34.0625ZM58.6625 34.0625H57.6625V89.3125H58.6625H59.6625V34.0625H58.6625ZM58.6625 89.3125V90.3125H67.975V89.3125V88.3125H58.6625V89.3125ZM67.975 89.3125H66.975V98.6875H67.975H68.975V89.3125H67.975ZM67.975 98.6875V97.6875H58.6625V98.6875V99.6875H67.975V98.6875ZM58.6625 98.6875H57.6625V105.312H58.6625H59.6625V98.6875H58.6625ZM58.6625 105.312H57.6625C57.6625 107.834 57.7672 109.905 57.984 111.509L58.975 111.375L59.966 111.241C59.7661 109.762 59.6625 107.791 59.6625 105.312H58.6625ZM58.975 111.375L57.984 111.509C58.2055 113.148 58.6696 114.778 59.3696 116.397L60.2875 116L61.2054 115.603C60.5721 114.139 60.1611 112.685 59.966 111.241L58.975 111.375ZM60.2875 116L59.3737 116.406C60.109 118.061 61.2135 119.461 62.6719 120.601L63.2875 119.812L63.9031 119.024C62.6949 118.081 61.7993 116.939 61.2013 115.594L60.2875 116ZM63.2875 119.812L62.6993 120.621C64.1741 121.694 66.0586 122.629 68.325 123.441L68.6625 122.5L69 121.559C66.8498 120.788 65.1509 119.931 63.8757 119.004L63.2875 119.812ZM14.6 89.3125V90.3125H40.975V89.3125V88.3125H14.6V89.3125ZM40.975 89.3125H41.975V49.5H40.975H39.975V89.3125H40.975ZM40.975 49.5L40.1413 48.9477L13.7663 88.7602L14.6 89.3125L15.4337 89.8648L41.8087 50.0523L40.975 49.5ZM109.4 121.562L110.092 122.284L110.1 122.277L109.4 121.562ZM94.275 106.562L93.5824 105.841L93.5752 105.848L94.275 106.562ZM109.4 106.562L108.7 107.277C110.539 109.079 111.463 111.316 111.463 114.062H112.463H113.463C113.463 110.809 112.344 108.046 110.1 105.848L109.4 106.562ZM112.463 114.062H111.463C111.463 116.809 110.539 119.046 108.7 120.848L109.4 121.562L110.1 122.277C112.344 120.079 113.463 117.316 113.463 114.062H112.463ZM109.4 121.562L108.708 120.841C106.864 122.609 104.597 123.5 101.838 123.5V124.5V125.5C105.078 125.5 107.852 124.433 110.092 122.284L109.4 121.562ZM101.838 124.5V123.5C99.0847 123.5 96.8195 122.593 94.9748 120.786L94.275 121.5L93.5752 122.214C95.8139 124.407 98.5903 125.5 101.838 125.5V124.5ZM94.275 121.5L94.9748 120.786C93.1355 118.984 92.2125 116.746 92.2125 114H91.2125H90.2125C90.2125 117.254 91.3311 120.016 93.5752 122.214L94.275 121.5ZM91.2125 114H92.2125C92.2125 111.3 93.1326 109.081 94.9748 107.277L94.275 106.562L93.5752 105.848C91.3341 108.044 90.2125 110.783 90.2125 114H91.2125ZM94.275 106.562L94.9675 107.284C96.8596 105.467 99.1303 104.562 101.838 104.562V103.562V102.562C98.628 102.562 95.857 103.658 93.5825 105.841L94.275 106.562ZM101.838 103.562V104.562C104.59 104.562 106.856 105.47 108.7 107.277L109.4 106.562L110.1 105.848C107.861 103.655 105.085 102.562 101.838 102.562V103.562Z" fill="#E3E3E3" mask="url(#path-1-inside-1_2022_42)"/>
<path d="M27.0938 170.906V171H1.03125V170.906C1.85156 170.695 2.39453 170.367 2.66016 169.922C2.93359 169.469 3.07031 168.738 3.07031 167.73V157.699C3.07031 156.699 2.93359 155.973 2.66016 155.52C2.39453 155.074 1.85156 154.746 1.03125 154.535V154.441H7.60547V154.535C6.78516 154.746 6.24219 155.074 5.97656 155.52C5.70312 155.973 5.56641 156.699 5.56641 157.699V167.73C5.56641 168.652 5.66797 169.281 5.87109 169.617C6.06641 169.945 6.4375 170.109 6.98438 170.109H11.4023C11.9414 170.109 12.3125 169.945 12.5156 169.617C12.7188 169.281 12.8203 168.652 12.8203 167.73V157.699C12.8203 156.699 12.6836 155.973 12.4102 155.52C12.1445 155.074 11.6016 154.746 10.7812 154.535V154.441H17.3555V154.535C16.5508 154.746 16.0078 155.074 15.7266 155.52C15.4453 155.973 15.3086 156.699 15.3164 157.699V167.73C15.3086 168.645 15.4062 169.273 15.6094 169.617C15.8125 169.945 16.1836 170.109 16.7227 170.109H21.1406C21.6875 170.109 22.0625 169.945 22.2656 169.617C22.4688 169.273 22.5664 168.645 22.5586 167.73V157.699C22.5586 156.699 22.4219 155.973 22.1484 155.52C21.8828 155.074 21.3398 154.746 20.5195 154.535V154.441H27.0938V154.535C26.2734 154.746 25.7305 155.074 25.4648 155.52C25.1914 155.973 25.0547 156.699 25.0547 157.699V167.73C25.0547 168.73 25.1914 169.461 25.4648 169.922C25.7305 170.375 26.2734 170.703 27.0938 170.906ZM35.5641 164.355H41.3766L38.4 156.023L35.5641 164.355ZM47.3766 170.906V171H41.3531V170.906C41.8766 170.773 42.2516 170.594 42.4781 170.367C42.7125 170.133 42.8258 169.75 42.818 169.219C42.818 168.68 42.4312 167.328 41.6578 165.164H35.2828C34.5641 167.336 34.2047 168.672 34.2047 169.172C34.2047 169.688 34.318 170.07 34.5445 170.32C34.7789 170.562 35.1578 170.758 35.6812 170.906V171H30.6187V170.906C31.0953 170.664 31.4898 170.363 31.8023 170.004C32.3961 169.316 33.2281 167.496 34.2984 164.543L37.9898 154.441H40.3219L43.8961 164.52C44.7008 166.816 45.3141 168.363 45.7359 169.16C46.1734 169.988 46.7203 170.57 47.3766 170.906ZM57.675 170.906V171H50.7609V170.906C51.5812 170.695 52.1242 170.367 52.3898 169.922C52.6633 169.469 52.8 168.738 52.8 167.73V157.699C52.8 156.699 52.6633 155.973 52.3898 155.52C52.1242 155.074 51.5812 154.746 50.7609 154.535V154.441H62.0344V157.828H61.9406C61.2922 156.656 60.7922 155.93 60.4406 155.648C60.0734 155.352 59.4875 155.203 58.6828 155.203H55.2961V167.73C55.2961 168.723 55.4602 169.453 55.7883 169.922C56.1164 170.383 56.7453 170.711 57.675 170.906ZM85.3852 170.906V171H78.5531V170.906C79.5609 170.703 80.2328 170.383 80.5687 169.945C80.9047 169.508 81.0727 168.77 81.0727 167.73V166.195H73.6078V166.102L82.2445 154.195H83.3461V164.859H85.2211V166.195H83.3461V167.73C83.3461 168.73 83.4828 169.461 83.7562 169.922C84.0219 170.375 84.5648 170.703 85.3852 170.906ZM75.4477 164.859H81.0727V157.055L75.4477 164.859Z" fill="#44C9AD"/>
<g clip-path="url(#clip0_2022_42)">
<path d="M174.154 63.1221C174.42 61.6758 174.569 60.1201 174.639 58.4951C179.318 56.439 180.563 54.0073 181.092 52.875C182.584 49.6714 182.197 46.0972 180.227 41.4199C173.093 43.6216 171.522 46.7803 170.898 48.1187C169.663 50.7676 169.78 53.71 170.948 57.2798C170.911 60.3477 170.454 63.0308 169.705 65.4258C167.861 67.082 166.691 69.4175 166.024 72.5957C164.124 75.106 161.702 77.1494 159.254 78.8887C156.952 79.3789 154.768 80.7617 152.5 82.9927C151.564 83.499 150.714 83.9492 149.995 84.3394C149.363 83.9966 148.516 83.5479 147.574 83.0381C144.689 80.2075 142.373 79.1782 140.736 78.8281C138.012 76.8521 135.707 74.7363 133.978 72.4565C133.056 68.2612 131.461 66.3281 130.297 65.3184C129.523 62.8389 129.131 60.1514 129.103 57.2266C130.794 51.938 129.645 49.2949 129.097 48.1187C127.603 44.9155 124.613 42.9155 119.767 41.4199C116.87 48.3013 118.279 51.5366 118.903 52.875C120.07 55.3784 122.188 57.1343 125.355 58.5015C125.423 60.1221 125.594 61.6816 125.873 63.1802C123.664 62.6963 121.126 62.7871 118 63.501C118.93 70.9097 121.77 73.0049 122.98 73.8521C125.859 75.8667 129.238 75.8765 131.581 75.561C132.648 76.8652 134.016 78.105 135.369 79.3076C133.149 80.1348 131.01 81.7246 128.731 84.2417C133.743 89.7764 137.27 89.9907 138.747 89.9907C141.426 89.9907 143.842 88.7847 146.338 86.6294C148.01 87.5439 149.787 88.5112 149.996 88.623C150.092 88.5718 151.895 87.5947 153.69 86.6133C157.39 89.7549 160.027 89.9912 161.247 89.9912C164.781 89.9912 167.857 88.0029 171.264 84.2417C168.669 81.3765 166.482 79.9849 164.761 79.2954C166.029 78.1699 167.362 76.9312 168.474 75.5571C170.824 75.8584 174.181 75.8311 177.013 73.8521C179.907 71.8237 181.357 68.5342 181.991 63.501C178.472 62.7002 175.957 62.7593 174.154 63.1221Z" fill="#44C9AD"/>
<path d="M140.622 26H144.371V29.7495H140.622V26Z" fill="#44C9AD"/>
<path d="M148.121 26H151.87V29.7495H148.121V26Z" fill="#44C9AD"/>
<path d="M155.62 26H159.369V29.7495H155.62V26Z" fill="#44C9AD"/>
<path d="M136.872 33.499H163.118V41.123H136.872V33.499Z" fill="#44C9AD"/>
<path d="M165.628 53.6655L164.158 52.686C161.482 50.9019 159.847 48.0283 159.509 44.8721H140.481C140.144 48.0283 138.508 50.9019 135.833 52.686L134.237 53.6655L148.121 77.249V59.8701H151.87V77.249L165.628 53.6655ZM148.121 56.1206V52.3711H151.87V56.1206H148.121Z" fill="#44C9AD"/>
</g>
<defs>
<filter id="filter0_i_2022_42" x="2.85001" y="34.0625" width="109.613" height="90.4375" filterUnits="userSpaceOnUse" color-interpolation-filters="sRGB">
<feFlood flood-opacity="0" result="BackgroundImageFix"/>
<feBlend mode="normal" in="SourceGraphic" in2="BackgroundImageFix" result="shape"/>
<feColorMatrix in="SourceAlpha" type="matrix" values="0 0 0 0 0 0 0 0 0 0 0 0 0 0 0 0 0 0 127 0" result="hardAlpha"/>
<feOffset/>
<feGaussianBlur stdDeviation="23.5"/>
<feComposite in2="hardAlpha" operator="arithmetic" k2="-1" k3="1"/>
<feColorMatrix type="matrix" values="0 0 0 0 1 0 0 0 0 1 0 0 0 0 1 0 0 0 0.35 0"/>
<feBlend mode="normal" in2="shape" result="effect1_innerShadow_2022_42"/>
</filter>
<clipPath id="clip0_2022_42">
<rect width="64" height="64" fill="white" transform="translate(118 26)"/>
</clipPath>
</defs>
</svg>
