<svg width="223" height="50" viewBox="0 0 223 50" fill="none" xmlns="http://www.w3.org/2000/svg">
<rect width="223" height="50" rx="25" fill="#E3C068"/>
<path d="M39.4624 29V20.6H47.1184V29H45.1864V21.74L45.6304 22.184H40.9504L41.3944 21.74V29H39.4624ZM54.4206 29.144C53.7566 29.144 53.1406 29.036 52.5726 28.82C52.0126 28.604 51.5246 28.3 51.1086 27.908C50.7006 27.516 50.3806 27.056 50.1486 26.528C49.9246 26 49.8126 25.424 49.8126 24.8C49.8126 24.176 49.9246 23.6 50.1486 23.072C50.3806 22.544 50.7046 22.084 51.1206 21.692C51.5366 21.3 52.0246 20.996 52.5846 20.78C53.1446 20.564 53.7526 20.456 54.4086 20.456C55.0726 20.456 55.6806 20.564 56.2326 20.78C56.7926 20.996 57.2766 21.3 57.6846 21.692C58.1006 22.084 58.4246 22.544 58.6566 23.072C58.8886 23.592 59.0046 24.168 59.0046 24.8C59.0046 25.424 58.8886 26.004 58.6566 26.54C58.4246 27.068 58.1006 27.528 57.6846 27.92C57.2766 28.304 56.7926 28.604 56.2326 28.82C55.6806 29.036 55.0766 29.144 54.4206 29.144ZM54.4086 27.488C54.7846 27.488 55.1286 27.424 55.4406 27.296C55.7606 27.168 56.0406 26.984 56.2806 26.744C56.5206 26.504 56.7046 26.22 56.8326 25.892C56.9686 25.564 57.0366 25.2 57.0366 24.8C57.0366 24.4 56.9686 24.036 56.8326 23.708C56.7046 23.38 56.5206 23.096 56.2806 22.856C56.0486 22.616 55.7726 22.432 55.4526 22.304C55.1326 22.176 54.7846 22.112 54.4086 22.112C54.0326 22.112 53.6846 22.176 53.3646 22.304C53.0526 22.432 52.7766 22.616 52.5366 22.856C52.2966 23.096 52.1086 23.38 51.9726 23.708C51.8446 24.036 51.7806 24.4 51.7806 24.8C51.7806 25.192 51.8446 25.556 51.9726 25.892C52.1086 26.22 52.2926 26.504 52.5246 26.744C52.7646 26.984 53.0446 27.168 53.3646 27.296C53.6846 27.424 54.0326 27.488 54.4086 27.488ZM65.6742 29.144C65.0262 29.144 64.4222 29.04 63.8622 28.832C63.3102 28.616 62.8302 28.312 62.4222 27.92C62.0142 27.528 61.6942 27.068 61.4622 26.54C61.2382 26.012 61.1262 25.432 61.1262 24.8C61.1262 24.168 61.2382 23.588 61.4622 23.06C61.6942 22.532 62.0142 22.072 62.4222 21.68C62.8382 21.288 63.3222 20.988 63.8742 20.78C64.4262 20.564 65.0302 20.456 65.6862 20.456C66.4142 20.456 67.0702 20.584 67.6542 20.84C68.2462 21.088 68.7422 21.456 69.1422 21.944L67.8942 23.096C67.6062 22.768 67.2862 22.524 66.9342 22.364C66.5822 22.196 66.1982 22.112 65.7822 22.112C65.3902 22.112 65.0302 22.176 64.7022 22.304C64.3742 22.432 64.0902 22.616 63.8502 22.856C63.6102 23.096 63.4222 23.38 63.2862 23.708C63.1582 24.036 63.0942 24.4 63.0942 24.8C63.0942 25.2 63.1582 25.564 63.2862 25.892C63.4222 26.22 63.6102 26.504 63.8502 26.744C64.0902 26.984 64.3742 27.168 64.7022 27.296C65.0302 27.424 65.3902 27.488 65.7822 27.488C66.1982 27.488 66.5822 27.408 66.9342 27.248C67.2862 27.08 67.6062 26.828 67.8942 26.492L69.1422 27.644C68.7422 28.132 68.2462 28.504 67.6542 28.76C67.0702 29.016 66.4102 29.144 65.6742 29.144ZM71.494 29.132C71.35 29.132 71.198 29.12 71.038 29.096C70.886 29.072 70.718 29.04 70.534 29L70.654 27.356C70.766 27.388 70.882 27.404 71.002 27.404C71.33 27.404 71.586 27.272 71.77 27.008C71.954 26.736 72.086 26.348 72.166 25.844C72.246 25.34 72.298 24.728 72.322 24.008L72.442 20.6H78.898V29H76.978V21.74L77.422 22.184H73.714L74.11 21.716L74.038 23.936C74.014 24.76 73.958 25.492 73.87 26.132C73.782 26.772 73.646 27.316 73.462 27.764C73.278 28.212 73.026 28.552 72.706 28.784C72.386 29.016 71.982 29.132 71.494 29.132ZM83.984 23.984H88.028V25.496H83.984V23.984ZM84.128 27.44H88.7V29H82.196V20.6H88.544V22.16H84.128V27.44ZM97.0382 28.136V22.184H94.1582L94.1222 23.408C94.0982 23.928 94.0622 24.42 94.0142 24.884C93.9742 25.348 93.9102 25.772 93.8222 26.156C93.7342 26.532 93.6182 26.852 93.4742 27.116C93.3382 27.38 93.1662 27.568 92.9582 27.68L90.8822 27.416C91.1702 27.424 91.4062 27.324 91.5902 27.116C91.7822 26.908 91.9342 26.616 92.0462 26.24C92.1582 25.856 92.2382 25.408 92.2862 24.896C92.3422 24.384 92.3822 23.828 92.4062 23.228L92.5022 20.6H98.9582V28.136H97.0382ZM90.6062 30.74L90.6182 27.416H100.134V30.74H98.3342V29H92.4062V30.74H90.6062ZM108.403 20.6H110.347V29H108.403V20.6ZM104.587 29H102.643V20.6H104.587V29ZM108.547 25.556H104.443V23.912H108.547V25.556ZM113.651 29V20.6H115.583V26.072L119.591 20.6H121.415V29H119.495V23.54L115.487 29H113.651ZM124.707 29V20.6H126.639V26.072L130.647 20.6H132.471V29H130.551V23.54L126.543 29H124.707ZM128.583 20.06C127.783 20.06 127.195 19.9 126.819 19.58C126.451 19.26 126.263 18.808 126.255 18.224H127.587C127.595 18.512 127.679 18.732 127.839 18.884C128.007 19.028 128.255 19.1 128.583 19.1C128.903 19.1 129.147 19.028 129.315 18.884C129.483 18.732 129.571 18.512 129.579 18.224H130.911C130.903 18.808 130.711 19.26 130.335 19.58C129.959 19.9 129.375 20.06 128.583 20.06ZM145.377 27.416L144.945 27.86V20.6H146.877V27.86L146.421 27.416H149.973L149.517 27.86V20.6H151.449V29H140.361V20.6H142.293V27.86L141.849 27.416H145.377ZM153.785 29L157.529 20.6H159.449L163.205 29H161.165L158.093 21.584H158.861L155.777 29H153.785ZM155.657 27.2L156.173 25.724H160.493L161.021 27.2H155.657ZM165.519 29V20.6H171.447L171.435 22.184H166.995L167.439 21.74L167.451 29H165.519ZM181.922 22.988L183.698 25.688L181.922 28.412H180.302L181.934 25.688L180.302 22.988H181.922ZM182.282 25.04V26.348H177.986V25.04H182.282Z" fill="#5A5A5A"/>
</svg>
